<svg width="441" height="296" viewBox="0 0 441 296" fill="none" xmlns="http://www.w3.org/2000/svg">
<text fill="#141E36" xml:space="preserve" style="white-space: pre" font-family="Barlow" font-size="57.7283" font-weight="600" letter-spacing="0em"><tspan x="183.738" y="146.066">5%</tspan></text>
<path d="M273.836 81.0359L221.746 5.97339L169.596 81.0359C165.874 87.0326 159.051 97.7854 155.949 107.091C153.755 113.67 146.023 141.21 168.356 168.505C190.181 195.181 216.763 195.181 221.726 195.181C226.689 195.181 253.251 195.181 275.076 168.505C297.409 141.21 289.677 113.67 287.483 107.091C284.382 97.7854 277.558 87.0326 273.836 81.0359Z" stroke="#141E36" stroke-width="5.77283"/>
<path d="M196.32 189.876C192.685 188.293 190.016 186.628 187.35 184.947C187.434 184.902 187.518 184.857 187.601 184.813C189.552 183.771 191.723 182.633 194.129 181.624C198.936 179.607 204.502 178.186 210.579 179.189C214.623 179.856 217.847 180.823 220.906 181.886C221.913 182.236 222.94 182.611 223.988 182.994C226.038 183.743 228.17 184.522 230.398 185.202C235.597 186.789 241.646 187.966 250.58 187.979C248.789 188.872 246.78 189.765 244.592 190.602C237.568 193.288 229.073 195.25 220.692 194.831C209.109 194.252 201.741 192.236 196.32 189.876Z" stroke="#141E36" stroke-width="5.77283"/>
<text fill="#C2B59B" xml:space="preserve" style="white-space: pre" font-family="Barlow" font-size="34.637" font-weight="500" letter-spacing="0em"><tspan x="68.0131" y="258.691">% koncentr&#xe1;cia CBD</tspan></text>
</svg>
