<svg width="440" height="297" viewBox="0 0 440 297" fill="none" xmlns="http://www.w3.org/2000/svg">
<text fill="#C2B59B" xml:space="preserve" style="white-space: pre" font-family="Barlow" font-size="34.637" font-weight="500" letter-spacing="0em"><tspan x="99.1813" y="254.034">% koncentr&#xe1;cia &#x2028;</tspan><tspan x="118.597" y="296.034">CBD v tablete</tspan></text>
<text fill="#141E36" xml:space="preserve" style="white-space: pre" font-family="Barlow" font-size="57.7283" font-weight="600" letter-spacing="0em"><tspan x="182.874" y="145.543">5%</tspan></text>
<path d="M288.197 112.315C290.653 123.433 292.371 145.788 274.212 167.982C252.387 194.658 225.825 194.658 220.862 194.658C215.899 194.658 189.317 194.658 167.492 167.982C145.159 140.687 152.891 113.148 155.084 106.568C158.186 97.2624 165.01 86.5097 168.732 80.513L220.882 5.45044L268.673 74.3187" stroke="#141E36" stroke-width="5.77283"/>
<path fill-rule="evenodd" clip-rule="evenodd" d="M290.63 0.664307C276.971 0.664307 265.898 11.737 265.898 25.3959V91.5934C265.898 105.252 276.971 116.325 290.63 116.325C304.289 116.325 315.362 105.252 315.362 91.5934V25.3959C315.362 11.737 304.289 0.664307 290.63 0.664307ZM271.671 25.3959C271.671 14.9253 280.159 6.43714 290.63 6.43714C301.101 6.43714 309.589 14.9253 309.589 25.3959V45.9705C306.571 48.465 303.055 48.7482 298.747 48.1512C296.952 47.9024 295.163 47.5232 293.263 47.1205L293.262 47.1202C292.6 46.9799 291.924 46.8367 291.23 46.6951C288.638 46.1665 285.855 45.6785 283.097 45.6785C278.387 45.6785 274.562 46.8997 271.671 48.6423V25.3959ZM271.671 56.2068V91.5934C271.671 102.064 280.159 110.552 290.63 110.552C301.101 110.552 309.589 102.064 309.589 91.5934V52.7204C305.771 54.4288 301.726 54.3921 297.955 53.8694C295.937 53.5897 293.858 53.1488 291.906 52.7346C291.281 52.6021 290.67 52.4724 290.077 52.3515C287.537 51.8337 285.236 51.4514 283.097 51.4514C276.847 51.4514 273.191 54.1604 271.671 56.2068Z" fill="#141E36"/>
</svg>
