<svg width="440" height="306" viewBox="0 0 440 306" fill="none" xmlns="http://www.w3.org/2000/svg">
<text fill="#C2B59B" xml:space="preserve" style="white-space: pre" font-family="Barlow" font-size="34.637" font-weight="500" letter-spacing="0em"><tspan x="114.2" y="268.878">THC pod 0,2%</tspan></text>
<text fill="#141E36" xml:space="preserve" style="white-space: pre" font-family="Barlow Condensed" font-size="57.7283" font-weight="600" letter-spacing="0em"><tspan x="166.518" y="161.002">0,2%</tspan></text>
<path d="M270.733 81.1084L218.644 6.0459L166.494 81.1084C162.772 87.1051 155.948 97.8579 152.846 107.163C150.653 113.743 142.921 141.282 165.253 168.578C187.078 195.253 213.661 195.253 218.624 195.253C223.586 195.253 250.149 195.253 271.974 168.578C294.307 141.282 286.574 113.743 284.381 107.163C281.279 97.8579 274.455 87.1051 270.733 81.1084Z" stroke="#141E36" stroke-width="5.77283"/>
<path d="M218.632 51.1665V98.6618M218.632 98.6618L235.256 82.0385M218.632 98.6618L202.009 82.0385" stroke="#141E36" stroke-width="5.77283"/>
<path d="M197.26 111.515C199.017 108.501 203.738 104.735 211.572 104.735C221.365 104.735 232.664 111.697 240.95 103.411" stroke="#141E36" stroke-width="5.77283"/>
</svg>
