<svg width="440" height="305" viewBox="0 0 440 305" fill="none" xmlns="http://www.w3.org/2000/svg">
<text fill="#C2B59B" xml:space="preserve" style="white-space: pre" font-family="Barlow" font-size="34.637" font-weight="500" letter-spacing="0em"><tspan x="121.765" y="267.979">benefity CBD</tspan></text>
<text fill="#141E36" xml:space="preserve" style="white-space: pre" font-family="Barlow" font-size="57.7283" font-weight="600" letter-spacing="0em"><tspan x="169.009" y="145.239">CBD</tspan></text>
<circle cx="185.559" cy="55.0163" r="33.2467" stroke="#141E36" stroke-width="5.77283"/>
<path d="M273.281 80.2087L275.734 78.6866L275.695 78.6238L275.653 78.5631L273.281 80.2087ZM221.192 5.14624L223.563 3.50064L221.193 0.0854019L218.822 3.49935L221.192 5.14624ZM273.845 81.1163L276.296 79.592L276.296 79.592L273.845 81.1163ZM286.929 106.264L289.667 105.351L289.667 105.351L286.929 106.264ZM274.522 167.678L272.288 165.85L272.288 165.85L274.522 167.678ZM167.801 167.678L170.035 165.85L170.035 165.85L167.801 167.678ZM155.394 106.264L158.133 107.176L158.133 107.176L155.394 106.264ZM167.392 82.8653L169.847 84.3842L171.328 81.9899L168.972 80.4493L167.392 82.8653ZM205.189 28.1805L203.483 30.5088L205.871 32.2582L207.559 29.8273L205.189 28.1805ZM275.653 78.5631L223.563 3.50064L218.821 6.79184L270.91 81.8543L275.653 78.5631ZM276.296 79.592C276.102 79.2786 275.914 78.9769 275.734 78.6866L270.829 81.7309C271.011 82.0237 271.2 82.3275 271.394 82.6406L276.296 79.592ZM289.667 105.351C286.588 96.1132 280.064 85.6504 276.296 79.592L271.394 82.6406C275.252 88.8446 281.368 98.708 284.191 107.176L289.667 105.351ZM276.756 169.506C300.033 141.057 291.973 112.268 289.667 105.351L284.191 107.176C286.271 113.418 293.676 139.709 272.288 165.85L276.756 169.506ZM221.172 197.24C226.424 197.24 254.1 197.197 276.756 169.506L272.288 165.85C251.294 191.51 225.845 191.467 221.172 191.467V197.24ZM165.567 169.506C188.224 197.197 215.92 197.24 221.172 197.24V191.467C216.498 191.467 191.029 191.51 170.035 165.85L165.567 169.506ZM152.656 105.351C150.35 112.268 142.291 141.057 165.567 169.506L170.035 165.85C148.647 139.709 156.052 113.418 158.133 107.176L152.656 105.351ZM164.938 81.3464C161.121 87.5142 155.464 96.9279 152.656 105.351L158.133 107.176C160.696 99.4864 165.989 90.6174 169.847 84.3842L164.938 81.3464ZM168.972 80.4493C160.672 75.0244 155.199 65.6589 155.199 55.0165H149.426C149.426 67.6889 155.952 78.8355 165.813 85.2814L168.972 80.4493ZM155.199 55.0165C155.199 38.2489 168.792 24.6561 185.559 24.6561V18.8833C165.603 18.8833 149.426 35.0607 149.426 55.0165H155.199ZM185.559 24.6561C192.268 24.6561 198.46 26.8284 203.483 30.5088L206.895 25.8521C200.916 21.4711 193.535 18.8833 185.559 18.8833V24.6561ZM218.822 3.49935L202.818 26.5336L207.559 29.8273L223.562 6.79313L218.822 3.49935Z" fill="#141E36"/>
<path d="M173.686 52.6414L183.185 62.1405L199.808 45.5171" stroke="#141E36" stroke-width="5.77283"/>
</svg>
