<svg width="440" height="305" viewBox="0 0 440 305" fill="none" xmlns="http://www.w3.org/2000/svg">
<text fill="#C2B59B" xml:space="preserve" style="white-space: pre" font-family="Barlow" font-size="34.637" font-weight="500" letter-spacing="0em"><tspan x="123.709" y="267.979">fullspektrum</tspan></text>
<path d="M273.416 80.2087L221.327 5.14624L169.177 80.2087C165.454 86.2055 158.631 96.9582 155.529 106.264C153.336 112.843 145.603 140.383 167.936 167.678C189.761 194.353 216.343 194.353 221.306 194.353C226.269 194.353 252.831 194.353 274.657 167.678C296.989 140.383 289.257 112.843 287.064 106.264C283.962 96.9582 277.138 86.2055 273.416 80.2087Z" stroke="#141E36" stroke-width="5.77283"/>
<path d="M221.316 161.881C201.643 161.881 185.694 145.933 185.694 126.26C185.694 106.586 201.643 90.6382 221.316 90.6382C240.989 90.6382 256.937 106.586 256.937 126.26C256.937 136.284 252.797 145.341 246.132 151.814M246.132 151.814L243.758 135.759M246.132 151.814L261.687 149.439" stroke="#141E36" stroke-width="5.77283"/>
</svg>
