<svg width="428" height="279" viewBox="0 0 428 279" fill="none" xmlns="http://www.w3.org/2000/svg">
<text fill="#C2B59B" xml:space="preserve" style="white-space: pre" font-family="Barlow" font-size="34.637" font-weight="500" letter-spacing="0em"><tspan x="160.863" y="243.92">tableta</tspan></text>
<path fill-rule="evenodd" clip-rule="evenodd" d="M214.975 0.86499C194.857 0.86499 178.549 17.1734 178.549 37.2907V138.925C178.549 159.042 194.857 175.351 214.975 175.351C235.092 175.351 251.4 159.042 251.4 138.925V37.2907C251.4 17.1733 235.092 0.86499 214.975 0.86499ZM184.322 37.2907C184.322 20.3616 198.045 6.63782 214.975 6.63782C231.904 6.63782 245.627 20.3616 245.627 37.2907V69.5887C240.391 74.2657 234.28 74.7359 227.225 73.7581C224.41 73.3678 221.587 72.7694 218.653 72.1475L218.653 72.1475L218.651 72.1471C217.644 71.9336 216.624 71.7175 215.587 71.506C211.622 70.6973 207.477 69.9764 203.409 69.9764C195.063 69.9764 188.68 72.5668 184.322 75.897V37.2907ZM184.322 84.103V138.925C184.322 155.854 198.045 169.578 214.975 169.578C231.904 169.578 245.627 155.854 245.627 138.925V76.7103C239.522 80.2877 232.833 80.3633 226.433 79.4762C223.395 79.0551 220.282 78.3951 217.296 77.7617L217.296 77.7617C216.326 77.5561 215.37 77.3533 214.434 77.1624C210.521 76.3644 206.859 75.7492 203.409 75.7492C192.95 75.7492 186.782 80.4765 184.322 84.103Z" fill="#141E36"/>
</svg>
