<svg width="428" height="292" viewBox="0 0 428 292" fill="none" xmlns="http://www.w3.org/2000/svg">
<text fill="#C2B59B" xml:space="preserve" style="white-space: pre" font-family="Barlow" font-size="34.637" font-weight="500" letter-spacing="0em"><tspan x="162.669" y="257.271">kry&#x161;t&#xe1;l</tspan></text>
<path fill-rule="evenodd" clip-rule="evenodd" d="M215.891 2.75239L213.93 0.9375L211.97 2.75239L173.869 38.0195L172.943 38.8763V40.1377V151.281V152.549L173.878 153.407L211.979 188.371L213.93 190.162L215.882 188.371L253.983 153.407L254.918 152.549V151.281V40.1377V38.8763L253.992 38.0195L215.891 2.75239ZM178.716 79.6861V41.3991L213.93 8.80379L249.145 41.3991V71.165C243.024 77.2855 235.924 77.8644 227.829 76.6404C224.624 76.1559 221.41 75.4124 218.075 74.6414L218.075 74.6413C216.932 74.3769 215.774 74.1092 214.598 73.8476C210.096 72.846 205.4 71.9552 200.792 71.9552C190.958 71.9552 183.59 75.41 178.716 79.6861ZM178.716 88.5006V150.012L213.93 182.327L249.145 150.012V78.6302C242.164 83.328 234.429 83.4768 226.966 82.3483C223.52 81.8273 219.992 81.0111 216.601 80.2265L216.6 80.2263C215.498 79.9713 214.41 79.7197 213.345 79.4827C208.897 78.4932 204.725 77.7281 200.792 77.7281C188.728 77.7281 181.553 83.7642 178.716 88.5006Z" fill="#141E36"/>
</svg>
