<svg width="429" height="281" viewBox="0 0 429 281" fill="none" xmlns="http://www.w3.org/2000/svg">
<text fill="#C2B59B" xml:space="preserve" style="white-space: pre" font-family="Barlow" font-size="34.637" font-weight="500" letter-spacing="0em"><tspan x="184.044" y="246.542">&#x17e;el&#xe9;</tspan></text>
<path fill-rule="evenodd" clip-rule="evenodd" d="M209.31 89.4687C205.412 88.6523 201.729 88.0216 198.199 88.0216C186.915 88.0216 181.337 93.16 179.099 97.0064L174.109 94.1026C177.391 88.4639 184.878 82.2488 198.199 82.2488C202.358 82.2488 206.529 82.9879 210.494 83.8186C211.575 84.0451 212.634 84.2766 213.677 84.5045C216.549 85.1324 219.296 85.7328 222.041 86.127C229.349 87.1766 235.663 86.6067 241.244 81.0127L245.331 85.09C237.9 92.5381 229.358 93.0101 221.22 91.8412C218.25 91.4146 215.202 90.748 212.267 90.1064C211.266 89.8874 210.277 89.6714 209.31 89.4687Z" fill="#141E36"/>
<path d="M252.666 37.424L249.78 37.4054L249.78 37.4108L252.666 37.424ZM187.034 28.8722L186.67 31.7356L189.195 32.0563L189.829 29.5916L187.034 28.8722ZM187.025 28.8711L187.389 26.0077L185.023 25.7071L184.282 27.9742L187.025 28.8711ZM176.606 92.4286L179.493 92.4675L176.606 92.4286ZM187.025 153.902L189.484 152.389L189.484 152.389L187.025 153.902ZM194.001 163.087L196.192 161.209L196.127 161.133L196.057 161.061L194.001 163.087ZM248.246 124.797L245.646 126.051L245.692 126.146L245.744 126.236L248.246 124.797ZM247.623 123.527L245.035 124.805L245.035 124.805L247.623 123.527ZM242.247 92.4286L245.126 92.6418L245.126 92.6418L242.247 92.4286ZM248.043 62.7763L245.255 62.0265L245.255 62.0265L248.043 62.7763ZM255.552 37.4425C255.553 37.3638 255.553 37.2852 255.553 37.2066H249.78C249.78 37.273 249.78 37.3393 249.78 37.4054L255.552 37.4425ZM255.553 37.2066C255.553 17.1984 239.333 0.978575 219.325 0.978575V6.75141C236.145 6.75141 249.78 20.3867 249.78 37.2066H255.553ZM219.325 0.978575C202.44 0.978575 188.259 12.5275 184.238 28.1528L189.829 29.5916C193.21 16.4549 205.138 6.75141 219.325 6.75141V0.978575ZM186.661 31.7345L186.67 31.7356L187.397 26.0088L187.389 26.0077L186.661 31.7345ZM179.493 92.4675C179.782 71.0537 186.73 39.0638 189.769 29.768L184.282 27.9742C181.1 37.7061 174.019 70.2802 173.72 92.3896L179.493 92.4675ZM189.484 152.389C184.582 144.425 181.986 134.409 180.674 123.793C179.365 113.197 179.361 102.233 179.493 92.4675L173.72 92.3896C173.588 102.172 173.583 113.48 174.945 124.501C176.304 135.502 179.049 146.448 184.567 155.415L189.484 152.389ZM196.057 161.061C193.955 158.929 191.759 156.087 189.484 152.389L184.567 155.415C187.011 159.386 189.466 162.598 191.945 165.114L196.057 161.061ZM191.809 164.966C198.449 172.712 208.315 177.627 219.325 177.627V171.854C210.07 171.854 201.782 167.73 196.192 161.209L191.809 164.966ZM219.325 177.627C239.333 177.627 255.553 161.407 255.553 141.399H249.78C249.78 158.219 236.145 171.854 219.325 171.854V177.627ZM255.553 141.399C255.553 134.836 253.805 128.673 250.748 123.358L245.744 126.236C248.311 130.699 249.78 135.873 249.78 141.399H255.553ZM245.035 124.805C245.252 125.244 245.454 125.654 245.646 126.051L250.846 123.543C250.64 123.117 250.425 122.682 250.211 122.248L245.035 124.805ZM239.369 92.2153C238.699 101.255 239.362 107.93 240.601 113.137C241.842 118.351 243.638 121.976 245.035 124.805L250.211 122.248C248.841 119.475 247.298 116.34 246.217 111.8C245.135 107.253 244.493 101.181 245.126 92.6418L239.369 92.2153ZM245.255 62.0265C242.874 70.8786 240.22 80.7172 239.369 92.2153L245.126 92.6418C245.932 81.7579 248.44 72.4091 250.83 63.5261L245.255 62.0265ZM249.78 37.4108C249.744 45.2752 247.667 53.0629 245.255 62.0265L250.83 63.5262C253.2 54.7139 255.513 46.1848 255.552 37.4371L249.78 37.4108Z" fill="#141E36"/>
</svg>
