<svg width="441" height="239" viewBox="0 0 441 239" fill="none" xmlns="http://www.w3.org/2000/svg">
<text fill="#C2B59B" xml:space="preserve" style="white-space: pre" font-family="Barlow" font-size="34.637" font-weight="500" letter-spacing="0em"><tspan x="93.957" y="201.821">kvapky pod jazyk</tspan></text>
<path fill-rule="evenodd" clip-rule="evenodd" d="M278.058 49.889C283.208 55.5726 288.013 60.5269 291.136 63.0533L293.041 64.594L291.83 66.7238C290.809 68.5216 289.664 70.739 288.386 73.2163L288.386 73.2174C285.044 79.6946 280.785 87.9486 275.397 95.1273C267.863 105.167 257.494 114.046 243.013 114.046H242.92H242.827H242.735H242.643H242.551H242.46H242.369H242.278H242.188H242.098H242.009H241.92H241.831H241.743H241.655H241.568H241.48H241.394H241.307H241.221H241.135H241.05H240.965H240.88H240.796H240.712H240.629H240.546H240.463H240.38H240.298H240.216H240.135H240.054H239.973H239.893H239.813H239.733H239.654H239.575H239.496H239.418H239.34H239.262H239.185H239.108H239.031H238.955H238.879H238.803H238.728H238.653H238.578H238.504H238.43H238.356H238.283H238.21H238.137H238.065H237.993H237.921H237.849H237.778H237.707H237.637H237.567H237.497H237.427H237.358H237.289H237.22H237.152H237.084H237.016H236.948H236.881H236.814H236.748H236.681H236.615H236.55H236.484H236.419H236.354H236.29H236.225H236.162H236.098H236.034H235.971H235.908H235.846H235.784H235.722H235.66H235.598H235.537H235.476H235.416H235.355H235.295H235.235H235.176H235.116H235.057H234.999H234.94H234.882H234.824H234.766H234.709H234.651H234.594H234.538H234.481H234.425H234.369H234.313H234.258H234.203H234.148H234.093H234.038H233.984H233.93H233.876H233.823H233.77H233.717H233.664H233.611H233.559H233.507H233.455H233.403H233.352H233.3H233.249H233.199H233.148H233.098H233.048H232.998H232.948H232.899H232.85H232.801H232.752H232.703H232.655H232.607H232.559H232.511H232.463H232.416H232.369H232.322H232.275H232.229H232.182H232.136H232.09H232.045H231.999H231.954H231.909H231.864H231.819H231.774H231.73H231.686H231.642H231.598H231.554H231.511H231.467H231.424H231.381H231.339H231.296H231.254H231.211H231.169H231.127H231.086H231.044H231.003H230.962H230.921H230.88H230.839H230.798H230.758H230.718H230.678H230.638H230.598H230.558H230.519H230.479H230.44H230.401H230.362H230.324H230.285H230.247H230.208H230.17H230.132H230.094H230.057H230.019H229.982H229.944H229.907H229.87H229.833H229.797H229.76H229.723H229.687H229.651H229.615H229.579H229.543H229.507H229.471H229.436H229.4H229.365H229.33H229.295H229.26H229.225H229.19H229.156H229.121H229.087H229.053H229.018H228.984H228.95H228.916H228.883H228.849H228.815H228.782H228.749H228.715H228.682H228.649H228.616H228.583H228.55H228.517H228.485H228.452H228.42H228.387H228.355H228.323H228.291H228.258H228.226H228.195H228.163H228.131H228.099H228.068H228.036H228.004H227.973H227.942H227.91H227.879H227.848H227.817H227.786H227.755H227.724H227.693H227.662H227.631H227.601H227.57H227.539H227.509H227.478H227.448H227.417H227.387H227.357H227.326H227.296H227.266H227.236H227.206H227.175H227.145H227.115H227.085H227.055H227.026H226.996H226.966H226.936H226.906H226.876H226.847H226.817H226.787H226.757H226.728H226.698H226.668H226.639H226.609H226.58H226.55H226.52H226.491H226.461H226.432H226.402H226.373H226.343H226.314H226.284H226.254H226.225H226.195H226.166H226.136H226.107H226.077H226.048H226.018H225.989H225.959H225.929H225.9H225.87H225.84H225.811H225.781H225.751H225.722H225.692H225.662H225.632H225.603H225.573H225.543H225.513H225.483H225.453H225.423H225.393H225.363H225.333H225.303H225.272H225.242H225.212H225.182H225.151H225.121H225.091H225.06H225.03H224.999H224.968H224.938H224.907H224.876H224.845H224.814H224.783H224.752H224.721H224.69H224.659H224.628H224.596H224.565H224.534H224.502H224.471H224.439H224.407H224.375H224.343H224.312H224.279H224.247H224.215H224.183H224.151H224.118H224.086H224.053H224.02H223.988H223.955H223.922H223.889H223.856H223.822H223.789H223.756H223.722H223.689H223.655H223.621H223.587H223.553H223.519H223.485H223.451H223.416H223.382H223.347H223.312H223.277H223.243H223.207H223.172H223.137H223.101H223.066H223.03H222.994H222.959H222.923H222.886H222.85H222.814H222.777H222.74H222.704H222.667H222.63H222.592H222.555H222.518H222.48H222.442H222.404H222.366H222.328H222.29H222.252H222.213H222.174H222.135H222.096H222.057H222.018H221.978H221.939H221.899H221.859H221.819H221.778H221.738H221.697H221.657H221.616H221.575H221.533H221.492H221.45H221.409H221.367H221.325H221.282H221.24H221.197H221.154H221.111H221.068H221.025H220.981H220.938H220.894H220.85H220.806H220.761H220.717H220.672H220.627H220.582H220.536H220.491H220.445H220.399H220.353H220.306H220.26H220.213H220.166H220.119H220.071H220.024H219.976H219.928H219.88H219.831H219.783H219.734H219.685H219.636H219.587H219.538H219.49H219.441H219.393H219.345H219.298H219.25H219.202H219.155H219.108H219.061H219.014H218.968H218.921H218.875H218.829H218.783H218.737H218.692H218.646H218.601H218.556H218.511H218.466H218.422H218.377H218.333H218.289H218.245H218.201H218.157H218.114H218.07H218.027H217.984H217.941H217.898H217.855H217.813H217.771H217.728H217.686H217.644H217.603H217.561H217.519H217.478H217.437H217.396H217.355H217.314H217.273H217.233H217.192H217.152H217.112H217.072H217.032H216.992H216.952H216.913H216.873H216.834H216.795H216.756H216.717H216.678H216.639H216.6H216.562H216.524H216.485H216.447H216.409H216.371H216.333H216.296H216.258H216.22H216.183H216.146H216.109H216.071H216.034H215.998H215.961H215.924H215.887H215.851H215.815H215.778H215.742H215.706H215.67H215.634H215.598H215.562H215.527H215.491H215.455H215.42H215.385H215.349H215.314H215.279H215.244H215.209H215.174H215.139H215.105H215.07H215.035H215.001H214.967H214.932H214.898H214.864H214.83H214.795H214.761H214.727H214.694H214.66H214.626H214.592H214.559H214.525H214.491H214.458H214.425H214.391H214.358H214.325H214.291H214.258H214.225H214.192H214.159H214.126H214.093H214.06H214.028H213.995H213.962H213.929H213.897H213.864H213.831H213.799H213.766H213.734H213.701H213.669H213.637H213.604H213.572H213.54H213.507H213.475H213.443H213.411H213.379H213.346H213.314H213.282H213.25H213.218H213.186H213.154H213.122H213.09H213.058H213.026H212.994H212.962H212.93H212.898H212.867H212.835H212.803H212.771H212.739H212.707H212.675H212.643H212.612H212.58H212.548H212.516H212.484H212.452H212.42H212.388H212.356H212.325H212.293H212.261H212.229H212.197H212.165H212.133H212.101H212.069H212.037H212.005H211.973H211.941H211.909H211.876H211.844H211.812H211.78H211.748H211.715H211.683H211.651H211.618H211.586H211.554H211.521H211.489H211.456H211.424H211.391H211.359H211.326H211.293H211.261H211.228H211.195H211.162H211.129H211.096H211.063H211.03H210.997H210.964H210.931H210.898H210.864H210.831H210.797H210.764H210.731H210.697H210.663H210.63H210.596H210.562H210.528H210.494H210.46H210.426H210.392H210.358H210.324H210.289H210.255H210.22H210.186H210.151H210.117H210.082H210.047H210.012H209.977H209.942H209.907H209.872H209.836H209.801H209.765H209.73H209.694H209.658H209.623H209.587H209.551H209.515H209.478H209.442H209.406H209.369H209.333H209.296H209.259H209.222H209.185H209.148H209.111H209.074H209.037H208.999H208.962H208.924H208.886H208.848H208.81H208.772H208.734H208.695H208.657H208.618H208.58H208.541H208.502H208.463H208.424H208.385H208.345H208.306H208.266H208.226H208.186H208.146H208.106H208.066H208.026H207.985H207.944H207.904H207.863H207.822H207.78H207.739H207.698H207.656H207.614H207.572H207.53H207.488H207.446H207.403H207.361H207.318H207.275H207.232H207.189H207.146H207.102H207.059H207.015H206.971H206.927H206.882H206.838H206.794H206.749H206.704H206.659H206.614H206.568H206.523H206.477H206.431H206.385H206.339H206.293H206.246H206.199H206.153H206.106H206.058H206.011H205.963H205.916H205.868H205.82H205.771H205.723H205.674H205.625H205.576H205.527H205.478H205.428H205.379H205.329H205.279H205.228H205.178H205.127H205.076H205.025H204.974H204.922H204.871H204.819H204.767H204.715H204.662H204.609H204.557H204.504H204.45H204.397H204.343H204.289H204.235H204.181H204.126H204.072H204.017H203.961H203.906H203.851H203.795H203.739H203.682H203.626H203.569H203.512H203.455H203.398H203.34H203.283H203.225H203.166H203.108H203.049H202.99H202.931H202.872H202.812H202.752H202.692H202.632H202.571H202.51H202.449H202.388H202.327H202.265H202.203H202.141H202.078H202.015H201.952H201.889H201.826H201.762H201.698H201.634H201.569H201.504H201.439H201.374H201.309H201.243H201.177H201.111H201.044H200.977H200.91H200.843H200.775H200.707H200.639H200.571H200.502H200.433H200.364H200.295H200.225H200.155H200.084H200.014H199.943H199.872H199.801H199.729H199.657H199.585H199.512H199.439H199.366H199.293H199.219H199.145H199.071H198.996H198.922H198.847H198.771H198.695H198.619H198.543H198.467H198.39H198.313H198.235H198.157H198.079H198.001H197.922H197.843H197.764H197.684H197.605H197.524H197.444H197.363H197.282H197.2H197.119H197.037H196.954H196.872H196.789H196.705C191.11 114.046 185.472 111.696 180.244 108.281C174.984 104.846 169.9 100.175 165.352 95.1577C156.307 85.181 148.985 73.3885 146.486 66.2516L145.842 64.4131L147.306 63.1281C155.856 55.624 160.186 49.557 164.12 43.8297C164.34 43.5083 164.56 43.1873 164.78 42.8666C168.515 37.4131 172.182 32.0605 178.938 26.2934C187.003 19.4092 196.445 17.3312 204.187 16.9254C208.067 16.7221 211.566 16.9356 214.313 17.1933C215.419 17.2969 216.417 17.4094 217.252 17.5034C217.45 17.5257 217.638 17.5469 217.817 17.5668C218.821 17.6783 219.389 17.7298 219.685 17.7298C220.051 17.7298 220.724 17.6871 221.809 17.6134L221.946 17.6041C222.955 17.5355 224.206 17.4504 225.619 17.3817C228.574 17.2381 232.287 17.1633 236.192 17.4568C239.336 17.6931 242.762 18.1785 246.071 19.1377L242.64 24.2111C240.451 23.709 238.124 23.3911 235.759 23.2133C232.183 22.9445 228.729 23.0102 225.899 23.1478C224.543 23.2137 223.341 23.2954 222.329 23.3642L222.2 23.373L222.173 23.3748C221.198 23.4411 220.292 23.5026 219.685 23.5026C219.002 23.5026 218.084 23.4047 217.18 23.3043C216.988 23.283 216.79 23.2607 216.586 23.2378L216.586 23.2378C215.754 23.1441 214.82 23.039 213.774 22.9409C211.182 22.6977 207.986 22.5071 204.49 22.6903C197.479 23.0578 189.443 24.9161 182.686 30.6841C176.523 35.945 173.235 40.7423 169.491 46.2037L169.491 46.2043C169.288 46.5001 169.084 46.7978 168.878 47.0977C166.279 50.8824 163.435 54.9195 159.335 59.4299C161.038 58.936 162.806 58.4184 164.61 57.8837C171.159 55.9439 178.336 52.3254 184.757 48.7178C187.699 47.0649 190.443 45.437 192.874 43.9954L193.494 43.6274C196.034 42.1215 198.28 40.7976 199.931 39.968C205.864 36.9855 210.068 36.2627 213.439 36.4392C215.081 36.5253 216.43 36.8223 217.471 37.0554C218.592 37.3065 219.161 37.4275 219.685 37.4275C220.288 37.4275 221.07 37.3464 222.2 37.2292L222.2 37.2291C222.415 37.2068 222.643 37.1833 222.884 37.1587C224.301 37.0142 226.017 36.8592 227.897 36.857C229.888 36.8547 232.09 37.0231 234.386 37.5618C233.983 38.4307 233.625 39.3039 233.353 40.1429C233.169 40.7094 232.869 41.7291 232.64 43.087C231.023 42.7463 229.429 42.6281 227.903 42.6299C226.323 42.6317 224.84 42.762 223.469 42.9017C223.274 42.9217 223.075 42.9425 222.875 42.9635L222.875 42.9635C221.768 43.0796 220.617 43.2003 219.685 43.2003C218.478 43.2003 217.311 42.937 216.402 42.7321L216.209 42.6887C215.197 42.4619 214.256 42.2628 213.137 42.2041C210.984 42.0914 207.777 42.485 202.524 45.1258C201.092 45.8453 199.041 47.0501 196.438 48.5931L195.813 48.9638L195.813 48.9639C193.389 50.4019 190.589 52.063 187.585 53.7507C182.443 56.6392 176.59 59.673 170.808 61.8698L205.842 50.3424C209.82 48.787 214.362 47.8142 219.685 47.8142C224.702 47.8142 228.908 48.7451 232.584 50.252C233.098 53.5898 234.47 57.399 237.492 61.1944C240.856 65.4182 244.558 67.6908 247.732 68.9137C249.727 72.5857 251.606 75.9982 253.588 78.6991C255.347 81.0963 256.943 82.5833 258.423 83.2779C264.281 81.5357 269.82 77.5652 274.822 73.3661C276.441 72.0066 277.912 70.7049 279.321 69.4588L279.321 69.4586C280.223 68.6606 281.099 67.8853 281.972 67.1321L282.112 67.0116C281.794 66.9342 281.471 66.8541 281.146 66.7717C278.419 66.0806 275.282 65.1693 271.97 64.1297L271.072 65.8027C270.139 67.5405 268.087 68.3509 266.219 67.72L265.741 67.5586C268.156 66.2043 270.712 64.1901 273.097 61.1944C273.697 60.441 274.232 59.6871 274.708 58.9364C276.597 59.5202 278.403 60.0526 280.082 60.5165C278.81 59.2037 277.486 57.8005 276.138 56.342C277.202 54.083 277.783 51.8957 278.058 49.889ZM248.934 82.1144C249.683 83.1348 250.49 84.1313 251.364 85.0458C242.204 87.1897 232.356 88.9351 222.571 89.2307V71.9757H216.799V89.2308C206.754 88.928 196.576 87.1013 187.109 84.8831C187.843 83.9946 188.521 83.0438 189.15 82.0952C190.854 79.525 192.543 76.4106 194.216 73.3263C194.519 72.7677 194.822 72.2101 195.124 71.6568C197.138 67.9659 199.163 64.4006 201.355 61.4901C203.573 58.5452 205.729 56.5904 207.878 55.7448C211.215 54.431 215.066 53.587 219.685 53.587C224.088 53.587 227.638 54.4226 230.689 55.7164C232.577 56.5171 234.522 58.4074 236.604 61.3655C238.611 64.2164 240.492 67.6797 242.466 71.3136L242.466 71.3137L242.598 71.5565C244.575 75.1954 246.658 79.0122 248.934 82.1144ZM184.338 78.9049C182.799 81.2267 181.536 82.589 180.531 83.2401C174.621 81.4758 169.022 77.5218 163.959 73.3492C162.328 72.0056 160.851 70.7247 159.435 69.4966L159.434 69.4963L159.434 69.4962C158.492 68.6791 157.577 67.8855 156.661 67.1124C156.392 66.8847 156.122 66.6585 155.852 66.4352C158.51 65.6805 161.44 64.8354 164.505 63.9338L166.979 66.6738C168.051 67.861 169.722 68.3042 171.241 67.8043L195.436 59.8436C193.484 62.6994 191.705 65.8707 190.056 68.8913C189.737 69.4772 189.422 70.0563 189.113 70.6268L189.113 70.6269C187.432 73.7226 185.888 76.5676 184.338 78.9049ZM160.288 77.8043C159.452 77.1157 158.622 76.414 157.813 75.7218C160.949 80.6937 165.021 86.1977 169.629 91.2804C173.966 96.0648 178.68 100.365 183.401 103.448C188.154 106.553 192.68 108.273 196.705 108.273H196.789H196.872H196.954H197.037H197.119H197.2H197.282H197.363H197.444H197.524H197.605H197.684H197.764H197.843H197.922H198.001H198.079H198.157H198.235H198.313H198.39H198.467H198.543H198.619H198.695H198.771H198.847H198.922H198.996H199.071H199.145H199.219H199.293H199.366H199.439H199.512H199.585H199.657H199.729H199.801H199.872H199.943H200.014H200.084H200.155H200.225H200.295H200.364H200.433H200.502H200.571H200.639H200.707H200.775H200.843H200.91H200.977H201.044H201.111H201.177H201.243H201.309H201.374H201.439H201.504H201.569H201.634H201.698H201.762H201.826H201.889H201.952H202.015H202.078H202.141H202.203H202.265H202.327H202.388H202.449H202.51H202.571H202.632H202.692H202.752H202.812H202.872H202.931H202.99H203.049H203.108H203.166H203.225H203.283H203.34H203.398H203.455H203.512H203.569H203.626H203.682H203.739H203.795H203.851H203.906H203.961H204.017H204.072H204.126H204.181H204.235H204.289H204.343H204.397H204.45H204.504H204.557H204.609H204.662H204.715H204.767H204.819H204.871H204.922H204.974H205.025H205.076H205.127H205.178H205.228H205.279H205.329H205.379H205.428H205.478H205.527H205.576H205.625H205.674H205.723H205.771H205.82H205.868H205.916H205.963H206.011H206.058H206.106H206.153H206.199H206.246H206.293H206.339H206.385H206.431H206.477H206.523H206.568H206.614H206.659H206.704H206.749H206.794H206.838H206.882H206.927H206.971H207.015H207.059H207.102H207.146H207.189H207.232H207.275H207.318H207.361H207.403H207.446H207.488H207.53H207.572H207.614H207.656H207.698H207.739H207.78H207.822H207.863H207.904H207.944H207.985H208.026H208.066H208.106H208.146H208.186H208.226H208.266H208.306H208.345H208.385H208.424H208.463H208.502H208.541H208.58H208.618H208.657H208.695H208.734H208.772H208.81H208.848H208.886H208.924H208.962H208.999H209.037H209.074H209.111H209.148H209.185H209.222H209.259H209.296H209.333H209.369H209.406H209.442H209.478H209.515H209.551H209.587H209.623H209.658H209.694H209.73H209.765H209.801H209.836H209.872H209.907H209.942H209.977H210.012H210.047H210.082H210.117H210.151H210.186H210.22H210.255H210.289H210.324H210.358H210.392H210.426H210.46H210.494H210.528H210.562H210.596H210.63H210.663H210.697H210.731H210.764H210.797H210.831H210.864H210.898H210.931H210.964H210.997H211.03H211.063H211.096H211.129H211.162H211.195H211.228H211.261H211.293H211.326H211.359H211.391H211.424H211.456H211.489H211.521H211.554H211.586H211.618H211.651H211.683H211.715H211.748H211.78H211.812H211.844H211.876H211.909H211.941H211.973H212.005H212.037H212.069H212.101H212.133H212.165H212.197H212.229H212.261H212.293H212.325H212.356H212.388H212.42H212.452H212.484H212.516H212.548H212.58H212.612H212.643H212.675H212.707H212.739H212.771H212.803H212.835H212.867H212.898H212.93H212.962H212.994H213.026H213.058H213.09H213.122H213.154H213.186H213.218H213.25H213.282H213.314H213.346H213.379H213.411H213.443H213.475H213.507H213.54H213.572H213.604H213.637H213.669H213.701H213.734H213.766H213.799H213.831H213.864H213.897H213.929H213.962H213.995H214.028H214.06H214.093H214.126H214.159H214.192H214.225H214.258H214.291H214.325H214.358H214.391H214.425H214.458H214.491H214.525H214.559H214.592H214.626H214.66H214.694H214.727H214.761H214.795H214.83H214.864H214.898H214.932H214.967H215.001H215.035H215.07H215.105H215.139H215.174H215.209H215.244H215.279H215.314H215.349H215.385H215.42H215.455H215.491H215.527H215.562H215.598H215.634H215.67H215.706H215.742H215.778H215.815H215.851H215.887H215.924H215.961H215.998H216.034H216.071H216.109H216.146H216.183H216.22H216.258H216.296H216.333H216.371H216.409H216.447H216.485H216.524H216.562H216.6H216.639H216.678H216.717H216.756H216.795H216.834H216.873H216.913H216.952H216.992H217.032H217.072H217.112H217.152H217.192H217.233H217.273H217.314H217.355H217.396H217.437H217.478H217.519H217.561H217.603H217.644H217.686H217.728H217.771H217.813H217.855H217.898H217.941H217.984H218.027H218.07H218.114H218.157H218.201H218.245H218.289H218.333H218.377H218.422H218.466H218.511H218.556H218.601H218.646H218.692H218.737H218.783H218.829H218.875H218.921H218.968H219.014H219.061H219.108H219.155H219.202H219.25H219.298H219.345H219.393H219.441H219.49H219.538H219.587H219.636H219.685H219.734H219.783H219.831H219.88H219.928H219.976H220.024H220.071H220.119H220.166H220.213H220.26H220.306H220.353H220.399H220.445H220.491H220.536H220.582H220.627H220.672H220.717H220.761H220.806H220.85H220.894H220.938H220.981H221.025H221.068H221.111H221.154H221.197H221.24H221.282H221.325H221.367H221.409H221.45H221.492H221.533H221.575H221.616H221.657H221.697H221.738H221.778H221.819H221.859H221.899H221.939H221.978H222.018H222.057H222.096H222.135H222.174H222.213H222.252H222.29H222.328H222.366H222.404H222.442H222.48H222.518H222.555H222.592H222.63H222.667H222.704H222.74H222.777H222.814H222.85H222.886H222.923H222.959H222.994H223.03H223.066H223.101H223.137H223.172H223.207H223.243H223.277H223.312H223.347H223.382H223.416H223.451H223.485H223.519H223.553H223.587H223.621H223.655H223.689H223.722H223.756H223.789H223.822H223.856H223.889H223.922H223.955H223.988H224.02H224.053H224.086H224.118H224.151H224.183H224.215H224.247H224.279H224.312H224.343H224.375H224.407H224.439H224.471H224.502H224.534H224.565H224.596H224.628H224.659H224.69H224.721H224.752H224.783H224.814H224.845H224.876H224.907H224.938H224.968H224.999H225.03H225.06H225.091H225.121H225.151H225.182H225.212H225.242H225.272H225.303H225.333H225.363H225.393H225.423H225.453H225.483H225.513H225.543H225.573H225.603H225.632H225.662H225.692H225.722H225.751H225.781H225.811H225.84H225.87H225.9H225.929H225.959H225.989H226.018H226.048H226.077H226.107H226.136H226.166H226.195H226.225H226.254H226.284H226.314H226.343H226.373H226.402H226.432H226.461H226.491H226.52H226.55H226.58H226.609H226.639H226.668H226.698H226.728H226.757H226.787H226.817H226.847H226.876H226.906H226.936H226.966H226.996H227.026H227.055H227.085H227.115H227.145H227.175H227.206H227.236H227.266H227.296H227.326H227.357H227.387H227.417H227.448H227.478H227.509H227.539H227.57H227.601H227.631H227.662H227.693H227.724H227.755H227.786H227.817H227.848H227.879H227.91H227.942H227.973H228.004H228.036H228.068H228.099H228.131H228.163H228.195H228.226H228.258H228.291H228.323H228.355H228.387H228.42H228.452H228.485H228.517H228.55H228.583H228.616H228.649H228.682H228.715H228.749H228.782H228.815H228.849H228.883H228.916H228.95H228.984H229.018H229.053H229.087H229.121H229.156H229.19H229.225H229.26H229.295H229.33H229.365H229.4H229.436H229.471H229.507H229.543H229.579H229.615H229.651H229.687H229.723H229.76H229.797H229.833H229.87H229.907H229.944H229.982H230.019H230.057H230.094H230.132H230.17H230.208H230.247H230.285H230.324H230.362H230.401H230.44H230.479H230.519H230.558H230.598H230.638H230.678H230.718H230.758H230.798H230.839H230.88H230.921H230.962H231.003H231.044H231.086H231.127H231.169H231.211H231.254H231.296H231.339H231.381H231.424H231.467H231.511H231.554H231.598H231.642H231.686H231.73H231.774H231.819H231.864H231.909H231.954H231.999H232.045H232.09H232.136H232.182H232.229H232.275H232.322H232.369H232.416H232.463H232.511H232.559H232.607H232.655H232.703H232.752H232.801H232.85H232.899H232.948H232.998H233.048H233.098H233.148H233.199H233.249H233.3H233.352H233.403H233.455H233.507H233.559H233.611H233.664H233.717H233.77H233.823H233.876H233.93H233.984H234.038H234.093H234.148H234.203H234.258H234.313H234.369H234.425H234.481H234.538H234.594H234.651H234.709H234.766H234.824H234.882H234.94H234.999H235.057H235.116H235.176H235.235H235.295H235.355H235.416H235.476H235.537H235.598H235.66H235.722H235.784H235.846H235.908H235.971H236.034H236.098H236.162H236.225H236.29H236.354H236.419H236.484H236.55H236.615H236.681H236.748H236.814H236.881H236.948H237.016H237.084H237.152H237.22H237.289H237.358H237.427H237.497H237.567H237.637H237.707H237.778H237.849H237.921H237.993H238.065H238.137H238.21H238.283H238.356H238.43H238.504H238.578H238.653H238.728H238.803H238.879H238.955H239.031H239.108H239.185H239.262H239.34H239.418H239.496H239.575H239.654H239.733H239.813H239.893H239.973H240.054H240.135H240.216H240.298H240.38H240.463H240.546H240.629H240.712H240.796H240.88H240.965H241.05H241.135H241.221H241.307H241.394H241.48H241.568H241.655H241.743H241.831H241.92H242.009H242.098H242.188H242.278H242.369H242.46H242.551H242.643H242.735H242.827H242.92H243.013C254.82 108.273 263.69 101.109 270.78 91.6622C274.513 86.6881 277.581 81.3382 280.248 76.325C279.684 76.8131 279.11 77.3031 278.533 77.7875C273.186 82.2768 266.512 87.1695 259.004 89.1068C247.173 92.1596 233.395 95.0477 219.685 95.0477C205.977 95.0477 192.081 92.1604 180.099 89.1091C172.509 87.1762 165.734 82.2924 160.288 77.8043Z" fill="#141E36"/>
<path d="M272.683 31.2118L255.305 5.48218L237.907 31.2118C236.665 33.2673 234.388 36.9531 233.353 40.1428C232.622 42.3982 230.042 51.8381 237.493 61.1943C244.774 70.3379 253.643 70.3379 255.298 70.3379C256.954 70.3379 265.816 70.3379 273.097 61.1943C280.548 51.8381 277.968 42.3982 277.237 40.1428C276.202 36.9531 273.925 33.2673 272.683 31.2118Z" stroke="#141E36" stroke-width="5.77283"/>
</svg>
