<svg width="428" height="263" viewBox="0 0 428 263" fill="none" xmlns="http://www.w3.org/2000/svg">
<text fill="#C2B59B" xml:space="preserve" style="white-space: pre" font-family="Barlow" font-size="34.637" font-weight="500" letter-spacing="0em"><tspan x="121.677" y="227.86">rozpra&#x161;ova&#x10d; </tspan></text>
<path d="M243.205 19.8201V40.6023" stroke="#141E36" stroke-width="5.77283"/>
<path d="M252.441 29.0565C253.835 26.4807 257.577 23.261 263.788 23.261C271.551 23.261 280.509 29.2127 287.078 22.1292" stroke="#141E36" stroke-width="5.77283"/>
<path d="M254.75 38.2931C256.143 35.7173 259.886 32.4975 266.097 32.4975C273.86 32.4975 282.818 38.4492 289.387 31.3657" stroke="#141E36" stroke-width="5.77283"/>
<path d="M178.549 78.5438L178.549 112.703C178.549 128.694 182.012 160.677 216.649 160.677C251.286 160.677 254.75 128.694 254.75 112.703L254.75 78.5438C254.75 65.8442 248.537 54.5959 238.984 47.6727L238.984 25.9911C238.984 13.6559 228.985 3.65627 216.649 3.65627C204.314 3.65627 194.314 13.6559 194.314 25.9911L194.314 47.6727C184.762 54.5959 178.549 65.8443 178.549 78.5438Z" stroke="#141E36" stroke-width="5.77283"/>
<path d="M239.741 47.5298C232.044 50.2238 212.262 53.9954 194.713 47.5298" stroke="#141E36" stroke-width="5.77283"/>
<path d="M239.741 38.2932C232.044 40.9872 212.262 44.7588 194.713 38.2932" stroke="#141E36" stroke-width="5.77283"/>
</svg>
