<svg width="428" height="290" viewBox="0 0 428 290" fill="none" xmlns="http://www.w3.org/2000/svg">
<text fill="#C2B59B" xml:space="preserve" style="white-space: pre" font-family="Barlow" font-size="34.637" font-weight="500" letter-spacing="0em"><tspan x="160.673" y="255.024">kvapka</tspan></text>
<path d="M233.146 150.513L216.248 125.495L199.33 150.513C198.123 152.512 195.909 156.096 194.903 159.197C194.191 161.39 191.683 170.569 198.928 179.667C206.008 188.558 214.632 188.558 216.241 188.558C217.851 188.558 226.468 188.558 233.549 179.667C240.793 170.569 238.285 161.39 237.573 159.197C236.567 156.096 234.354 152.512 233.146 150.513Z" stroke="#141E36" stroke-width="5.77283"/>
<path d="M254.34 0.801514V34.9607C254.34 47.6603 248.127 58.9087 238.574 65.8319V87.5134C238.574 99.8486 228.575 109.848 216.239 109.848C203.904 109.848 193.904 99.8486 193.904 87.5134V65.8319C184.352 58.9087 178.139 47.6603 178.139 34.9607V0.801514" stroke="#141E36" stroke-width="5.77283"/>
<path d="M180.766 48.0988C183.831 42.8435 192.064 36.2744 205.728 36.2744C222.808 36.2744 239.887 50.7264 254.339 36.2744" stroke="#141E36" stroke-width="5.77283"/>
</svg>
