<svg width="429" height="278" viewBox="0 0 429 278" fill="none" xmlns="http://www.w3.org/2000/svg">
<text fill="#C2B59B" xml:space="preserve" style="white-space: pre" font-family="Barlow" font-size="34.637" font-weight="500" letter-spacing="0em"><tspan x="172.154" y="243.096">pasta</tspan></text>
<path fill-rule="evenodd" clip-rule="evenodd" d="M256.086 177.438L253.2 177.438L176.998 177.438L174.112 177.438L174.112 174.552L174.112 151.46L174.112 108.741L174.112 74.5821C174.112 60.9937 180.727 48.9501 190.9 41.4974L203.076 29.6966L205.295 3.06627L205.516 0.419558L208.171 0.419558L224.335 0.419557L226.991 0.419557L227.212 3.06627L229.444 29.8524L239.413 41.5823C249.521 49.0414 256.086 61.0451 256.086 74.5821L256.086 108.741L256.086 151.46L256.086 174.552L256.086 177.438ZM232.836 42.7581L225.729 34.3952C220.752 35.98 213.873 36.9442 206.543 34.3758L198.012 42.6441C213.287 47.9151 226.136 45.4792 232.836 42.7581ZM193.192 47.0098C185.078 53.4654 179.885 63.4171 179.885 74.5821L179.885 108.741L179.885 151.46L179.885 171.665L250.313 171.665L250.313 151.46L250.313 108.741L250.313 74.5821C250.313 63.4912 245.188 53.5974 237.167 47.1387C229.403 50.9733 212.711 54.7848 193.192 47.0098ZM208.92 29.0851C214.381 30.862 219.572 30.2346 223.582 29.0181L221.679 6.1924L210.827 6.1924L208.92 29.0851Z" fill="#141E36"/>
<path d="M176.42 80.4939C179.485 74.7609 187.719 67.5945 201.382 67.5945C218.462 67.5945 238.169 80.8414 252.621 65.0754" stroke="#141E36" stroke-width="5.77283"/>
<path d="M176.42 172.859C179.485 167.126 187.719 159.96 201.382 159.96C218.462 159.96 238.169 173.207 252.621 157.441" stroke="#141E36" stroke-width="5.77283"/>
</svg>
