<svg width="310" height="225" viewBox="0 0 310 225" fill="none" xmlns="http://www.w3.org/2000/svg">
<text fill="#C2B59B" xml:space="preserve" style="white-space: pre" font-family="Barlow" font-size="34.637" font-weight="500" letter-spacing="0em"><tspan x="116.495" y="189.923">kr&#xe9;m</tspan></text>
<path fill-rule="evenodd" clip-rule="evenodd" d="M94.0668 62.4324V29.482C94.1529 29.3673 94.2494 29.2399 94.3561 29.1004C94.9072 28.3806 95.7297 27.344 96.7965 26.1035C98.9341 23.6175 102.031 20.3385 105.868 17.1541C113.624 10.7176 123.958 5.03098 135.307 6.31234L135.469 6.33056H135.631C146.57 6.33056 151.682 10.0242 158.457 14.9202C160.335 16.277 162.34 17.7261 164.633 19.2145C174.922 25.8946 189.486 31.9619 221.04 31.0177V62.4326C221.04 96.657 192.675 124.507 157.553 124.507C122.432 124.507 94.0668 96.6571 94.0668 62.4326C94.0668 62.4325 94.0668 62.4325 94.0668 62.4324ZM88.2939 62.4324V28.5399V27.6342L88.8114 26.8909L91.1804 28.5399C88.8114 26.8909 88.812 26.89 88.8126 26.8891L88.8144 26.8866L88.8191 26.8797L88.8341 26.8585L88.8852 26.7862C88.9287 26.7251 88.991 26.6383 89.0716 26.5276C89.2329 26.3063 89.4676 25.9893 89.7725 25.5911C90.3819 24.795 91.2732 23.6724 92.4194 22.3396C94.7075 19.6787 98.0331 16.1543 102.181 12.7117C110.364 5.92123 122.194 -0.912637 135.792 0.557988C148.635 0.59859 155.36 5.48995 162.351 10.5747L162.351 10.5748C164.109 11.8532 165.884 13.1438 167.776 14.3726C177.183 20.48 191.094 26.5331 223.804 25.1409L226.813 25.0128V28.0247V62.4326C226.813 99.9617 195.746 130.28 157.553 130.28C119.361 130.28 88.294 99.9617 88.2939 62.4326C88.2939 62.4325 88.2939 62.4325 88.2939 62.4324Z" fill="#141E36"/>
<path d="M90.6035 28.8447C90.6035 28.8447 113.16 28.8447 158.273 28.8447C203.386 28.8447 224.533 28.8447 224.533 28.8447" stroke="#141E36" stroke-width="5.77283"/>
<path d="M90.6035 54.2451C90.6035 54.2451 113.16 54.2451 158.273 54.2451C203.386 54.2451 224.533 54.2451 224.533 54.2451" stroke="#141E36" stroke-width="5.77283"/>
</svg>
