<svg width="428" height="207" viewBox="0 0 428 207" fill="none" xmlns="http://www.w3.org/2000/svg">
<text fill="#C2B59B" xml:space="preserve" style="white-space: pre" font-family="Barlow" font-size="34.637" font-weight="500" letter-spacing="0em"><tspan x="182.383" y="172.377">plyn</tspan></text>
<path d="M214.303 109.069C250.96 109.069 280.676 79.985 280.676 44.1081V3.59277H215.715H147.93V44.1081C147.93 79.985 177.646 109.069 214.303 109.069Z" stroke="#141E36" stroke-width="5.77283"/>
<path d="M145.62 24.3751C145.62 24.3751 168.215 24.127 213.405 24.127C258.596 24.127 279.778 24.3751 279.778 24.3751" stroke="#141E36" stroke-width="5.77283"/>
<path d="M193.434 59.0119C194.827 56.436 198.569 53.2163 204.78 53.2163C212.544 53.2163 221.501 59.168 228.071 52.0845" stroke="#141E36" stroke-width="5.77283"/>
<path d="M198.052 70.5578C199.445 67.9819 203.188 64.7622 209.398 64.7622C217.162 64.7622 226.12 70.7139 232.689 63.6304" stroke="#141E36" stroke-width="5.77283"/>
</svg>
