<svg width="257" height="272" viewBox="0 0 257 272" fill="none" xmlns="http://www.w3.org/2000/svg">
<text fill="#C2B59B" xml:space="preserve" style="white-space: pre" font-family="Barlow" font-size="34.637" font-weight="500" letter-spacing="0em"><tspan x="76.8904" y="209.214">vysok&#xe1;&#10;</tspan><tspan x="16.2926" y="251.214">vstrebate&#x13e;nos&#x165;</tspan></text>
<circle cx="129.865" cy="70.4477" r="66.9648" stroke="#141E36" stroke-width="5.77283"/>
<path d="M85.9921 91.4592C89.4853 86.478 98.2378 80.6184 111.854 81.758C128.874 83.1825 145.332 94.383 163.107 83.7303" stroke="#141E36" stroke-width="5.77283"/>
<path d="M99.8466 63.7498C103.34 58.7685 112.092 52.909 125.708 54.0485C142.728 55.473 159.186 66.6735 176.961 56.0208" stroke="#141E36" stroke-width="5.77283"/>
<path fill-rule="evenodd" clip-rule="evenodd" d="M129.12 32.9648L131.511 36.5042L141.681 51.5617C139.541 51.0424 137.353 50.4147 135.126 49.6725C134.414 49.4352 133.704 49.2169 132.996 49.0168L129.118 43.2747L126.184 47.6135C123.881 47.3109 121.637 47.1865 119.487 47.2112L126.728 36.5029L129.12 32.9648ZM109.008 62.8423C107.758 64.9256 105.958 68.0674 105.028 70.9316C104.789 71.6684 104.379 73.0792 104.121 74.963C105.989 74.8799 107.937 74.9088 109.941 75.0702C110.131 73.9824 110.372 73.1674 110.52 72.7131C111.37 70.0929 113.265 66.9574 114.536 64.855L114.634 64.6941L117.128 61.0053C114.096 61.2962 111.387 61.9527 109.008 62.8423ZM143.929 65.2639C145.188 67.3501 146.902 70.2579 147.699 72.7131C148.052 73.8009 148.943 76.9565 148.373 80.9744C150.487 80.7527 152.464 80.3912 154.282 79.9026C154.551 75.5684 153.608 72.2198 153.19 70.9316C152.756 69.5926 152.131 68.1928 151.461 66.869C148.942 66.461 146.434 65.8915 143.929 65.2639ZM139.588 94.8641C142.323 95.2066 145.072 95.3276 147.842 95.0951C140.102 104.02 130.966 104.069 129.113 104.069C127.193 104.069 117.446 104.016 109.541 94.0902C108.063 92.2343 106.946 90.3733 106.112 88.5549C107.418 88.5314 108.776 88.5744 110.187 88.6924C111.116 88.7702 112.043 88.8771 112.969 89.0079C113.3 89.5023 113.662 89.9982 114.057 90.494C120.272 98.2988 127.715 98.2969 129.086 98.2965L129.113 98.2965L129.139 98.2965C130.181 98.2968 134.733 98.298 139.588 94.8641Z" fill="#141E36"/>
</svg>
