<svg width="428" height="254" viewBox="0 0 428 254" fill="none" xmlns="http://www.w3.org/2000/svg">
<text fill="#C2B59B" xml:space="preserve" style="white-space: pre" font-family="Barlow" font-size="34.637" font-weight="500" letter-spacing="0em"><tspan x="95.4115" y="218.655">zdravie (mozog)</tspan></text>
<path fill-rule="evenodd" clip-rule="evenodd" d="M169.551 19.2904C172.352 8.64836 182.036 0.800781 193.558 0.800781C207.268 0.800781 218.381 11.9145 218.381 25.624V45.2974C216.383 45.4029 214.433 45.6899 212.547 46.1421L212.55 45.2429L212.608 25.7473L212.608 25.7389C212.608 25.7007 212.608 25.6623 212.608 25.624C212.608 15.1027 204.079 6.57361 193.558 6.57361C184.049 6.57361 176.163 13.5429 174.738 22.6517L174.331 25.2538L171.702 25.086C171.294 25.0599 170.882 25.0467 170.467 25.0467C159.946 25.0467 151.416 33.5758 151.416 44.097C151.416 49.1837 153.406 53.7996 156.656 57.2186L158.493 59.151L156.712 61.135C150.622 67.9199 146.798 77.4095 146.798 87.9705C146.798 106.027 157.922 120.793 172.35 124.553L174.496 125.112L174.508 127.33C174.564 137.803 183.072 146.276 193.558 146.276C204.079 146.276 212.608 137.747 212.608 127.226C212.608 126.157 212.521 125.111 212.353 124.094L212.313 123.856L212.314 123.615L212.358 108.971C214.303 109.45 216.316 109.753 218.381 109.862V127.226C218.381 140.935 207.268 152.049 193.558 152.049C180.628 152.049 170.007 142.163 168.841 129.537C152.59 124.234 141.025 107.462 141.025 87.9705C141.025 76.9734 144.69 66.8892 150.779 59.2178C147.56 55.0318 145.644 49.786 145.644 44.097C145.644 30.6942 156.266 19.7723 169.551 19.2904Z" fill="#141E36"/>
<path fill-rule="evenodd" clip-rule="evenodd" d="M271.253 19.2904C268.452 8.64836 258.768 0.800781 247.246 0.800781C233.536 0.800781 222.422 11.9145 222.422 25.624V45.2568C222.614 45.2534 222.807 45.2518 223 45.2518C224.789 45.2518 226.545 45.3972 228.255 45.6768L228.254 45.2429L228.196 25.7473L228.196 25.739L228.195 25.6663L228.195 25.624C228.195 15.1027 236.724 6.57361 247.246 6.57361C256.754 6.57361 264.641 13.5429 266.066 22.6517L266.473 25.2538L269.101 25.086C269.51 25.0599 269.921 25.0467 270.337 25.0467C280.858 25.0467 289.387 33.5758 289.387 44.097C289.387 49.1837 287.397 53.7996 284.148 57.2186L282.311 59.151L284.092 61.135C290.181 67.9199 294.005 77.4095 294.005 87.9705C294.005 106.027 282.882 120.793 268.454 124.553L266.308 125.112L266.296 127.33C266.239 137.803 257.732 146.276 247.246 146.276C236.724 146.276 228.195 137.747 228.195 127.226C228.195 126.157 228.283 125.111 228.451 124.094L228.49 123.856L228.49 123.615L228.447 109.45C226.676 109.751 224.856 109.907 223 109.907C222.807 109.907 222.614 109.906 222.422 109.902V127.226C222.422 140.935 233.536 152.049 247.246 152.049C260.176 152.049 270.797 142.163 271.963 129.537C288.214 124.234 299.778 107.462 299.778 87.9705C299.778 76.9734 296.114 66.8892 290.025 59.2178C293.243 55.0318 295.16 49.786 295.16 44.097C295.16 30.6942 284.538 19.7723 271.253 19.2904Z" fill="#141E36"/>
<circle cx="220.114" cy="77.5798" r="32.3279" stroke="#141E36" stroke-width="5.77283"/>
<path d="M208.568 77.5797L217.805 86.8163L233.969 70.6523" stroke="#141E36" stroke-width="5.77283"/>
<path d="M190.351 28.3292C191.325 33.8474 189.298 45.1672 173.394 46.3009" stroke="#141E36" stroke-width="5.77283"/>
<path d="M181.007 45.6909C181.747 54.0526 179.059 71.4081 162.385 73.9367" stroke="#141E36" stroke-width="5.77283"/>
<path d="M250.024 28.3292C249.05 33.8474 251.077 45.1672 266.981 46.3009" stroke="#141E36" stroke-width="5.77283"/>
<path d="M259.368 45.6909C258.628 54.0526 261.316 71.4081 277.99 73.9367" stroke="#141E36" stroke-width="5.77283"/>
<path d="M171.622 128.38C171.622 122.793 173.875 114.203 182.013 111.087" stroke="#141E36" stroke-width="5.77283"/>
<path d="M269.761 128.38C268.825 121.831 265.616 113.766 257.061 110.942" stroke="#141E36" stroke-width="5.77283"/>
</svg>
