<svg width="428" height="258" viewBox="0 0 428 258" fill="none" xmlns="http://www.w3.org/2000/svg">
<circle cx="212.776" cy="76.239" r="32.3279" stroke="#141E36" stroke-width="5.77283"/>
<mask id="path-2-inside-1" fill="white">
<path fill-rule="evenodd" clip-rule="evenodd" d="M212.777 50.2607C206.082 50.2607 200.654 55.6884 200.654 62.3837V69.9392C198.269 71.0338 196.613 73.4427 196.613 76.2385V90.0933C196.613 93.9192 199.715 97.0207 203.541 97.0207H222.014C225.84 97.0207 228.941 93.9192 228.941 90.0933V76.2385C228.941 72.4126 225.84 69.3111 222.014 69.3111H206.427V62.3837C206.427 58.8766 209.27 56.0336 212.777 56.0336C216.284 56.0336 219.127 58.8766 219.127 62.3837H224.9C224.9 55.6884 219.473 50.2607 212.777 50.2607Z"/>
</mask>
<path d="M200.654 69.9392L203.062 75.1858L206.427 73.6415V69.9392H200.654ZM206.427 69.3111H200.654V75.0839H206.427V69.3111ZM219.127 62.3837H213.354V68.1565H219.127V62.3837ZM224.9 62.3837V68.1565H230.673V62.3837H224.9ZM206.427 62.3837C206.427 58.8766 209.27 56.0336 212.777 56.0336V44.4879C202.894 44.4879 194.881 52.5001 194.881 62.3837H206.427ZM206.427 69.9392V62.3837H194.881V69.9392H206.427ZM202.386 76.2385C202.386 75.7813 202.652 75.3742 203.062 75.1858L198.246 64.6926C193.887 66.6933 190.84 71.1041 190.84 76.2385H202.386ZM202.386 90.0933V76.2385H190.84V90.0933H202.386ZM203.541 91.2478C202.903 91.2478 202.386 90.7309 202.386 90.0933H190.84C190.84 97.1074 196.527 102.793 203.541 102.793V91.2478ZM222.014 91.2478H203.541V102.793H222.014V91.2478ZM223.168 90.0933C223.168 90.7309 222.651 91.2478 222.014 91.2478V102.793C229.028 102.793 234.714 97.1074 234.714 90.0933H223.168ZM223.168 76.2385V90.0933H234.714V76.2385H223.168ZM222.014 75.0839C222.651 75.0839 223.168 75.6008 223.168 76.2385H234.714C234.714 69.2243 229.028 63.5383 222.014 63.5383V75.0839ZM206.427 75.0839H222.014V63.5383H206.427V75.0839ZM200.654 62.3837V69.3111H212.2V62.3837H200.654ZM212.777 50.2607C206.082 50.2607 200.654 55.6884 200.654 62.3837H212.2C212.2 62.0649 212.458 61.8064 212.777 61.8064V50.2607ZM224.9 62.3837C224.9 55.6884 219.473 50.2607 212.777 50.2607V61.8064C213.096 61.8064 213.354 62.0649 213.354 62.3837H224.9ZM224.9 56.6109H219.127V68.1565H224.9V56.6109ZM212.777 56.0336C216.284 56.0336 219.127 58.8766 219.127 62.3837H230.673C230.673 52.5001 222.661 44.4879 212.777 44.4879V56.0336Z" fill="#141E36" mask="url(#path-2-inside-1)"/>
<rect x="199.499" y="72.1979" width="26.555" height="21.9368" rx="4.04098" stroke="#141E36" stroke-width="5.77283"/>
<text fill="#C2B59B" xml:space="preserve" style="white-space: pre" font-family="Barlow" font-size="34.637" font-weight="500" letter-spacing="0em"><tspan x="117.613" y="215.005">nesp&#xf4;sobuje&#x2028;</tspan><tspan x="147.549" y="257.005">z&#xe1;vislos&#x165;</tspan></text>
<path fill-rule="evenodd" clip-rule="evenodd" d="M162.791 18.5272C165.592 7.88517 175.276 0.0375977 186.798 0.0375977C200.508 0.0375977 211.622 11.1513 211.622 24.8608V44.534C209.623 44.6395 207.673 44.9264 205.787 45.3787L205.79 44.4797L205.848 24.9841L205.848 24.9758L205.849 24.9032L205.849 24.8608C205.849 14.3396 197.32 5.81043 186.798 5.81043C177.29 5.81043 169.403 12.7797 167.978 21.8885L167.571 24.4907L164.942 24.3228C164.534 24.2967 164.122 24.2835 163.707 24.2835C153.186 24.2835 144.657 32.8126 144.657 43.3338C144.657 48.4206 146.647 53.0364 149.896 56.4554L151.733 58.3878L149.952 60.3719C143.863 67.1567 140.038 76.6463 140.038 87.2073C140.038 105.264 151.162 120.03 165.59 123.79L167.736 124.349L167.748 126.567C167.804 137.04 176.312 145.513 186.798 145.513C197.32 145.513 205.849 136.984 205.849 126.463C205.849 125.394 205.761 124.348 205.593 123.331L205.554 123.093L205.554 122.852L205.598 108.208C207.543 108.687 209.557 108.989 211.622 109.098V126.463C211.622 140.172 200.508 151.286 186.798 151.286C173.868 151.286 163.247 141.4 162.081 128.774C145.83 123.471 134.266 106.699 134.266 87.2073C134.266 76.2102 137.93 66.126 144.019 58.4546C140.8 54.2687 138.884 49.0228 138.884 43.3338C138.884 29.931 149.506 19.0091 162.791 18.5272Z" fill="#141E36"/>
<path fill-rule="evenodd" clip-rule="evenodd" d="M264.493 18.5272C261.692 7.88517 252.008 0.0375977 240.486 0.0375977C226.776 0.0375977 215.663 11.1513 215.663 24.8608V44.4934C215.855 44.4901 216.047 44.4884 216.24 44.4884C218.03 44.4884 219.785 44.6338 221.496 44.9134L221.494 44.4797L221.436 24.9841L221.436 24.9758L221.436 24.9032L221.435 24.8608C221.435 14.3396 229.965 5.81043 240.486 5.81043C249.994 5.81043 257.881 12.7797 259.306 21.8885L259.713 24.4907L262.342 24.3228C262.75 24.2967 263.162 24.2835 263.577 24.2835C274.098 24.2835 282.627 32.8126 282.627 43.3338C282.627 48.4206 280.638 53.0364 277.388 56.4554L275.551 58.3878L277.332 60.3719C283.421 67.1567 287.246 76.6463 287.246 87.2073C287.246 105.264 276.122 120.03 261.694 123.79L259.548 124.349L259.536 126.567C259.48 137.04 250.972 145.513 240.486 145.513C229.965 145.513 221.435 136.984 221.435 126.463C221.435 125.394 221.523 124.348 221.691 123.331L221.731 123.093L221.73 122.852L221.687 108.687C219.916 108.988 218.097 109.144 216.24 109.144C216.047 109.144 215.855 109.142 215.663 109.139V126.463C215.663 140.172 226.776 151.286 240.486 151.286C253.416 151.286 264.037 141.4 265.203 128.774C281.454 123.471 293.019 106.699 293.019 87.2073C293.019 76.2102 289.354 66.126 283.265 58.4546C286.484 54.2687 288.4 49.0228 288.4 43.3338C288.4 29.931 277.778 19.0091 264.493 18.5272Z" fill="#141E36"/>
<circle cx="213.353" cy="76.8166" r="32.3279" stroke="#141E36" stroke-width="5.77283"/>
<path d="M183.589 27.5665C184.564 33.0847 182.537 44.4045 166.632 45.5382" stroke="#141E36" stroke-width="5.77283"/>
<path d="M174.245 44.9282C174.985 53.2899 172.298 70.6454 155.623 73.174" stroke="#141E36" stroke-width="5.77283"/>
<path d="M243.262 27.5665C242.288 33.0847 244.315 44.4045 260.219 45.5382" stroke="#141E36" stroke-width="5.77283"/>
<path d="M252.607 44.9282C251.866 53.2899 254.554 70.6454 271.229 73.174" stroke="#141E36" stroke-width="5.77283"/>
<path d="M164.86 127.617C164.86 122.031 167.113 113.441 175.251 110.325" stroke="#141E36" stroke-width="5.77283"/>
<path d="M262.999 127.617C262.063 121.068 258.854 113.003 250.299 110.179" stroke="#141E36" stroke-width="5.77283"/>
</svg>
