<svg width="429" height="253" viewBox="0 0 429 253" fill="none" xmlns="http://www.w3.org/2000/svg">
<text fill="#C2B59B" xml:space="preserve" style="white-space: pre" font-family="Barlow" font-size="34.637" font-weight="500" letter-spacing="0em"><tspan x="148.139" y="218.077">z&#xe1;vislos&#x165;</tspan></text>
<circle cx="220.294" cy="77.0022" r="32.3279" stroke="#141E36" stroke-width="5.77283"/>
<mask id="path-3-inside-1" fill="white">
<path fill-rule="evenodd" clip-rule="evenodd" d="M220.294 53.9106C213.917 53.9106 208.748 59.0798 208.748 65.4563V70.4688C206.058 71.4197 204.13 73.9857 204.13 77.002V90.8568C204.13 94.6827 207.231 97.7842 211.057 97.7842H229.53C233.356 97.7842 236.458 94.6827 236.458 90.8568V77.002C236.458 73.9857 234.53 71.4197 231.839 70.4688V65.4563C231.839 59.0798 226.67 53.9106 220.294 53.9106Z"/>
</mask>
<path d="M208.748 70.4688L210.672 75.9116L214.521 74.5512V70.4688H208.748ZM231.839 70.4688H226.067V74.5512L229.916 75.9116L231.839 70.4688ZM214.521 65.4563C214.521 62.2681 217.106 59.6835 220.294 59.6835V48.1378C210.729 48.1378 202.975 55.8916 202.975 65.4563H214.521ZM214.521 70.4688V65.4563H202.975V70.4688H214.521ZM209.903 77.002C209.903 76.5083 210.216 76.0729 210.672 75.9116L206.824 65.0259C201.899 66.7666 198.357 71.4632 198.357 77.002H209.903ZM209.903 90.8568V77.002H198.357V90.8568H209.903ZM211.057 92.0113C210.42 92.0113 209.903 91.4944 209.903 90.8568H198.357C198.357 97.8709 204.043 103.557 211.057 103.557V92.0113ZM229.53 92.0113H211.057V103.557H229.53V92.0113ZM230.685 90.8568C230.685 91.4944 230.168 92.0113 229.53 92.0113V103.557C236.544 103.557 242.231 97.8709 242.231 90.8568H230.685ZM230.685 77.002V90.8568H242.231V77.002H230.685ZM229.916 75.9116C230.372 76.0729 230.685 76.5083 230.685 77.002H242.231C242.231 71.4632 238.688 66.7666 233.763 65.0259L229.916 75.9116ZM226.067 65.4563V70.4688H237.612V65.4563H226.067ZM220.294 59.6835C223.482 59.6835 226.067 62.2681 226.067 65.4563H237.612C237.612 55.8916 229.859 48.1378 220.294 48.1378V59.6835Z" fill="#141E36" mask="url(#path-3-inside-1)"/>
<rect x="207.016" y="72.9611" width="26.555" height="21.9368" rx="4.04098" stroke="#141E36" stroke-width="5.77283"/>
<path d="M190.53 27.7525C191.504 33.2707 189.477 44.5905 173.573 45.7242" stroke="#141E36" stroke-width="5.77283"/>
<path d="M181.185 45.1142C181.926 53.4759 179.238 70.8314 162.563 73.36" stroke="#141E36" stroke-width="5.77283"/>
<path d="M250.203 27.7525C249.228 33.2707 251.255 44.5905 267.16 45.7242" stroke="#141E36" stroke-width="5.77283"/>
<path d="M259.547 45.1142C258.807 53.4759 261.494 70.8314 278.169 73.36" stroke="#141E36" stroke-width="5.77283"/>
<path d="M171.801 127.803C171.801 122.217 174.053 113.627 182.192 110.511" stroke="#141E36" stroke-width="5.77283"/>
<path d="M269.939 127.803C269.004 121.254 265.794 113.19 257.239 110.365" stroke="#141E36" stroke-width="5.77283"/>
<path fill-rule="evenodd" clip-rule="evenodd" d="M170.308 19.2904C173.109 8.64836 182.793 0.800781 194.315 0.800781C208.024 0.800781 219.138 11.9145 219.138 25.624V45.2974C217.14 45.4029 215.19 45.6898 213.304 46.1421L213.306 45.2429L213.365 25.7473L213.365 25.739C213.365 25.7007 213.365 25.6623 213.365 25.624C213.365 15.1027 204.836 6.57361 194.315 6.57361C184.806 6.57361 176.92 13.5429 175.495 22.6517L175.088 25.2538L172.459 25.086C172.051 25.0599 171.639 25.0467 171.224 25.0467C160.702 25.0467 152.173 33.5758 152.173 44.097C152.173 49.1837 154.163 53.7996 157.413 57.2186L159.249 59.151L157.469 61.135C151.379 67.9199 147.555 77.4095 147.555 87.9705C147.555 106.027 158.679 120.793 173.106 124.553L175.253 125.112L175.265 127.33C175.321 137.803 183.829 146.276 194.315 146.276C204.836 146.276 213.365 137.747 213.365 127.226C213.365 126.157 213.278 125.111 213.11 124.094L213.07 123.856L213.071 123.615L213.115 108.971C215.059 109.45 217.073 109.753 219.138 109.862V127.226C219.138 140.935 208.024 152.049 194.315 152.049C181.385 152.049 170.764 142.163 169.598 129.537C153.346 124.234 141.782 107.462 141.782 87.9705C141.782 76.9734 145.447 66.8892 151.536 59.2178C148.317 55.0318 146.4 49.786 146.4 44.097C146.4 30.6942 157.023 19.7723 170.308 19.2904Z" fill="#141E36"/>
<path fill-rule="evenodd" clip-rule="evenodd" d="M272.01 19.2904C269.209 8.64836 259.524 0.800781 248.002 0.800781C234.293 0.800781 223.179 11.9145 223.179 25.624V45.2568C223.371 45.2534 223.563 45.2518 223.756 45.2518C225.546 45.2518 227.302 45.3972 229.012 45.6769L229.011 45.2429L228.952 25.7473L228.952 25.7389C228.952 25.7007 228.952 25.6623 228.952 25.624C228.952 15.1027 237.481 6.57361 248.002 6.57361C257.511 6.57361 265.397 13.5429 266.823 22.6517L267.23 25.2538L269.858 25.086C270.266 25.0599 270.678 25.0467 271.094 25.0467C281.615 25.0467 290.144 33.5758 290.144 44.097C290.144 49.1837 288.154 53.7996 284.905 57.2186L283.068 59.151L284.849 61.135C290.938 67.9199 294.762 77.4095 294.762 87.9705C294.762 106.027 283.639 120.793 269.211 124.553L267.064 125.112L267.052 127.33C266.996 137.803 258.489 146.276 248.002 146.276C237.481 146.276 228.952 137.747 228.952 127.226C228.952 126.157 229.04 125.111 229.208 124.094L229.247 123.856L229.246 123.615L229.204 109.45C227.433 109.751 225.613 109.907 223.756 109.907C223.563 109.907 223.371 109.906 223.179 109.902V127.226C223.179 140.935 234.293 152.049 248.002 152.049C260.932 152.049 271.553 142.163 272.719 129.537C288.971 124.234 300.535 107.462 300.535 87.9705C300.535 76.9734 296.87 66.8892 290.781 59.2178C294 55.0318 295.917 49.786 295.917 44.097C295.917 30.6942 285.295 19.7723 272.01 19.2904Z" fill="#141E36"/>
<circle cx="220.87" cy="77.5793" r="32.3279" stroke="#141E36" stroke-width="5.77283"/>
</svg>
