<svg width="440" height="303" viewBox="0 0 440 303" fill="none" xmlns="http://www.w3.org/2000/svg">
<text fill="#C2B59B" xml:space="preserve" style="white-space: pre" font-family="Barlow" font-size="34.637" font-weight="500" letter-spacing="0em"><tspan x="165.107" y="266.052">extrakt</tspan></text>
<mask id="path-2-inside-1" fill="white">
<path fill-rule="evenodd" clip-rule="evenodd" d="M229.496 146.597C228.492 145.111 229.494 143.083 231.277 142.883C266.842 138.894 294.489 108.719 294.489 72.0881C294.489 32.7417 262.592 0.845093 223.246 0.845093C183.9 0.845093 152.003 32.7417 152.003 72.0881C152.003 108.246 178.939 138.112 213.84 142.716C215.598 142.947 216.564 144.953 215.57 146.422L205.079 161.937C205.019 162.036 204.956 162.14 204.891 162.248C203.619 164.349 201.511 167.833 200.526 170.867C199.795 173.123 197.215 182.563 204.666 191.919C211.947 201.063 220.816 201.063 222.471 201.063C224.127 201.063 232.989 201.063 240.27 191.919C247.721 182.563 245.141 173.123 244.41 170.867C243.425 167.833 241.317 164.349 240.044 162.248C239.979 162.14 239.917 162.036 239.856 161.937L229.496 146.597Z"/>
</mask>
<path d="M205.079 161.937L200.297 158.703L200.215 158.825L200.138 158.951L205.079 161.937ZM204.891 162.248L199.953 159.258L199.953 159.258L204.891 162.248ZM200.526 170.867L195.035 169.086L195.035 169.086L200.526 170.867ZM204.666 191.919L209.181 188.323L209.181 188.323L204.666 191.919ZM240.27 191.919L235.754 188.323L235.754 188.323L240.27 191.919ZM244.41 170.867L238.918 172.649L238.918 172.649L244.41 170.867ZM240.044 162.248L235.106 165.237L235.106 165.237L240.044 162.248ZM239.856 161.937L244.797 158.951L244.722 158.826L244.64 158.705L239.856 161.937ZM213.84 142.716L213.085 148.439L213.84 142.716ZM215.57 146.422L220.353 149.656L215.57 146.422ZM231.277 142.883L231.92 148.62L231.277 142.883ZM229.496 146.597L224.712 149.828L229.496 146.597ZM288.716 72.0881C288.716 105.747 263.311 133.481 230.633 137.147L231.92 148.62C270.374 144.307 300.262 111.692 300.262 72.0881H288.716ZM223.246 6.61792C259.404 6.61792 288.716 35.9299 288.716 72.0881H300.262C300.262 29.5534 265.781 -4.92774 223.246 -4.92774V6.61792ZM157.776 72.0881C157.776 35.9299 187.088 6.61792 223.246 6.61792V-4.92774C180.711 -4.92774 146.23 29.5534 146.23 72.0881H157.776ZM214.595 136.992C182.528 132.763 157.776 105.311 157.776 72.0881H146.23C146.23 111.18 175.351 143.462 213.085 148.439L214.595 136.992ZM210.788 143.188L200.297 158.703L209.862 165.17L220.353 149.656L210.788 143.188ZM200.138 158.951C200.079 159.049 200.018 159.151 199.953 159.258L209.83 165.237C209.895 165.13 209.959 165.024 210.021 164.922L200.138 158.951ZM199.953 159.258C198.767 161.218 196.265 165.294 195.035 169.086L206.017 172.649C206.756 170.372 208.472 167.481 209.83 165.237L199.953 159.258ZM195.035 169.086C194.092 171.994 190.879 183.874 200.15 195.515L209.181 188.323C203.551 181.252 205.497 174.252 206.017 172.649L195.035 169.086ZM200.15 195.515C209.08 206.729 220.196 206.835 222.471 206.835V195.29C221.435 195.29 214.814 195.396 209.181 188.323L200.15 195.515ZM222.471 206.835C224.748 206.835 235.857 206.728 244.786 195.515L235.754 188.323C230.121 195.397 223.506 195.29 222.471 195.29V206.835ZM244.786 195.515C254.057 183.874 250.844 171.994 249.901 169.086L238.918 172.649C239.439 174.252 241.385 181.252 235.754 188.323L244.786 195.515ZM249.901 169.086C248.67 165.294 246.169 161.218 244.983 159.258L235.106 165.237C236.464 167.481 238.18 170.372 238.918 172.649L249.901 169.086ZM244.983 159.259C244.918 159.151 244.856 159.049 244.797 158.951L234.915 164.922C234.977 165.024 235.041 165.13 235.106 165.237L244.983 159.259ZM244.64 158.705L234.28 143.366L224.712 149.828L235.072 165.168L244.64 158.705ZM213.085 148.439C210.859 148.145 209.227 145.497 210.788 143.188L220.353 149.656C223.9 144.409 220.336 137.75 214.595 136.992L213.085 148.439ZM230.633 137.147C224.82 137.799 221.123 144.515 224.712 149.828L234.28 143.366C235.86 145.706 234.169 148.368 231.92 148.62L230.633 137.147Z" fill="#141E36" mask="url(#path-2-inside-1)"/>
<path d="M287.367 97.8247C241.172 120.004 234.573 85.9958 205.977 85.9958C179.315 83.962 161.504 100.782 161.504 100.782" stroke="#141E36" stroke-width="5.77283"/>
</svg>
