<svg width="428" height="255" viewBox="0 0 428 255" fill="none" xmlns="http://www.w3.org/2000/svg">
<text fill="#C2B59B" xml:space="preserve" style="white-space: pre" font-family="Barlow" font-size="34.637" font-weight="500" letter-spacing="0em"><tspan x="148.585" y="219.995">depresia</tspan></text>
<circle cx="220.114" cy="77.1887" r="32.3279" stroke="#141E36" stroke-width="5.77283"/>
<path d="M208.568 88.7342C208.568 88.7342 213.187 85.2705 220.114 85.2705C227.041 85.2705 231.66 88.7342 231.66 88.7342" stroke="#141E36" stroke-width="5.77283"/>
<circle cx="209.722" cy="68.5296" r="3.4637" fill="#141E36"/>
<circle cx="230.505" cy="68.5296" r="3.4637" fill="#141E36"/>
<path fill-rule="evenodd" clip-rule="evenodd" d="M170.128 18.8993C172.929 8.25724 182.613 0.409668 194.135 0.409668C207.845 0.409668 218.958 11.5234 218.958 25.2328V44.906C216.96 45.0115 215.01 45.2985 213.124 45.7508L213.127 44.8518L213.185 25.3562L213.185 25.3478C213.186 25.3095 213.186 25.2712 213.186 25.2328C213.186 14.7116 204.657 6.1825 194.135 6.1825C184.627 6.1825 176.74 13.1518 175.315 22.2605L174.908 24.8627L172.279 24.6949C171.871 24.6688 171.459 24.6556 171.044 24.6556C160.523 24.6556 151.994 33.1847 151.994 43.7059C151.994 48.7926 153.983 53.4084 157.233 56.8275L159.07 58.7599L157.289 60.7439C151.2 67.5288 147.375 77.0183 147.375 87.5794C147.375 105.636 158.499 120.402 172.927 124.162L175.073 124.721L175.085 126.939C175.141 137.412 183.649 145.885 194.135 145.885C204.657 145.885 213.186 137.356 213.186 126.835C213.186 125.766 213.098 124.72 212.93 123.703L212.891 123.465L212.891 123.224L212.935 108.58C214.88 109.059 216.893 109.361 218.958 109.471V126.835C218.958 140.544 207.845 151.658 194.135 151.658C181.205 151.658 170.584 141.772 169.418 129.146C153.167 123.843 141.603 107.071 141.603 87.5794C141.603 76.5823 145.267 66.4981 151.356 58.8267C148.137 54.6407 146.221 49.3949 146.221 43.7059C146.221 30.3031 156.843 19.3812 170.128 18.8993Z" fill="#141E36"/>
<path fill-rule="evenodd" clip-rule="evenodd" d="M271.83 18.8993C269.029 8.25724 259.345 0.409668 247.823 0.409668C234.113 0.409668 223 11.5234 223 25.2328V44.8655C223.191 44.8621 223.384 44.8604 223.577 44.8604C225.366 44.8604 227.122 45.0058 228.833 45.2855L228.831 44.8518L228.773 25.3562L228.773 25.3478C228.772 25.3095 228.772 25.2712 228.772 25.2328C228.772 14.7116 237.301 6.1825 247.823 6.1825C257.331 6.1825 265.218 13.1518 266.643 22.2605L267.05 24.8627L269.679 24.6949C270.087 24.6688 270.499 24.6556 270.914 24.6556C281.435 24.6556 289.964 33.1847 289.964 43.7059C289.964 48.7926 287.975 53.4084 284.725 56.8275L282.888 58.7599L284.669 60.7439C290.758 67.5288 294.583 77.0183 294.583 87.5794C294.583 105.636 283.459 120.402 269.031 124.162L266.885 124.721L266.873 126.939C266.817 137.412 258.309 145.885 247.823 145.885C237.301 145.885 228.772 137.356 228.772 126.835C228.772 125.766 228.86 124.72 229.028 123.703L229.067 123.465L229.067 123.224L229.024 109.059C227.253 109.36 225.433 109.516 223.577 109.516C223.384 109.516 223.191 109.514 223 109.511V126.835C223 140.544 234.113 151.658 247.823 151.658C260.753 151.658 271.374 141.772 272.54 129.146C288.791 123.843 300.355 107.071 300.355 87.5794C300.355 76.5823 296.691 66.4981 290.602 58.8267C293.821 54.6407 295.737 49.3949 295.737 43.7059C295.737 30.3031 285.115 19.3812 271.83 18.8993Z" fill="#141E36"/>
<circle cx="220.69" cy="77.1882" r="32.3279" stroke="#141E36" stroke-width="5.77283"/>
<path d="M190.927 27.9385C191.902 33.4567 189.874 44.7766 173.97 45.9103" stroke="#141E36" stroke-width="5.77283"/>
<path d="M181.583 45.3003C182.323 53.6619 179.635 71.0175 162.961 73.546" stroke="#141E36" stroke-width="5.77283"/>
<path d="M250.6 27.9385C249.626 33.4567 251.653 44.7766 267.557 45.9103" stroke="#141E36" stroke-width="5.77283"/>
<path d="M259.944 45.3003C259.204 53.6619 261.892 71.0175 278.567 73.546" stroke="#141E36" stroke-width="5.77283"/>
<path d="M172.198 127.989C172.198 122.403 174.451 113.813 182.589 110.697" stroke="#141E36" stroke-width="5.77283"/>
<path d="M270.337 127.989C269.401 121.44 266.192 113.376 257.637 110.551" stroke="#141E36" stroke-width="5.77283"/>
</svg>
