<svg width="428" height="255" viewBox="0 0 428 255" fill="none" xmlns="http://www.w3.org/2000/svg">
<text fill="#C2B59B" xml:space="preserve" style="white-space: pre" font-family="Barlow" font-size="34.637" font-weight="500" letter-spacing="0em"><tspan x="160.504" y="219.995"> &#xfa;zkos&#x165;</tspan></text>
<circle cx="215.663" cy="77.1882" r="32.3279" stroke="#141E36" stroke-width="5.77283"/>
<rect x="199.499" y="81.8063" width="31.1733" height="10.3911" rx="5.19555" stroke="#141E36" stroke-width="5.77283"/>
<circle cx="204.694" cy="68.5291" r="3.4637" fill="#141E36"/>
<circle cx="225.476" cy="68.5291" r="3.4637" fill="#141E36"/>
<path fill-rule="evenodd" clip-rule="evenodd" d="M165.1 18.8993C167.901 8.25724 177.585 0.409668 189.107 0.409668C202.816 0.409668 213.93 11.5234 213.93 25.2328V44.906C211.932 45.0115 209.982 45.2985 208.096 45.7508L208.098 44.8518L208.157 25.3562L208.157 25.3478L208.157 25.2752L208.157 25.2328C208.157 14.7116 199.628 6.1825 189.107 6.1825C179.598 6.1825 171.712 13.1518 170.287 22.2605L169.88 24.8627L167.251 24.6949C166.843 24.6688 166.431 24.6556 166.016 24.6556C155.494 24.6556 146.965 33.1847 146.965 43.7059C146.965 48.7926 148.955 53.4084 152.205 56.8275L154.041 58.7599L152.261 60.7439C146.171 67.5288 142.347 77.0183 142.347 87.5794C142.347 105.636 153.471 120.402 167.898 124.162L170.045 124.721L170.057 126.939C170.113 137.412 178.621 145.885 189.107 145.885C199.628 145.885 208.157 137.356 208.157 126.835C208.157 125.766 208.07 124.72 207.902 123.703L207.862 123.465L207.863 123.224L207.907 108.58C209.851 109.059 211.865 109.361 213.93 109.47V126.835C213.93 140.544 202.816 151.658 189.107 151.658C176.177 151.658 165.556 141.772 164.39 129.146C148.138 123.843 136.574 107.071 136.574 87.5794C136.574 76.5823 140.239 66.4981 146.328 58.8267C143.109 54.6407 141.192 49.3949 141.192 43.7059C141.192 30.3031 151.815 19.3812 165.1 18.8993Z" fill="#141E36"/>
<path fill-rule="evenodd" clip-rule="evenodd" d="M266.802 18.8993C264.001 8.25724 254.316 0.409668 242.794 0.409668C229.085 0.409668 217.971 11.5234 217.971 25.2328V44.8655C218.163 44.8621 218.356 44.8604 218.548 44.8604C220.338 44.8604 222.094 45.0058 223.804 45.2855L223.803 44.8518L223.744 25.3562L223.744 25.3478C223.744 25.3095 223.744 25.2712 223.744 25.2328C223.744 14.7116 232.273 6.1825 242.794 6.1825C252.303 6.1825 260.189 13.1518 261.615 22.2605L262.022 24.8627L264.65 24.6949C265.058 24.6688 265.47 24.6556 265.886 24.6556C276.407 24.6556 284.936 33.1847 284.936 43.7059C284.936 48.7926 282.946 53.4084 279.697 56.8275L277.86 58.7599L279.641 60.7439C285.73 67.5288 289.554 77.0183 289.554 87.5794C289.554 105.636 278.431 120.402 264.003 124.162L261.856 124.721L261.844 126.939C261.788 137.412 253.281 145.885 242.794 145.885C232.273 145.885 223.744 137.356 223.744 126.835C223.744 125.766 223.832 124.72 224 123.703L224.039 123.465L224.038 123.224L223.996 109.059C222.225 109.36 220.405 109.516 218.548 109.516C218.356 109.516 218.163 109.514 217.971 109.511V126.835C217.971 140.544 229.085 151.658 242.794 151.658C255.724 151.658 266.345 141.772 267.511 129.146C283.763 123.843 295.327 107.071 295.327 87.5794C295.327 76.5823 291.662 66.4981 285.573 58.8267C288.792 54.6407 290.709 49.3949 290.709 43.7059C290.709 30.3031 280.087 19.3812 266.802 18.8993Z" fill="#141E36"/>
<circle cx="215.663" cy="77.1882" r="32.3279" stroke="#141E36" stroke-width="5.77283"/>
<path d="M185.899 27.9385C186.873 33.4567 184.846 44.7766 168.942 45.9103" stroke="#141E36" stroke-width="5.77283"/>
<path d="M176.555 45.3003C177.295 53.6619 174.607 71.0175 157.933 73.546" stroke="#141E36" stroke-width="5.77283"/>
<path d="M245.572 27.9385C244.597 33.4567 246.625 44.7766 262.529 45.9103" stroke="#141E36" stroke-width="5.77283"/>
<path d="M254.916 45.3003C254.176 53.6619 256.864 71.0175 273.538 73.546" stroke="#141E36" stroke-width="5.77283"/>
<path d="M167.17 127.989C167.17 122.403 169.423 113.813 177.561 110.697" stroke="#141E36" stroke-width="5.77283"/>
<path d="M265.309 127.989C264.373 121.44 261.163 113.376 252.608 110.551" stroke="#141E36" stroke-width="5.77283"/>
</svg>
