<svg width="429" height="255" viewBox="0 0 429 255" fill="none" xmlns="http://www.w3.org/2000/svg">
<circle cx="220.294" cy="77.1882" r="32.3279" stroke="#141E36" stroke-width="5.77283"/>
<path d="M231.84 85.2702C231.84 85.2702 227.222 88.7339 220.294 88.7339C213.367 88.7339 208.749 85.2702 208.749 85.2702" stroke="#141E36" stroke-width="5.77283"/>
<circle cx="209.903" cy="68.5291" r="3.4637" fill="#141E36"/>
<circle cx="230.685" cy="68.5291" r="3.4637" fill="#141E36"/>
<text fill="#C2B59B" xml:space="preserve" style="white-space: pre" font-family="Barlow" font-size="34.637" font-weight="500" letter-spacing="0em"><tspan x="111.996" y="219.995">antidepres&#xed;va</tspan></text>
<path fill-rule="evenodd" clip-rule="evenodd" d="M170.309 18.8993C173.11 8.25724 182.794 0.409668 194.316 0.409668C208.025 0.409668 219.139 11.5234 219.139 25.2328V44.906C217.141 45.0115 215.191 45.2985 213.305 45.7508L213.307 44.8518L213.366 25.3562L213.366 25.3478C213.366 25.3096 213.366 25.2712 213.366 25.2328C213.366 14.7116 204.837 6.1825 194.316 6.1825C184.807 6.1825 176.921 13.1518 175.496 22.2605L175.089 24.8627L172.46 24.6949C172.052 24.6688 171.64 24.6556 171.225 24.6556C160.703 24.6556 152.174 33.1847 152.174 43.7059C152.174 48.7926 154.164 53.4084 157.414 56.8275L159.25 58.7599L157.47 60.7439C151.38 67.5288 147.556 77.0183 147.556 87.5794C147.556 105.636 158.68 120.402 173.107 124.162L175.254 124.721L175.266 126.939C175.322 137.412 183.83 145.885 194.316 145.885C204.837 145.885 213.366 137.356 213.366 126.835C213.366 125.766 213.279 124.72 213.111 123.703L213.071 123.465L213.072 123.224L213.116 108.58C215.06 109.059 217.074 109.361 219.139 109.471V126.835C219.139 140.544 208.025 151.658 194.316 151.658C181.386 151.658 170.765 141.772 169.599 129.146C153.347 123.843 141.783 107.071 141.783 87.5794C141.783 76.5823 145.448 66.4981 151.537 58.8267C148.318 54.6407 146.401 49.3949 146.401 43.7059C146.401 30.3031 157.024 19.3812 170.309 18.8993Z" fill="#141E36"/>
<path fill-rule="evenodd" clip-rule="evenodd" d="M272.011 18.8993C269.21 8.25724 259.525 0.409668 248.003 0.409668C234.294 0.409668 223.18 11.5234 223.18 25.2328V44.8655C223.372 44.8621 223.564 44.8604 223.757 44.8604C225.547 44.8604 227.303 45.0059 229.013 45.2856L229.012 44.8518L228.953 25.3562L228.953 25.3478C228.953 25.3095 228.953 25.2712 228.953 25.2328C228.953 14.7116 237.482 6.1825 248.003 6.1825C257.512 6.1825 265.398 13.1518 266.824 22.2605L267.231 24.8627L269.859 24.6949C270.267 24.6688 270.679 24.6556 271.095 24.6556C281.616 24.6556 290.145 33.1847 290.145 43.7059C290.145 48.7926 288.155 53.4084 284.906 56.8275L283.069 58.7599L284.85 60.7439C290.939 67.5288 294.763 77.0183 294.763 87.5794C294.763 105.636 283.64 120.402 269.212 124.162L267.065 124.721L267.053 126.939C266.997 137.412 258.49 145.885 248.003 145.885C237.482 145.885 228.953 137.356 228.953 126.835C228.953 125.766 229.041 124.72 229.209 123.703L229.248 123.465L229.247 123.224L229.205 109.059C227.434 109.36 225.614 109.516 223.757 109.516C223.564 109.516 223.372 109.514 223.18 109.511V126.835C223.18 140.544 234.294 151.658 248.003 151.658C260.933 151.658 271.554 141.772 272.72 129.146C288.972 123.843 300.536 107.071 300.536 87.5794C300.536 76.5823 296.871 66.4981 290.782 58.8267C294.001 54.6407 295.918 49.3949 295.918 43.7059C295.918 30.3031 285.296 19.3812 272.011 18.8993Z" fill="#141E36"/>
<circle cx="220.871" cy="77.1882" r="32.3279" stroke="#141E36" stroke-width="5.77283"/>
<path d="M191.108 27.9385C192.082 33.4567 190.055 44.7766 174.151 45.9103" stroke="#141E36" stroke-width="5.77283"/>
<path d="M181.764 45.3003C182.504 53.6619 179.816 71.0175 163.141 73.546" stroke="#141E36" stroke-width="5.77283"/>
<path d="M250.781 27.9385C249.806 33.4567 251.834 44.7766 267.738 45.9103" stroke="#141E36" stroke-width="5.77283"/>
<path d="M260.125 45.3003C259.385 53.6619 262.073 71.0175 278.747 73.546" stroke="#141E36" stroke-width="5.77283"/>
<path d="M172.379 127.989C172.379 122.403 174.632 113.813 182.77 110.697" stroke="#141E36" stroke-width="5.77283"/>
<path d="M270.518 127.989C269.582 121.44 266.372 113.376 257.817 110.551" stroke="#141E36" stroke-width="5.77283"/>
</svg>
