<svg width="428" height="255" viewBox="0 0 428 255" fill="none" xmlns="http://www.w3.org/2000/svg">
<text fill="#C2B59B" xml:space="preserve" style="white-space: pre" font-family="Barlow" font-size="34.637" font-weight="500" letter-spacing="0em"><tspan x="136.475" y="219.912">nespavos&#x165;</tspan></text>
<circle cx="213.763" cy="77.1057" r="32.3279" stroke="#141E36" stroke-width="5.77283"/>
<path d="M202.217 88.6512C202.217 88.6512 206.835 85.1875 213.762 85.1875C220.69 85.1875 225.308 88.6512 225.308 88.6512" stroke="#141E36" stroke-width="5.77283"/>
<path d="M208.568 74.2192C206.259 75.9618 200.255 78.4013 194.713 74.2192" stroke="#141E36" stroke-width="5.77283"/>
<path d="M231.659 74.2188C229.349 75.9613 223.346 78.4008 217.804 74.2188" stroke="#141E36" stroke-width="5.77283"/>
<circle cx="202.795" cy="68.4461" r="3.4637" fill="#141E36"/>
<circle cx="223.577" cy="68.4461" r="3.4637" fill="#141E36"/>
<path fill-rule="evenodd" clip-rule="evenodd" d="M163.201 18.8168C166.002 8.17472 175.687 0.327148 187.209 0.327148C200.918 0.327148 212.032 11.4409 212.032 25.1503V44.8237C210.033 44.9292 208.083 45.2161 206.197 45.6684L206.2 44.7693L206.259 25.2737L206.259 25.2653C206.259 25.227 206.259 25.1887 206.259 25.1503C206.259 14.6291 197.73 6.09998 187.209 6.09998C177.7 6.09998 169.814 13.0693 168.388 22.178L167.981 24.7802L165.353 24.6124C164.945 24.5863 164.533 24.573 164.117 24.573C153.596 24.573 145.067 33.1022 145.067 43.6234C145.067 48.7101 147.057 53.3259 150.306 56.745L152.143 58.6774L150.362 60.6614C144.273 67.4463 140.449 76.9358 140.449 87.4969C140.449 105.554 151.572 120.32 166 124.079L168.147 124.639L168.158 126.857C168.215 137.33 176.722 145.802 187.209 145.802C197.73 145.802 206.259 137.273 206.259 126.752C206.259 125.683 206.171 124.637 206.003 123.62L205.964 123.382L205.965 123.141L206.009 108.498C207.953 108.976 209.967 109.279 212.032 109.388V126.752C212.032 140.462 200.918 151.575 187.209 151.575C174.278 151.575 163.658 141.689 162.492 129.064C146.24 123.761 134.676 106.989 134.676 87.4969C134.676 76.4997 138.341 66.4156 144.43 58.7442C141.211 54.5582 139.294 49.3123 139.294 43.6234C139.294 30.2205 149.916 19.2986 163.201 18.8168Z" fill="#141E36"/>
<path fill-rule="evenodd" clip-rule="evenodd" d="M264.903 18.8168C262.102 8.17472 252.418 0.327148 240.896 0.327148C227.186 0.327148 216.073 11.4409 216.073 25.1503V44.7832C216.265 44.7798 216.458 44.7781 216.65 44.7781C218.44 44.7781 220.195 44.9235 221.906 45.2031L221.905 44.7693L221.846 25.2737L221.846 25.2653L221.846 25.1927L221.846 25.1503C221.846 14.6291 230.375 6.09998 240.896 6.09998C250.405 6.09998 258.291 13.0693 259.716 22.178L260.123 24.7802L262.752 24.6124C263.16 24.5863 263.572 24.573 263.987 24.573C274.508 24.573 283.038 33.1022 283.038 43.6234C283.038 48.7101 281.048 53.3259 277.798 56.745L275.962 58.6774L277.742 60.6614C283.832 67.4463 287.656 76.9358 287.656 87.4969C287.656 105.554 276.532 120.32 262.105 124.079L259.958 124.639L259.946 126.857C259.89 137.33 251.382 145.802 240.896 145.802C230.375 145.802 221.846 137.273 221.846 126.752C221.846 125.683 221.933 124.637 222.101 123.62L222.141 123.382L222.14 123.141L222.097 108.977C220.327 109.277 218.507 109.434 216.65 109.434C216.458 109.434 216.265 109.432 216.073 109.429V126.752C216.073 140.462 227.186 151.575 240.896 151.575C253.826 151.575 264.447 141.689 265.613 129.064C281.865 123.761 293.429 106.989 293.429 87.4969C293.429 76.4997 289.764 66.4156 283.675 58.7442C286.894 54.5582 288.81 49.3123 288.81 43.6234C288.81 30.2205 278.188 19.2986 264.903 18.8168Z" fill="#141E36"/>
<circle cx="213.763" cy="77.1057" r="32.3279" stroke="#141E36" stroke-width="5.77283"/>
<path d="M184 27.8555C184.975 33.3737 182.948 44.6935 167.043 45.8273" stroke="#141E36" stroke-width="5.77283"/>
<path d="M174.656 45.2172C175.397 53.5789 172.709 70.9345 156.034 73.463" stroke="#141E36" stroke-width="5.77283"/>
<path d="M243.674 27.8555C242.699 33.3737 244.726 44.6935 260.631 45.8273" stroke="#141E36" stroke-width="5.77283"/>
<path d="M253.018 45.2172C252.277 53.5789 254.965 70.9345 271.64 73.463" stroke="#141E36" stroke-width="5.77283"/>
<path d="M165.271 127.906C165.271 122.32 167.524 113.73 175.663 110.614" stroke="#141E36" stroke-width="5.77283"/>
<path d="M263.41 127.906C262.475 121.357 259.265 113.293 250.71 110.468" stroke="#141E36" stroke-width="5.77283"/>
</svg>
