<svg width="428" height="255" viewBox="0 0 428 255" fill="none" xmlns="http://www.w3.org/2000/svg">
<text fill="#C2B59B" xml:space="preserve" style="white-space: pre" font-family="Barlow" font-size="34.637" font-weight="500" letter-spacing="0em"><tspan x="109.969" y="219.912">sp&#xe1;nok, &#xfa;&#x13e;ava</tspan></text>
<circle cx="213.353" cy="77.1057" r="32.3279" stroke="#141E36" stroke-width="5.77283"/>
<path d="M224.898 85.1872C224.898 85.1872 220.28 88.6509 213.353 88.6509C206.425 88.6509 201.807 85.1872 201.807 85.1872" stroke="#141E36" stroke-width="5.77283"/>
<path d="M205.849 67.292C203.54 69.0345 197.536 71.4741 191.994 67.292" stroke="#141E36" stroke-width="5.77283"/>
<path d="M233.559 67.292C231.25 69.0345 225.246 71.4741 219.704 67.292" stroke="#141E36" stroke-width="5.77283"/>
<path fill-rule="evenodd" clip-rule="evenodd" d="M162.791 18.8168C165.592 8.17472 175.276 0.327148 186.798 0.327148C200.508 0.327148 211.622 11.4409 211.622 25.1503V44.8237C209.623 44.9292 207.673 45.2161 205.787 45.6684L205.79 44.7693L205.848 25.2737L205.848 25.2653C205.849 25.227 205.849 25.1887 205.849 25.1503C205.849 14.6291 197.32 6.09998 186.798 6.09998C177.29 6.09998 169.403 13.0693 167.978 22.178L167.571 24.7802L164.942 24.6124C164.534 24.5863 164.122 24.573 163.707 24.573C153.186 24.573 144.657 33.1022 144.657 43.6234C144.657 48.7101 146.647 53.3259 149.896 56.745L151.733 58.6774L149.952 60.6614C143.863 67.4463 140.038 76.9358 140.038 87.4969C140.038 105.554 151.162 120.32 165.59 124.079L167.736 124.639L167.748 126.857C167.804 137.33 176.312 145.802 186.798 145.802C197.32 145.802 205.849 137.273 205.849 126.752C205.849 125.683 205.761 124.637 205.593 123.62L205.554 123.382L205.554 123.141L205.598 108.498C207.543 108.976 209.557 109.279 211.622 109.388V126.752C211.622 140.462 200.508 151.575 186.798 151.575C173.868 151.575 163.247 141.689 162.081 129.064C145.83 123.761 134.266 106.989 134.266 87.4969C134.266 76.4997 137.93 66.4156 144.019 58.7442C140.8 54.5582 138.884 49.3123 138.884 43.6234C138.884 30.2205 149.506 19.2986 162.791 18.8168Z" fill="#141E36"/>
<path fill-rule="evenodd" clip-rule="evenodd" d="M264.492 18.8168C261.691 8.17472 252.007 0.327148 240.485 0.327148C226.775 0.327148 215.662 11.4409 215.662 25.1503V44.7832C215.854 44.7798 216.046 44.7781 216.239 44.7781C218.029 44.7781 219.784 44.9235 221.495 45.2031L221.493 44.7693L221.435 25.2737L221.435 25.2653L221.435 25.1943L221.434 25.1503C221.434 14.6291 229.964 6.09998 240.485 6.09998C249.993 6.09998 257.88 13.0693 259.305 22.178L259.712 24.7802L262.341 24.6124C262.749 24.5863 263.161 24.573 263.576 24.573C274.097 24.573 282.626 33.1022 282.626 43.6234C282.626 48.7101 280.637 53.3259 277.387 56.745L275.55 58.6774L277.331 60.6614C283.42 67.4463 287.245 76.9358 287.245 87.4969C287.245 105.554 276.121 120.32 261.693 124.079L259.547 124.639L259.535 126.857C259.479 137.33 250.971 145.802 240.485 145.802C229.964 145.802 221.434 137.273 221.434 126.752C221.434 125.683 221.522 124.637 221.69 123.62L221.73 123.382L221.729 123.141L221.686 108.977C219.915 109.277 218.096 109.434 216.239 109.434C216.046 109.434 215.854 109.432 215.662 109.429V126.752C215.662 140.462 226.775 151.575 240.485 151.575C253.415 151.575 264.036 141.69 265.202 129.064C281.453 123.761 293.018 106.989 293.018 87.4969C293.018 76.4997 289.353 66.4156 283.264 58.7442C286.483 54.5582 288.399 49.3123 288.399 43.6234C288.399 30.2205 277.777 19.2986 264.492 18.8168Z" fill="#141E36"/>
<circle cx="213.353" cy="77.1057" r="32.3279" stroke="#141E36" stroke-width="5.77283"/>
<path d="M183.589 27.8555C184.564 33.3737 182.537 44.6935 166.632 45.8273" stroke="#141E36" stroke-width="5.77283"/>
<path d="M174.245 45.2172C174.985 53.5789 172.298 70.9345 155.623 73.463" stroke="#141E36" stroke-width="5.77283"/>
<path d="M243.262 27.8555C242.288 33.3737 244.315 44.6935 260.219 45.8273" stroke="#141E36" stroke-width="5.77283"/>
<path d="M252.607 45.2172C251.866 53.5789 254.554 70.9345 271.229 73.463" stroke="#141E36" stroke-width="5.77283"/>
<path d="M164.86 127.906C164.86 122.32 167.113 113.73 175.251 110.614" stroke="#141E36" stroke-width="5.77283"/>
<path d="M262.999 127.906C262.063 121.357 258.854 113.293 250.299 110.468" stroke="#141E36" stroke-width="5.77283"/>
</svg>
