<svg width="429" height="253" viewBox="0 0 429 253" fill="none" xmlns="http://www.w3.org/2000/svg">
<text fill="#C2B59B" xml:space="preserve" style="white-space: pre" font-family="Barlow" font-size="34.637" font-weight="500" letter-spacing="0em"><tspan x="146.346" y="217.912">epilepsia</tspan></text>
<circle cx="213.943" cy="76.8376" r="32.3279" stroke="#141E36" stroke-width="5.77283"/>
<path d="M190.274 79.1466H201.819C201.82 79.1466 201.82 79.1461 201.821 79.1454L211.053 61.8348C211.054 61.8328 211.057 61.8334 211.057 61.8356L214.519 95.3012C214.52 95.3036 214.523 95.3041 214.524 95.3019L223.755 72.224C223.756 72.2221 223.758 72.222 223.759 72.2238L227.22 79.1453C227.22 79.1461 227.221 79.1466 227.222 79.1466H238.766" stroke="#141E36" stroke-width="5.77283"/>
<path fill-rule="evenodd" clip-rule="evenodd" d="M163.381 19.1259C166.182 8.48381 175.866 0.63623 187.388 0.63623C201.098 0.63623 212.211 11.7499 212.211 25.4594V45.1327C210.213 45.2382 208.263 45.5252 206.377 45.9774L206.38 45.0784L206.438 25.5828L206.438 25.5744C206.438 25.5361 206.439 25.4978 206.439 25.4594C206.439 14.9382 197.909 6.40906 187.388 6.40906C177.88 6.40906 169.993 13.3783 168.568 22.4871L168.161 25.0893L165.532 24.9214C165.124 24.8954 164.712 24.8821 164.297 24.8821C153.776 24.8821 145.247 33.4112 145.247 43.9325C145.247 49.0192 147.236 53.635 150.486 57.0541L152.323 58.9864L150.542 60.9705C144.453 67.7553 140.628 77.2449 140.628 87.806C140.628 105.863 151.752 120.629 166.18 124.388L168.326 124.948L168.338 127.166C168.394 137.639 176.902 146.112 187.388 146.112C197.909 146.112 206.439 137.582 206.439 127.061C206.439 125.993 206.351 124.946 206.183 123.929L206.144 123.691L206.144 123.45L206.188 108.807C208.133 109.285 210.146 109.588 212.211 109.697V127.061C212.211 140.771 201.098 151.884 187.388 151.884C174.458 151.884 163.837 141.999 162.671 129.373C146.42 124.07 134.855 107.298 134.855 87.806C134.855 76.8088 138.52 66.7247 144.609 59.0532C141.39 54.8673 139.474 49.6214 139.474 43.9325C139.474 30.5296 150.096 19.6077 163.381 19.1259Z" fill="#141E36"/>
<path fill-rule="evenodd" clip-rule="evenodd" d="M265.082 19.1259C262.281 8.48381 252.597 0.63623 241.075 0.63623C227.365 0.63623 216.251 11.7499 216.251 25.4594V45.0922C216.444 45.0888 216.636 45.0871 216.829 45.0871C218.619 45.0871 220.374 45.2325 222.085 45.5122L222.083 45.0784L222.025 25.5828L222.025 25.5744L222.024 25.5014L222.024 25.4594C222.024 14.9382 230.553 6.40906 241.075 6.40906C250.583 6.40906 258.47 13.3783 259.895 22.4871L260.302 25.0893L262.931 24.9214C263.339 24.8954 263.751 24.8821 264.166 24.8821C274.687 24.8821 283.216 33.4112 283.216 43.9325C283.216 49.0192 281.226 53.635 277.977 57.0541L276.14 58.9864L277.921 60.9705C284.01 67.7553 287.835 77.2449 287.835 87.806C287.835 105.863 276.711 120.629 262.283 124.388L260.137 124.948L260.125 127.166C260.069 137.639 251.561 146.112 241.075 146.112C230.553 146.112 222.024 137.582 222.024 127.061C222.024 125.993 222.112 124.946 222.28 123.929L222.319 123.691L222.319 123.45L222.276 109.286C220.505 109.586 218.685 109.743 216.829 109.743C216.636 109.743 216.444 109.741 216.251 109.738V127.061C216.251 140.771 227.365 151.884 241.075 151.884C254.005 151.884 264.626 141.999 265.792 129.373C282.043 124.07 293.607 107.298 293.607 87.806C293.607 76.8088 289.943 66.7247 283.854 59.0532C287.073 54.8673 288.989 49.6214 288.989 43.9325C288.989 30.5296 278.367 19.6077 265.082 19.1259Z" fill="#141E36"/>
<circle cx="213.943" cy="77.4148" r="32.3279" stroke="#141E36" stroke-width="5.77283"/>
<path d="M184.179 28.1646C185.153 33.6828 183.126 45.0026 167.222 46.1363" stroke="#141E36" stroke-width="5.77283"/>
<path d="M174.835 45.5263C175.575 53.888 172.887 71.2435 156.213 73.7721" stroke="#141E36" stroke-width="5.77283"/>
<path d="M243.852 28.1646C242.878 33.6828 244.905 45.0026 260.809 46.1363" stroke="#141E36" stroke-width="5.77283"/>
<path d="M253.196 45.5263C252.456 53.888 255.144 71.2435 271.818 73.7721" stroke="#141E36" stroke-width="5.77283"/>
<path d="M165.45 128.215C165.45 122.629 167.703 114.039 175.841 110.923" stroke="#141E36" stroke-width="5.77283"/>
<path d="M263.589 128.215C262.653 121.666 259.444 113.602 250.889 110.777" stroke="#141E36" stroke-width="5.77283"/>
</svg>
