<svg width="428" height="235" viewBox="0 0 428 235" fill="none" xmlns="http://www.w3.org/2000/svg">
<text fill="#C2B59B" xml:space="preserve" style="white-space: pre" font-family="Barlow" font-size="34.637" font-weight="500" letter-spacing="0em"><tspan x="184.744" y="199.739">&#127;kosti</tspan></text>
<path d="M250.598 42.407L251.99 44.9357L251.99 44.9357L250.598 42.407ZM249.563 42.9525L250.854 45.5342L250.869 45.5266L250.884 45.5188L249.563 42.9525ZM249.563 42.9526L248.272 40.3709L248.257 40.3785L248.242 40.3862L249.563 42.9526ZM244.78 50.5588L241.894 50.5289L241.894 50.5438V50.5588H244.78ZM244.78 128.058L245.883 130.726L247.667 129.989V128.058H244.78ZM226.059 128.383L226.856 125.609L226.856 125.609L226.059 128.383ZM197.709 130.3L196.631 127.622L196.631 127.622L197.709 130.3ZM196.407 130.823H193.521V135.086L197.479 133.503L196.407 130.823ZM196.407 49.8908H199.293V47.0044H196.407V49.8908ZM196.407 49.8908H193.521V52.7772H196.407V49.8908ZM191.679 42.4071L190.287 44.9358L190.287 44.9358L191.679 42.4071ZM186.917 9.41106L184.868 7.37746L184.868 7.37746L186.917 9.41106ZM211.89 5.88318L210.482 8.40298L210.56 8.44678L210.641 8.48563L211.89 5.88318ZM212.966 6.40886L211.689 8.99787L211.689 8.99787L212.966 6.40886ZM227.998 6.54605L229.115 9.20753L229.158 9.18945L229.201 9.16998L227.998 6.54605ZM227.998 6.54603L226.881 3.88455L226.838 3.90263L226.796 3.92209L227.998 6.54603ZM232.471 4.8671L233.251 7.64595L233.424 7.59747L233.589 7.528L232.471 4.8671ZM255.36 9.41098L253.312 11.4446L253.312 11.4446L255.36 9.41098ZM251.99 44.9357C259.325 40.8988 264.305 33.0895 264.305 24.1129H258.532C258.532 30.9012 254.772 36.8153 249.207 39.8783L251.99 44.9357ZM250.884 45.5188C251.219 45.3463 251.601 45.1499 251.99 44.9357L249.207 39.8783C248.899 40.0477 248.587 40.2083 248.242 40.3862L250.884 45.5188ZM250.854 45.5342L250.854 45.5342L248.272 40.3708L248.272 40.3709L250.854 45.5342ZM247.667 50.5888C247.689 48.4085 248.153 47.5364 248.495 47.1072C248.919 46.5762 249.522 46.2199 250.884 45.5189L248.242 40.3862C247.065 40.9919 245.303 41.8529 243.984 43.5053C242.584 45.2596 241.925 47.5372 241.894 50.5289L247.667 50.5888ZM241.894 50.5588V128.058H247.667V50.5588H241.894ZM243.678 125.391C239.972 126.922 237.075 127.308 234.546 127.186C231.948 127.06 229.614 126.401 226.856 125.609L225.262 131.157C227.943 131.928 230.899 132.789 234.267 132.952C237.704 133.118 241.447 132.559 245.883 130.726L243.678 125.391ZM226.856 125.609C223.652 124.688 219.973 123.617 215.411 123.617V129.39C219.066 129.39 222.031 130.228 225.262 131.157L226.856 125.609ZM215.411 123.617C211.107 123.617 207.956 123.972 205.043 124.684C202.173 125.386 199.622 126.418 196.631 127.622L198.786 132.977C201.849 131.745 204.015 130.879 206.415 130.292C208.772 129.715 211.444 129.39 215.411 129.39V123.617ZM196.631 127.622C196.21 127.791 195.78 127.965 195.335 128.143L197.479 133.503C197.931 133.322 198.367 133.146 198.786 132.977L196.631 127.622ZM199.293 130.823V49.8908H193.521V130.823H199.293ZM196.407 52.7772C196.407 52.7772 196.407 52.7772 196.407 52.7772C196.407 52.7772 196.407 52.7772 196.407 52.7772C196.407 52.7772 196.407 52.7772 196.407 52.7772C196.407 52.7772 196.407 52.7772 196.407 52.7772C196.407 52.7772 196.407 52.7772 196.407 52.7772C196.407 52.7772 196.407 52.7772 196.407 52.7772C196.407 52.7772 196.407 52.7772 196.407 52.7772C196.407 52.7772 196.407 52.7772 196.407 52.7772C196.407 52.7772 196.407 52.7772 196.407 52.7772C196.407 52.7772 196.407 52.7772 196.407 52.7772C196.407 52.7772 196.407 52.7772 196.407 52.7772C196.407 52.7772 196.407 52.7772 196.407 52.7772C196.407 52.7772 196.407 52.7772 196.407 52.7772C196.407 52.7772 196.407 52.7772 196.407 52.7772C196.407 52.7772 196.407 52.7772 196.407 52.7772C196.407 52.7772 196.407 52.7772 196.407 52.7772C196.407 52.7772 196.407 52.7772 196.407 52.7772C196.407 52.7772 196.407 52.7772 196.407 52.7772C196.407 52.7772 196.407 52.7772 196.407 52.7772C196.407 52.7772 196.407 52.7772 196.407 52.7772C196.407 52.7772 196.407 52.7772 196.407 52.7772C196.407 52.7772 196.407 52.7772 196.407 52.7772C196.407 52.7772 196.407 52.7772 196.407 52.7772C196.407 52.7772 196.407 52.7772 196.407 52.7772C196.407 52.7772 196.407 52.7772 196.407 52.7772C196.407 52.7772 196.407 52.7772 196.407 52.7772C196.407 52.7772 196.407 52.7772 196.407 52.7772C196.407 52.7772 196.407 52.7772 196.407 52.7772C196.407 52.7772 196.407 52.7772 196.407 52.7772C196.407 52.7772 196.407 52.7772 196.407 52.7772C196.407 52.7772 196.407 52.7772 196.407 52.7772C196.407 52.7772 196.407 52.7772 196.407 52.7772C196.407 52.7772 196.407 52.7772 196.407 52.7772C196.407 52.7772 196.407 52.7772 196.407 52.7772C196.407 52.7772 196.407 52.7772 196.407 52.7772C196.407 52.7772 196.407 52.7772 196.407 52.7772C196.407 52.7772 196.407 52.7772 196.407 52.7772C196.407 52.7772 196.407 52.7772 196.407 52.7772C196.407 52.7772 196.407 52.7772 196.407 52.7772C196.407 52.7772 196.407 52.7772 196.407 52.7772C196.407 52.7772 196.407 52.7772 196.407 52.7772C196.407 52.7772 196.407 52.7772 196.407 52.7772C196.407 52.7772 196.407 52.7772 196.407 52.7772C196.407 52.7772 196.407 52.7772 196.407 52.7772C196.407 52.7772 196.407 52.7772 196.407 52.7772C196.407 52.7772 196.407 52.7772 196.407 52.7772C196.407 52.7772 196.407 52.7772 196.407 52.7772C196.407 52.7772 196.407 52.7772 196.407 52.7772C196.407 52.7772 196.407 52.7772 196.407 52.7772C196.407 52.7772 196.407 52.7772 196.407 52.7772C196.407 52.7772 196.407 52.7772 196.407 52.7772C196.407 52.7772 196.407 52.7772 196.407 52.7772C196.407 52.7772 196.407 52.7772 196.407 52.7772C196.407 52.7772 196.407 52.7772 196.407 52.7772C196.407 52.7772 196.407 52.7772 196.407 52.7772C196.407 52.7772 196.407 52.7772 196.407 52.7772C196.407 52.7772 196.407 52.7772 196.407 52.7772C196.407 52.7772 196.407 52.7772 196.407 52.7772C196.407 52.7772 196.407 52.7772 196.407 52.7772C196.407 52.7772 196.407 52.7772 196.407 52.7772C196.407 52.7772 196.407 52.7772 196.407 52.7772C196.407 52.7772 196.407 52.7772 196.407 52.7772C196.407 52.7772 196.407 52.7772 196.407 52.7772C196.407 52.7772 196.407 52.7772 196.407 52.7772C196.407 52.7772 196.407 52.7772 196.407 52.7772C196.407 52.7772 196.407 52.7772 196.407 52.7772C196.407 52.7772 196.407 52.7772 196.407 52.7772C196.407 52.7772 196.407 52.7772 196.407 52.7772C196.407 52.7772 196.407 52.7772 196.407 52.7772C196.407 52.7772 196.407 52.7772 196.407 52.7772C196.407 52.7772 196.407 52.7772 196.407 52.7772C196.407 52.7772 196.407 52.7772 196.407 52.7772C196.407 52.7772 196.407 52.7772 196.407 52.7772C196.407 52.7772 196.407 52.7772 196.407 52.7772C196.407 52.7772 196.407 52.7772 196.407 52.7772C196.407 52.7772 196.407 52.7772 196.407 52.7772C196.407 52.7772 196.407 52.7772 196.407 52.7772C196.407 52.7772 196.407 52.7772 196.407 52.7772C196.407 52.7772 196.407 52.7772 196.407 52.7772C196.407 52.7772 196.407 52.7772 196.407 52.7772C196.407 52.7772 196.407 52.7772 196.407 52.7772C196.407 52.7772 196.407 52.7772 196.407 52.7772C196.407 52.7772 196.407 52.7772 196.407 52.7772C196.407 52.7772 196.407 52.7772 196.407 52.7772C196.407 52.7772 196.407 52.7772 196.407 52.7772C196.407 52.7772 196.407 52.7772 196.407 52.7772C196.407 52.7772 196.407 52.7772 196.407 52.7772C196.407 52.7772 196.407 52.7772 196.407 52.7772C196.407 52.7772 196.407 52.7772 196.407 52.7772C196.407 52.7772 196.407 52.7772 196.407 52.7772C196.407 52.7772 196.407 52.7772 196.407 52.7772C196.407 52.7772 196.407 52.7772 196.407 52.7772C196.407 52.7772 196.407 52.7772 196.407 52.7772C196.407 52.7772 196.407 52.7772 196.407 52.7772C196.407 52.7772 196.407 52.7772 196.407 52.7772C196.407 52.7772 196.407 52.7772 196.407 52.7772C196.407 52.7772 196.407 52.7772 196.407 52.7772C196.407 52.7772 196.407 52.7772 196.407 52.7772C196.407 52.7772 196.407 52.7772 196.407 52.7772C196.407 52.7772 196.407 52.7772 196.407 52.7772C196.407 52.7772 196.407 52.7772 196.407 52.7772C196.407 52.7772 196.407 52.7772 196.407 52.7772C196.407 52.7772 196.407 52.7772 196.407 52.7772C196.407 52.7772 196.407 52.7772 196.407 52.7772C196.407 52.7772 196.407 52.7772 196.407 52.7772C196.407 52.7772 196.407 52.7772 196.407 52.7772C196.407 52.7772 196.407 52.7772 196.407 52.7772C196.407 52.7772 196.407 52.7772 196.407 52.7772C196.407 52.7772 196.407 52.7772 196.407 52.7772C196.407 52.7772 196.407 52.7772 196.407 52.7772C196.407 52.7772 196.407 52.7772 196.407 52.7772C196.407 52.7772 196.407 52.7772 196.407 52.7772C196.407 52.7772 196.407 52.7772 196.407 52.7772C196.407 52.7772 196.407 52.7772 196.407 52.7772C196.407 52.7772 196.407 52.7772 196.407 52.7772C196.407 52.7772 196.407 52.7772 196.407 52.7772C196.407 52.7772 196.407 52.7772 196.407 52.7772C196.407 52.7772 196.407 52.7772 196.407 52.7772C196.407 52.7772 196.407 52.7772 196.407 52.7772C196.407 52.7772 196.407 52.7772 196.407 52.7772C196.407 52.7772 196.407 52.7772 196.407 52.7772C196.407 52.7772 196.407 52.7772 196.407 52.7772C196.407 52.7772 196.407 52.7772 196.407 52.7772C196.407 52.7772 196.407 52.7772 196.407 52.7772C196.407 52.7772 196.407 52.7772 196.407 52.7772C196.407 52.7772 196.407 52.7772 196.407 52.7772C196.407 52.7772 196.407 52.7772 196.407 52.7772C196.407 52.7772 196.407 52.7772 196.407 52.7772C196.407 52.7772 196.407 52.7772 196.407 52.7772C196.407 52.7772 196.407 52.7772 196.407 52.7772C196.407 52.7772 196.407 52.7772 196.407 52.7772C196.407 52.7772 196.407 52.7772 196.407 52.7772C196.407 52.7772 196.407 52.7772 196.407 52.7772C196.407 52.7772 196.407 52.7772 196.407 52.7772C196.407 52.7772 196.407 52.7772 196.407 52.7772C196.407 52.7772 196.407 52.7772 196.407 52.7772C196.407 52.7772 196.407 52.7772 196.407 52.7772C196.407 52.7772 196.407 52.7772 196.407 52.7772C196.407 52.7772 196.407 52.7772 196.407 52.7772C196.407 52.7772 196.407 52.7772 196.407 52.7772C196.407 52.7772 196.407 52.7772 196.407 52.7772C196.407 52.7772 196.407 52.7772 196.407 52.7772C196.407 52.7772 196.407 52.7772 196.407 52.7772C196.407 52.7772 196.407 52.7772 196.407 52.7772C196.407 52.7772 196.407 52.7772 196.407 52.7772C196.407 52.7772 196.407 52.7772 196.407 52.7772C196.407 52.7772 196.407 52.7772 196.407 52.7772C196.407 52.7772 196.407 52.7772 196.407 52.7772C196.407 52.7772 196.407 52.7772 196.407 52.7772C196.407 52.7772 196.407 52.7772 196.407 52.7772C196.407 52.7772 196.407 52.7772 196.407 52.7772C196.407 52.7772 196.407 52.7772 196.407 52.7772C196.407 52.7772 196.407 52.7772 196.407 52.7772C196.407 52.7772 196.407 52.7772 196.407 52.7772C196.407 52.7772 196.407 52.7772 196.407 52.7772C196.407 52.7772 196.407 52.7772 196.407 52.7772C196.407 52.7772 196.407 52.7772 196.407 52.7772C196.407 52.7772 196.407 52.7772 196.407 52.7772C196.407 52.7772 196.407 52.7772 196.407 52.7772C196.407 52.7772 196.407 52.7772 196.407 52.7772C196.407 52.7772 196.407 52.7772 196.407 52.7772C196.407 52.7772 196.407 52.7772 196.407 52.7772C196.407 52.7772 196.407 52.7772 196.407 52.7772C196.407 52.7772 196.407 52.7772 196.407 52.7772C196.407 52.7772 196.407 52.7772 196.407 52.7772C196.407 52.7772 196.407 52.7772 196.407 52.7772C196.407 52.7772 196.407 52.7772 196.407 52.7772C196.407 52.7772 196.407 52.7772 196.407 52.7772C196.407 52.7772 196.407 52.7772 196.407 52.7772C196.407 52.7772 196.407 52.7772 196.407 52.7772C196.407 52.7772 196.407 52.7772 196.407 52.7772C196.407 52.7772 196.407 52.7772 196.407 52.7772C196.407 52.7772 196.407 52.7772 196.407 52.7772C196.407 52.7772 196.407 52.7772 196.407 52.7772C196.407 52.7772 196.407 52.7772 196.407 52.7772C196.407 52.7772 196.407 52.7772 196.407 52.7772C196.407 52.7772 196.407 52.7772 196.407 52.7772C196.407 52.7772 196.407 52.7772 196.407 52.7772C196.407 52.7772 196.407 52.7772 196.407 52.7772C196.407 52.7772 196.407 52.7772 196.407 52.7772C196.407 52.7772 196.407 52.7772 196.407 52.7772C196.407 52.7772 196.407 52.7772 196.407 52.7772C196.407 52.7772 196.407 52.7772 196.407 52.7772C196.407 52.7772 196.407 52.7772 196.407 52.7772C196.407 52.7772 196.407 52.7772 196.407 52.7772C196.407 52.7772 196.407 52.7772 196.407 52.7772C196.407 52.7772 196.407 52.7772 196.407 52.7772C196.407 52.7772 196.407 52.7772 196.407 52.7772C196.407 52.7772 196.407 52.7772 196.407 52.7772C196.407 52.7772 196.407 52.7772 196.407 52.7772C196.407 52.7772 196.407 52.7772 196.407 52.7772C196.407 52.7772 196.407 52.7772 196.407 52.7772C196.407 52.7772 196.407 52.7772 196.407 52.7772C196.407 52.7772 196.407 52.7772 196.407 52.7772C196.407 52.7772 196.407 52.7772 196.407 52.7772C196.407 52.7772 196.407 52.7772 196.407 52.7772C196.407 52.7772 196.407 52.7772 196.407 52.7772C196.407 52.7772 196.407 52.7772 196.407 52.7772C196.407 52.7772 196.407 52.7772 196.407 52.7772C196.407 52.7772 196.407 52.7772 196.407 52.7772C196.407 52.7772 196.407 52.7772 196.407 52.7772C196.407 52.7772 196.407 52.7772 196.407 52.7772C196.407 52.7772 196.407 52.7772 196.407 52.7772C196.407 52.7772 196.407 52.7772 196.407 52.7772C196.407 52.7772 196.407 52.7772 196.407 52.7772C196.407 52.7772 196.407 52.7772 196.407 52.7772C196.407 52.7772 196.407 52.7772 196.407 52.7772C196.407 52.7772 196.407 52.7772 196.407 52.7772C196.407 52.7772 196.407 52.7772 196.407 52.7772C196.407 52.7772 196.407 52.7772 196.407 52.7772C196.407 52.7772 196.407 52.7772 196.407 52.7772C196.407 52.7772 196.407 52.7772 196.407 52.7772C196.407 52.7772 196.407 52.7772 196.407 52.7772C196.407 52.7772 196.407 52.7772 196.407 52.7772C196.407 52.7772 196.407 52.7772 196.407 52.7772C196.407 52.7772 196.407 52.7772 196.407 52.7772C196.407 52.7772 196.407 52.7772 196.407 52.7772C196.407 52.7772 196.407 52.7772 196.407 52.7772C196.407 52.7772 196.407 52.7772 196.407 52.7772C196.407 52.7772 196.407 52.7772 196.407 52.7772C196.407 52.7772 196.407 52.7772 196.407 52.7772C196.407 52.7772 196.407 52.7772 196.407 52.7772C196.407 52.7772 196.407 52.7772 196.407 52.7772C196.407 52.7772 196.407 52.7772 196.407 52.7772C196.407 52.7772 196.407 52.7772 196.407 52.7772C196.407 52.7772 196.407 52.7772 196.407 52.7772C196.407 52.7772 196.407 52.7772 196.407 52.7772C196.407 52.7772 196.407 52.7772 196.407 52.7772C196.407 52.7772 196.407 52.7772 196.407 52.7772C196.407 52.7772 196.407 52.7772 196.407 52.7772C196.407 52.7772 196.407 52.7772 196.407 52.7772C196.407 52.7772 196.407 52.7772 196.407 52.7772C196.407 52.7772 196.407 52.7772 196.407 52.7772C196.407 52.7772 196.407 52.7772 196.407 52.7772C196.407 52.7772 196.407 52.7772 196.407 52.7772C196.407 52.7772 196.407 52.7772 196.407 52.7772C196.407 52.7772 196.407 52.7772 196.407 52.7772C196.407 52.7772 196.407 52.7772 196.407 52.7772C196.407 52.7772 196.407 52.7772 196.407 52.7772C196.407 52.7772 196.407 52.7772 196.407 52.7772C196.407 52.7772 196.407 52.7772 196.407 52.7772C196.407 52.7772 196.407 52.7772 196.407 52.7772C196.407 52.7772 196.407 52.7772 196.407 52.7772C196.407 52.7772 196.407 52.7772 196.407 52.7772C196.407 52.7772 196.407 52.7772 196.407 52.7772C196.407 52.7772 196.407 52.7772 196.407 52.7772C196.407 52.7772 196.407 52.7772 196.407 52.7772C196.407 52.7772 196.407 52.7772 196.407 52.7772C196.407 52.7772 196.407 52.7772 196.407 52.7772C196.407 52.7772 196.407 52.7772 196.407 52.7772C196.407 52.7772 196.407 52.7772 196.407 52.7772C196.407 52.7772 196.407 52.7772 196.407 52.7772C196.407 52.7772 196.407 52.7772 196.407 52.7772C196.407 52.7772 196.407 52.7772 196.407 52.7772C196.407 52.7772 196.407 52.7772 196.407 52.7772C196.407 52.7772 196.407 52.7772 196.407 52.7772C196.407 52.7772 196.407 52.7772 196.407 52.7772C196.407 52.7772 196.407 52.7772 196.407 52.7772C196.407 52.7772 196.407 52.7772 196.407 52.7772C196.407 52.7772 196.407 52.7772 196.407 52.7772C196.407 52.7772 196.407 52.7772 196.407 52.7772C196.407 52.7772 196.407 52.7772 196.407 52.7772C196.407 52.7772 196.407 52.7772 196.407 52.7772C196.407 52.7772 196.407 52.7772 196.407 52.7772C196.407 52.7772 196.407 52.7772 196.407 52.7772C196.407 52.7772 196.407 52.7772 196.407 52.7772C196.407 52.7772 196.407 52.7772 196.407 52.7772C196.407 52.7772 196.407 52.7772 196.407 52.7772C196.407 52.7772 196.407 52.7772 196.407 52.7772C196.407 52.7772 196.407 52.7772 196.407 52.7772C196.407 52.7772 196.407 52.7772 196.407 52.7772C196.407 52.7772 196.407 52.7772 196.407 52.7772C196.407 52.7772 196.407 52.7772 196.407 52.7772C196.407 52.7772 196.407 52.7772 196.407 52.7772C196.407 52.7772 196.407 52.7772 196.407 52.7772C196.407 52.7772 196.407 52.7772 196.407 52.7772C196.407 52.7772 196.407 52.7772 196.407 52.7772C196.407 52.7772 196.407 52.7772 196.407 52.7772C196.407 52.7772 196.407 52.7772 196.407 52.7772C196.407 52.7772 196.407 52.7772 196.407 52.7772C196.407 52.7772 196.407 52.7772 196.407 52.7772C196.407 52.7772 196.407 52.7772 196.407 52.7772C196.407 52.7772 196.407 52.7772 196.407 52.7772C196.407 52.7772 196.407 52.7772 196.407 52.7772C196.407 52.7772 196.407 52.7772 196.407 52.7772C196.407 52.7772 196.407 52.7772 196.407 52.7772C196.407 52.7772 196.407 52.7772 196.407 52.7772C196.407 52.7772 196.407 52.7772 196.407 52.7772C196.407 52.7772 196.407 52.7772 196.407 52.7772C196.407 52.7772 196.407 52.7772 196.407 52.7772C196.407 52.7772 196.407 52.7772 196.407 52.7772C196.407 52.7772 196.407 52.7772 196.407 52.7772C196.407 52.7772 196.407 52.7772 196.407 52.7772C196.407 52.7772 196.407 52.7772 196.407 52.7772C196.407 52.7772 196.407 52.7772 196.407 52.7772C196.407 52.7772 196.407 52.7772 196.407 52.7772C196.407 52.7772 196.407 52.7772 196.407 52.7772C196.407 52.7772 196.407 52.7772 196.407 52.7772C196.407 52.7772 196.407 52.7772 196.407 52.7772C196.407 52.7772 196.407 52.7772 196.407 52.7772C196.407 52.7772 196.407 52.7772 196.407 52.7772C196.407 52.7772 196.407 52.7772 196.407 52.7772C196.407 52.7772 196.407 52.7772 196.407 52.7772C196.407 52.7772 196.407 52.7772 196.407 52.7772C196.407 52.7772 196.407 52.7772 196.407 52.7772C196.407 52.7772 196.407 52.7772 196.407 52.7772C196.407 52.7772 196.407 52.7772 196.407 52.7772C196.407 52.7772 196.407 52.7772 196.407 52.7772C196.407 52.7772 196.407 52.7772 196.407 52.7772C196.407 52.7772 196.407 52.7772 196.407 52.7772C196.407 52.7772 196.407 52.7772 196.407 52.7772C196.407 52.7772 196.407 52.7772 196.407 52.7772C196.407 52.7772 196.407 52.7772 196.407 52.7772C196.407 52.7772 196.407 52.7772 196.407 52.7772C196.407 52.7772 196.407 52.7772 196.407 52.7772C196.407 52.7772 196.407 52.7772 196.407 52.7772C196.407 52.7772 196.407 52.7772 196.407 52.7772C196.407 52.7772 196.407 52.7772 196.407 52.7772C196.407 52.7772 196.407 52.7772 196.407 52.7772C196.407 52.7772 196.407 52.7772 196.407 52.7772C196.407 52.7772 196.407 52.7772 196.407 52.7772C196.407 52.7772 196.407 52.7772 196.407 52.7772C196.407 52.7772 196.407 52.7772 196.407 52.7772C196.407 52.7772 196.407 52.7772 196.407 52.7772C196.407 52.7772 196.407 52.7772 196.407 52.7772C196.407 52.7772 196.407 52.7772 196.407 52.7772C196.407 52.7772 196.407 52.7772 196.407 52.7772C196.407 52.7772 196.407 52.7772 196.407 52.7772C196.407 52.7772 196.407 52.7772 196.407 52.7772C196.407 52.7772 196.407 52.7772 196.407 52.7772C196.407 52.7772 196.407 52.7772 196.407 52.7772C196.407 52.7772 196.407 52.7772 196.407 52.7772C196.407 52.7772 196.407 52.7772 196.407 52.7772C196.407 52.7772 196.407 52.7772 196.407 52.7772C196.407 52.7772 196.407 52.7772 196.407 52.7772C196.407 52.7772 196.407 52.7772 196.407 52.7772C196.407 52.7772 196.407 52.7772 196.407 52.7772C196.407 52.7772 196.407 52.7772 196.407 52.7772C196.407 52.7772 196.407 52.7772 196.407 52.7772C196.407 52.7772 196.407 52.7772 196.407 52.7772C196.407 52.7772 196.407 52.7772 196.407 52.7772C196.407 52.7772 196.407 52.7772 196.407 52.7772C196.407 52.7772 196.407 52.7772 196.407 52.7772C196.407 52.7772 196.407 52.7772 196.407 52.7772C196.407 52.7772 196.407 52.7772 196.407 52.7772C196.407 52.7772 196.407 52.7772 196.407 52.7772C196.407 52.7772 196.407 52.7772 196.407 52.7772C196.407 52.7772 196.407 52.7772 196.407 52.7772C196.407 52.7772 196.407 52.7772 196.407 52.7772C196.407 52.7772 196.407 52.7772 196.407 52.7772C196.407 52.7772 196.407 52.7772 196.407 52.7772C196.407 52.7772 196.407 52.7772 196.407 52.7772C196.407 52.7772 196.407 52.7772 196.407 52.7772C196.407 52.7772 196.407 52.7772 196.407 52.7772C196.407 52.7772 196.407 52.7772 196.407 52.7772C196.407 52.7772 196.407 52.7772 196.407 52.7772C196.407 52.7772 196.407 52.7772 196.407 52.7772C196.407 52.7772 196.407 52.7772 196.407 52.7772C196.407 52.7772 196.407 52.7772 196.407 52.7772C196.407 52.7772 196.407 52.7772 196.407 52.7772C196.407 52.7772 196.407 52.7772 196.407 52.7772C196.407 52.7772 196.407 52.7772 196.407 52.7772C196.407 52.7772 196.407 52.7772 196.407 52.7772C196.407 52.7772 196.407 52.7772 196.407 52.7772C196.407 52.7772 196.407 52.7772 196.407 52.7772C196.407 52.7772 196.407 52.7772 196.407 52.7772C196.407 52.7772 196.407 52.7772 196.407 52.7772C196.407 52.7772 196.407 52.7772 196.407 52.7772C196.407 52.7772 196.407 52.7772 196.407 52.7772C196.407 52.7772 196.407 52.7772 196.407 52.7772C196.407 52.7772 196.407 52.7772 196.407 52.7772C196.407 52.7772 196.407 52.7772 196.407 52.7772C196.407 52.7772 196.407 52.7772 196.407 52.7772C196.407 52.7772 196.407 52.7772 196.407 52.7772C196.407 52.7772 196.407 52.7772 196.407 52.7772C196.407 52.7772 196.407 52.7772 196.407 52.7772C196.407 52.7772 196.407 52.7772 196.407 52.7772C196.407 52.7772 196.407 52.7772 196.407 52.7772C196.407 52.7772 196.407 52.7772 196.407 52.7772C196.407 52.7772 196.407 52.7772 196.407 52.7772C196.407 52.7772 196.407 52.7772 196.407 52.7772C196.407 52.7772 196.407 52.7772 196.407 52.7772C196.407 52.7772 196.407 52.7772 196.407 52.7772C196.407 52.7772 196.407 52.7772 196.407 52.7772C196.407 52.7772 196.407 52.7772 196.407 52.7772C196.407 52.7772 196.407 52.7772 196.407 52.7772C196.407 52.7772 196.407 52.7772 196.407 52.7772C196.407 52.7772 196.407 52.7772 196.407 52.7772C196.407 52.7772 196.407 52.7772 196.407 52.7772C196.407 52.7772 196.407 52.7772 196.407 52.7772C196.407 52.7772 196.407 52.7772 196.407 52.7772C196.407 52.7772 196.407 52.7772 196.407 52.7772C196.407 52.7772 196.407 52.7772 196.407 52.7772C196.407 52.7772 196.407 52.7772 196.407 52.7772C196.407 52.7772 196.407 52.7772 196.407 52.7772C196.407 52.7772 196.407 52.7772 196.407 52.7772C196.407 52.7772 196.407 52.7772 196.407 52.7772C196.407 52.7772 196.407 52.7772 196.407 52.7772C196.407 52.7772 196.407 52.7772 196.407 52.7772C196.407 52.7772 196.407 52.7772 196.407 52.7772C196.407 52.7772 196.407 52.7772 196.407 52.7772C196.407 52.7772 196.407 52.7772 196.407 52.7772C196.407 52.7772 196.407 52.7772 196.407 52.7772C196.407 52.7772 196.407 52.7772 196.407 52.7772C196.407 52.7772 196.407 52.7772 196.407 52.7772C196.407 52.7772 196.407 52.7772 196.407 52.7772C196.407 52.7772 196.407 52.7772 196.407 52.7772C196.407 52.7772 196.407 52.7772 196.407 52.7772C196.407 52.7772 196.407 52.7772 196.407 52.7772C196.407 52.7772 196.407 52.7772 196.407 52.7772C196.407 52.7772 196.407 52.7772 196.407 52.7772C196.407 52.7772 196.407 52.7772 196.407 52.7772C196.407 52.7772 196.407 52.7772 196.407 52.7772C196.407 52.7772 196.407 52.7772 196.407 52.7772C196.407 52.7772 196.407 52.7772 196.407 52.7772C196.407 52.7772 196.407 52.7772 196.407 52.7772C196.407 52.7772 196.407 52.7772 196.407 52.7772C196.407 52.7772 196.407 52.7772 196.407 52.7772C196.407 52.7772 196.407 52.7772 196.407 52.7772C196.407 52.7772 196.407 52.7772 196.407 52.7772C196.407 52.7772 196.407 52.7772 196.407 52.7772C196.407 52.7772 196.407 52.7772 196.407 52.7772C196.407 52.7772 196.407 52.7772 196.407 52.7772C196.407 52.7772 196.407 52.7772 196.407 52.7772C196.407 52.7772 196.407 52.7772 196.407 52.7772C196.407 52.7772 196.407 52.7772 196.407 52.7772C196.407 52.7772 196.407 52.7772 196.407 52.7772C196.407 52.7772 196.407 52.7772 196.407 52.7772C196.407 52.7772 196.407 52.7772 196.407 52.7772C196.407 52.7772 196.407 52.7772 196.407 52.7772C196.407 52.7772 196.407 52.7772 196.407 52.7772C196.407 52.7772 196.407 52.7772 196.407 52.7772C196.407 52.7772 196.407 52.7772 196.407 52.7772C196.407 52.7772 196.407 52.7772 196.407 52.7772C196.407 52.7772 196.407 52.7772 196.407 52.7772C196.407 52.7772 196.407 52.7772 196.407 52.7772C196.407 52.7772 196.407 52.7772 196.407 52.7772C196.407 52.7772 196.407 52.7772 196.407 52.7772C196.407 52.7772 196.407 52.7772 196.407 52.7772C196.407 52.7772 196.407 52.7772 196.407 52.7772C196.407 52.7772 196.407 52.7772 196.407 52.7772C196.407 52.7772 196.407 52.7772 196.407 52.7772C196.407 52.7772 196.407 52.7772 196.407 52.7772C196.407 52.7772 196.407 52.7772 196.407 52.7772C196.407 52.7772 196.407 52.7772 196.407 52.7772C196.407 52.7772 196.407 52.7772 196.407 52.7772C196.407 52.7772 196.407 52.7772 196.407 52.7772C196.407 52.7772 196.407 52.7772 196.407 52.7772C196.407 52.7772 196.407 52.7772 196.407 52.7772C196.407 52.7772 196.407 52.7772 196.407 52.7772C196.407 52.7772 196.407 52.7772 196.407 52.7772C196.407 52.7772 196.407 52.7772 196.407 52.7772C196.407 52.7772 196.407 52.7772 196.407 52.7772C196.407 52.7772 196.407 52.7772 196.407 52.7772C196.407 52.7772 196.407 52.7772 196.407 52.7772C196.407 52.7772 196.407 52.7772 196.407 52.7772C196.407 52.7772 196.407 52.7772 196.407 52.7772C196.407 52.7772 196.407 52.7772 196.407 52.7772C196.407 52.7772 196.407 52.7772 196.407 52.7772C196.407 52.7772 196.407 52.7772 196.407 52.7772C196.407 52.7772 196.407 52.7772 196.407 52.7772C196.407 52.7772 196.407 52.7772 196.407 52.7772C196.407 52.7772 196.407 52.7772 196.407 52.7772C196.407 52.7772 196.407 52.7772 196.407 52.7772C196.407 52.7772 196.407 52.7772 196.407 52.7772C196.407 52.7772 196.407 52.7772 196.407 52.7772C196.407 52.7772 196.407 52.7772 196.407 52.7772C196.407 52.7772 196.407 52.7772 196.407 52.7772C196.407 52.7772 196.407 52.7772 196.407 52.7772C196.407 52.7772 196.407 52.7772 196.407 52.7772C196.407 52.7772 196.407 52.7772 196.407 52.7772C196.407 52.7772 196.407 52.7772 196.407 52.7772C196.407 52.7772 196.407 52.7772 196.407 52.7772C196.407 52.7772 196.407 52.7772 196.407 52.7772C196.407 52.7772 196.407 52.7772 196.407 52.7772C196.407 52.7772 196.407 52.7772 196.407 52.7772C196.407 52.7772 196.407 52.7772 196.407 52.7772C196.407 52.7772 196.407 52.7772 196.407 52.7772C196.407 52.7772 196.407 52.7772 196.407 52.7772C196.407 52.7772 196.407 52.7772 196.407 52.7772C196.407 52.7772 196.407 52.7772 196.407 52.7772C196.407 52.7772 196.407 52.7772 196.407 52.7772C196.407 52.7772 196.407 52.7772 196.407 52.7772C196.407 52.7772 196.407 52.7772 196.407 52.7772C196.407 52.7772 196.407 52.7772 196.407 52.7772C196.407 52.7772 196.407 52.7772 196.407 52.7772C196.407 52.7772 196.407 52.7772 196.407 52.7772C196.407 52.7772 196.407 52.7772 196.407 52.7772C196.407 52.7772 196.407 52.7772 196.407 52.7772C196.407 52.7772 196.407 52.7772 196.407 52.7772C196.407 52.7772 196.407 52.7772 196.407 52.7772C196.407 52.7772 196.407 52.7772 196.407 52.7772C196.407 52.7772 196.407 52.7772 196.407 52.7772C196.407 52.7772 196.407 52.7772 196.407 52.7772C196.407 52.7772 196.407 52.7772 196.407 52.7772C196.407 52.7772 196.407 52.7772 196.407 52.7772C196.407 52.7772 196.407 52.7772 196.407 52.7772C196.407 52.7772 196.407 52.7772 196.407 52.7772C196.407 52.7772 196.407 52.7772 196.407 52.7772C196.407 52.7772 196.407 52.7772 196.407 52.7772C196.407 52.7772 196.407 52.7772 196.407 52.7772C196.407 52.7772 196.407 52.7772 196.407 52.7772C196.407 52.7772 196.407 52.7772 196.407 52.7772C196.407 52.7772 196.407 52.7772 196.407 52.7772C196.407 52.7772 196.407 52.7772 196.407 52.7772C196.407 52.7772 196.407 52.7772 196.407 52.7772C196.407 52.7772 196.407 52.7772 196.407 52.7772C196.407 52.7772 196.407 52.7772 196.407 52.7772C196.407 52.7772 196.407 52.7772 196.407 52.7772C196.407 52.7772 196.407 52.7772 196.407 52.7772C196.407 52.7772 196.407 52.7772 196.407 52.7772C196.407 52.7772 196.407 52.7772 196.407 52.7772V47.0044C196.407 47.0044 196.407 47.0044 196.407 47.0044C196.407 47.0044 196.407 47.0044 196.407 47.0044C196.407 47.0044 196.407 47.0044 196.407 47.0044C196.407 47.0044 196.407 47.0044 196.407 47.0044C196.407 47.0044 196.407 47.0044 196.407 47.0044C196.407 47.0044 196.407 47.0044 196.407 47.0044C196.407 47.0044 196.407 47.0044 196.407 47.0044C196.407 47.0044 196.407 47.0044 196.407 47.0044C196.407 47.0044 196.407 47.0044 196.407 47.0044C196.407 47.0044 196.407 47.0044 196.407 47.0044C196.407 47.0044 196.407 47.0044 196.407 47.0044C196.407 47.0044 196.407 47.0044 196.407 47.0044C196.407 47.0044 196.407 47.0044 196.407 47.0044C196.407 47.0044 196.407 47.0044 196.407 47.0044C196.407 47.0044 196.407 47.0044 196.407 47.0044C196.407 47.0044 196.407 47.0044 196.407 47.0044C196.407 47.0044 196.407 47.0044 196.407 47.0044C196.407 47.0044 196.407 47.0044 196.407 47.0044C196.407 47.0044 196.407 47.0044 196.407 47.0044C196.407 47.0044 196.407 47.0044 196.407 47.0044C196.407 47.0044 196.407 47.0044 196.407 47.0044C196.407 47.0044 196.407 47.0044 196.407 47.0044C196.407 47.0044 196.407 47.0044 196.407 47.0044C196.407 47.0044 196.407 47.0044 196.407 47.0044C196.407 47.0044 196.407 47.0044 196.407 47.0044C196.407 47.0044 196.407 47.0044 196.407 47.0044C196.407 47.0044 196.407 47.0044 196.407 47.0044C196.407 47.0044 196.407 47.0044 196.407 47.0044C196.407 47.0044 196.407 47.0044 196.407 47.0044C196.407 47.0044 196.407 47.0044 196.407 47.0044C196.407 47.0044 196.407 47.0044 196.407 47.0044C196.407 47.0044 196.407 47.0044 196.407 47.0044C196.407 47.0044 196.407 47.0044 196.407 47.0044C196.407 47.0044 196.407 47.0044 196.407 47.0044C196.407 47.0044 196.407 47.0044 196.407 47.0044C196.407 47.0044 196.407 47.0044 196.407 47.0044C196.407 47.0044 196.407 47.0044 196.407 47.0044C196.407 47.0044 196.407 47.0044 196.407 47.0044C196.407 47.0044 196.407 47.0044 196.407 47.0044C196.407 47.0044 196.407 47.0044 196.407 47.0044C196.407 47.0044 196.407 47.0044 196.407 47.0044C196.407 47.0044 196.407 47.0044 196.407 47.0044C196.407 47.0044 196.407 47.0044 196.407 47.0044C196.407 47.0044 196.407 47.0044 196.407 47.0044C196.407 47.0044 196.407 47.0044 196.407 47.0044C196.407 47.0044 196.407 47.0044 196.407 47.0044C196.407 47.0044 196.407 47.0044 196.407 47.0044C196.407 47.0044 196.407 47.0044 196.407 47.0044C196.407 47.0044 196.407 47.0044 196.407 47.0044C196.407 47.0044 196.407 47.0044 196.407 47.0044C196.407 47.0044 196.407 47.0044 196.407 47.0044C196.407 47.0044 196.407 47.0044 196.407 47.0044C196.407 47.0044 196.407 47.0044 196.407 47.0044C196.407 47.0044 196.407 47.0044 196.407 47.0044C196.407 47.0044 196.407 47.0044 196.407 47.0044C196.407 47.0044 196.407 47.0044 196.407 47.0044C196.407 47.0044 196.407 47.0044 196.407 47.0044C196.407 47.0044 196.407 47.0044 196.407 47.0044C196.407 47.0044 196.407 47.0044 196.407 47.0044C196.407 47.0044 196.407 47.0044 196.407 47.0044C196.407 47.0044 196.407 47.0044 196.407 47.0044C196.407 47.0044 196.407 47.0044 196.407 47.0044C196.407 47.0044 196.407 47.0044 196.407 47.0044C196.407 47.0044 196.407 47.0044 196.407 47.0044C196.407 47.0044 196.407 47.0044 196.407 47.0044C196.407 47.0044 196.407 47.0044 196.407 47.0044C196.407 47.0044 196.407 47.0044 196.407 47.0044C196.407 47.0044 196.407 47.0044 196.407 47.0044C196.407 47.0044 196.407 47.0044 196.407 47.0044C196.407 47.0044 196.407 47.0044 196.407 47.0044C196.407 47.0044 196.407 47.0044 196.407 47.0044C196.407 47.0044 196.407 47.0044 196.407 47.0044C196.407 47.0044 196.407 47.0044 196.407 47.0044C196.407 47.0044 196.407 47.0044 196.407 47.0044C196.407 47.0044 196.407 47.0044 196.407 47.0044C196.407 47.0044 196.407 47.0044 196.407 47.0044C196.407 47.0044 196.407 47.0044 196.407 47.0044C196.407 47.0044 196.407 47.0044 196.407 47.0044C196.407 47.0044 196.407 47.0044 196.407 47.0044C196.407 47.0044 196.407 47.0044 196.407 47.0044C196.407 47.0044 196.407 47.0044 196.407 47.0044C196.407 47.0044 196.407 47.0044 196.407 47.0044C196.407 47.0044 196.407 47.0044 196.407 47.0044C196.407 47.0044 196.407 47.0044 196.407 47.0044C196.407 47.0044 196.407 47.0044 196.407 47.0044C196.407 47.0044 196.407 47.0044 196.407 47.0044C196.407 47.0044 196.407 47.0044 196.407 47.0044C196.407 47.0044 196.407 47.0044 196.407 47.0044C196.407 47.0044 196.407 47.0044 196.407 47.0044C196.407 47.0044 196.407 47.0044 196.407 47.0044C196.407 47.0044 196.407 47.0044 196.407 47.0044C196.407 47.0044 196.407 47.0044 196.407 47.0044C196.407 47.0044 196.407 47.0044 196.407 47.0044C196.407 47.0044 196.407 47.0044 196.407 47.0044C196.407 47.0044 196.407 47.0044 196.407 47.0044C196.407 47.0044 196.407 47.0044 196.407 47.0044C196.407 47.0044 196.407 47.0044 196.407 47.0044C196.407 47.0044 196.407 47.0044 196.407 47.0044C196.407 47.0044 196.407 47.0044 196.407 47.0044C196.407 47.0044 196.407 47.0044 196.407 47.0044C196.407 47.0044 196.407 47.0044 196.407 47.0044C196.407 47.0044 196.407 47.0044 196.407 47.0044C196.407 47.0044 196.407 47.0044 196.407 47.0044C196.407 47.0044 196.407 47.0044 196.407 47.0044C196.407 47.0044 196.407 47.0044 196.407 47.0044C196.407 47.0044 196.407 47.0044 196.407 47.0044C196.407 47.0044 196.407 47.0044 196.407 47.0044C196.407 47.0044 196.407 47.0044 196.407 47.0044C196.407 47.0044 196.407 47.0044 196.407 47.0044C196.407 47.0044 196.407 47.0044 196.407 47.0044C196.407 47.0044 196.407 47.0044 196.407 47.0044C196.407 47.0044 196.407 47.0044 196.407 47.0044C196.407 47.0044 196.407 47.0044 196.407 47.0044C196.407 47.0044 196.407 47.0044 196.407 47.0044C196.407 47.0044 196.407 47.0044 196.407 47.0044C196.407 47.0044 196.407 47.0044 196.407 47.0044C196.407 47.0044 196.407 47.0044 196.407 47.0044C196.407 47.0044 196.407 47.0044 196.407 47.0044C196.407 47.0044 196.407 47.0044 196.407 47.0044C196.407 47.0044 196.407 47.0044 196.407 47.0044C196.407 47.0044 196.407 47.0044 196.407 47.0044C196.407 47.0044 196.407 47.0044 196.407 47.0044C196.407 47.0044 196.407 47.0044 196.407 47.0044C196.407 47.0044 196.407 47.0044 196.407 47.0044C196.407 47.0044 196.407 47.0044 196.407 47.0044C196.407 47.0044 196.407 47.0044 196.407 47.0044C196.407 47.0044 196.407 47.0044 196.407 47.0044C196.407 47.0044 196.407 47.0044 196.407 47.0044C196.407 47.0044 196.407 47.0044 196.407 47.0044C196.407 47.0044 196.407 47.0044 196.407 47.0044C196.407 47.0044 196.407 47.0044 196.407 47.0044C196.407 47.0044 196.407 47.0044 196.407 47.0044C196.407 47.0044 196.407 47.0044 196.407 47.0044C196.407 47.0044 196.407 47.0044 196.407 47.0044C196.407 47.0044 196.407 47.0044 196.407 47.0044C196.407 47.0044 196.407 47.0044 196.407 47.0044C196.407 47.0044 196.407 47.0044 196.407 47.0044C196.407 47.0044 196.407 47.0044 196.407 47.0044C196.407 47.0044 196.407 47.0044 196.407 47.0044C196.407 47.0044 196.407 47.0044 196.407 47.0044C196.407 47.0044 196.407 47.0044 196.407 47.0044C196.407 47.0044 196.407 47.0044 196.407 47.0044C196.407 47.0044 196.407 47.0044 196.407 47.0044C196.407 47.0044 196.407 47.0044 196.407 47.0044C196.407 47.0044 196.407 47.0044 196.407 47.0044C196.407 47.0044 196.407 47.0044 196.407 47.0044C196.407 47.0044 196.407 47.0044 196.407 47.0044C196.407 47.0044 196.407 47.0044 196.407 47.0044C196.407 47.0044 196.407 47.0044 196.407 47.0044C196.407 47.0044 196.407 47.0044 196.407 47.0044C196.407 47.0044 196.407 47.0044 196.407 47.0044C196.407 47.0044 196.407 47.0044 196.407 47.0044C196.407 47.0044 196.407 47.0044 196.407 47.0044C196.407 47.0044 196.407 47.0044 196.407 47.0044C196.407 47.0044 196.407 47.0044 196.407 47.0044C196.407 47.0044 196.407 47.0044 196.407 47.0044C196.407 47.0044 196.407 47.0044 196.407 47.0044C196.407 47.0044 196.407 47.0044 196.407 47.0044C196.407 47.0044 196.407 47.0044 196.407 47.0044C196.407 47.0044 196.407 47.0044 196.407 47.0044C196.407 47.0044 196.407 47.0044 196.407 47.0044C196.407 47.0044 196.407 47.0044 196.407 47.0044C196.407 47.0044 196.407 47.0044 196.407 47.0044C196.407 47.0044 196.407 47.0044 196.407 47.0044C196.407 47.0044 196.407 47.0044 196.407 47.0044C196.407 47.0044 196.407 47.0044 196.407 47.0044C196.407 47.0044 196.407 47.0044 196.407 47.0044C196.407 47.0044 196.407 47.0044 196.407 47.0044C196.407 47.0044 196.407 47.0044 196.407 47.0044C196.407 47.0044 196.407 47.0044 196.407 47.0044C196.407 47.0044 196.407 47.0044 196.407 47.0044C196.407 47.0044 196.407 47.0044 196.407 47.0044C196.407 47.0044 196.407 47.0044 196.407 47.0044C196.407 47.0044 196.407 47.0044 196.407 47.0044C196.407 47.0044 196.407 47.0044 196.407 47.0044C196.407 47.0044 196.407 47.0044 196.407 47.0044C196.407 47.0044 196.407 47.0044 196.407 47.0044C196.407 47.0044 196.407 47.0044 196.407 47.0044C196.407 47.0044 196.407 47.0044 196.407 47.0044C196.407 47.0044 196.407 47.0044 196.407 47.0044C196.407 47.0044 196.407 47.0044 196.407 47.0044C196.407 47.0044 196.407 47.0044 196.407 47.0044C196.407 47.0044 196.407 47.0044 196.407 47.0044C196.407 47.0044 196.407 47.0044 196.407 47.0044C196.407 47.0044 196.407 47.0044 196.407 47.0044C196.407 47.0044 196.407 47.0044 196.407 47.0044C196.407 47.0044 196.407 47.0044 196.407 47.0044C196.407 47.0044 196.407 47.0044 196.407 47.0044C196.407 47.0044 196.407 47.0044 196.407 47.0044C196.407 47.0044 196.407 47.0044 196.407 47.0044C196.407 47.0044 196.407 47.0044 196.407 47.0044C196.407 47.0044 196.407 47.0044 196.407 47.0044C196.407 47.0044 196.407 47.0044 196.407 47.0044C196.407 47.0044 196.407 47.0044 196.407 47.0044C196.407 47.0044 196.407 47.0044 196.407 47.0044C196.407 47.0044 196.407 47.0044 196.407 47.0044C196.407 47.0044 196.407 47.0044 196.407 47.0044C196.407 47.0044 196.407 47.0044 196.407 47.0044C196.407 47.0044 196.407 47.0044 196.407 47.0044C196.407 47.0044 196.407 47.0044 196.407 47.0044C196.407 47.0044 196.407 47.0044 196.407 47.0044C196.407 47.0044 196.407 47.0044 196.407 47.0044C196.407 47.0044 196.407 47.0044 196.407 47.0044C196.407 47.0044 196.407 47.0044 196.407 47.0044C196.407 47.0044 196.407 47.0044 196.407 47.0044C196.407 47.0044 196.407 47.0044 196.407 47.0044C196.407 47.0044 196.407 47.0044 196.407 47.0044C196.407 47.0044 196.407 47.0044 196.407 47.0044C196.407 47.0044 196.407 47.0044 196.407 47.0044C196.407 47.0044 196.407 47.0044 196.407 47.0044C196.407 47.0044 196.407 47.0044 196.407 47.0044C196.407 47.0044 196.407 47.0044 196.407 47.0044C196.407 47.0044 196.407 47.0044 196.407 47.0044C196.407 47.0044 196.407 47.0044 196.407 47.0044C196.407 47.0044 196.407 47.0044 196.407 47.0044C196.407 47.0044 196.407 47.0044 196.407 47.0044C196.407 47.0044 196.407 47.0044 196.407 47.0044C196.407 47.0044 196.407 47.0044 196.407 47.0044C196.407 47.0044 196.407 47.0044 196.407 47.0044C196.407 47.0044 196.407 47.0044 196.407 47.0044C196.407 47.0044 196.407 47.0044 196.407 47.0044C196.407 47.0044 196.407 47.0044 196.407 47.0044C196.407 47.0044 196.407 47.0044 196.407 47.0044C196.407 47.0044 196.407 47.0044 196.407 47.0044C196.407 47.0044 196.407 47.0044 196.407 47.0044C196.407 47.0044 196.407 47.0044 196.407 47.0044C196.407 47.0044 196.407 47.0044 196.407 47.0044C196.407 47.0044 196.407 47.0044 196.407 47.0044C196.407 47.0044 196.407 47.0044 196.407 47.0044C196.407 47.0044 196.407 47.0044 196.407 47.0044C196.407 47.0044 196.407 47.0044 196.407 47.0044C196.407 47.0044 196.407 47.0044 196.407 47.0044C196.407 47.0044 196.407 47.0044 196.407 47.0044C196.407 47.0044 196.407 47.0044 196.407 47.0044C196.407 47.0044 196.407 47.0044 196.407 47.0044C196.407 47.0044 196.407 47.0044 196.407 47.0044C196.407 47.0044 196.407 47.0044 196.407 47.0044C196.407 47.0044 196.407 47.0044 196.407 47.0044C196.407 47.0044 196.407 47.0044 196.407 47.0044C196.407 47.0044 196.407 47.0044 196.407 47.0044C196.407 47.0044 196.407 47.0044 196.407 47.0044C196.407 47.0044 196.407 47.0044 196.407 47.0044C196.407 47.0044 196.407 47.0044 196.407 47.0044C196.407 47.0044 196.407 47.0044 196.407 47.0044C196.407 47.0044 196.407 47.0044 196.407 47.0044C196.407 47.0044 196.407 47.0044 196.407 47.0044C196.407 47.0044 196.407 47.0044 196.407 47.0044C196.407 47.0044 196.407 47.0044 196.407 47.0044C196.407 47.0044 196.407 47.0044 196.407 47.0044C196.407 47.0044 196.407 47.0044 196.407 47.0044C196.407 47.0044 196.407 47.0044 196.407 47.0044C196.407 47.0044 196.407 47.0044 196.407 47.0044C196.407 47.0044 196.407 47.0044 196.407 47.0044C196.407 47.0044 196.407 47.0044 196.407 47.0044C196.407 47.0044 196.407 47.0044 196.407 47.0044C196.407 47.0044 196.407 47.0044 196.407 47.0044C196.407 47.0044 196.407 47.0044 196.407 47.0044C196.407 47.0044 196.407 47.0044 196.407 47.0044C196.407 47.0044 196.407 47.0044 196.407 47.0044C196.407 47.0044 196.407 47.0044 196.407 47.0044C196.407 47.0044 196.407 47.0044 196.407 47.0044C196.407 47.0044 196.407 47.0044 196.407 47.0044C196.407 47.0044 196.407 47.0044 196.407 47.0044C196.407 47.0044 196.407 47.0044 196.407 47.0044C196.407 47.0044 196.407 47.0044 196.407 47.0044C196.407 47.0044 196.407 47.0044 196.407 47.0044C196.407 47.0044 196.407 47.0044 196.407 47.0044C196.407 47.0044 196.407 47.0044 196.407 47.0044C196.407 47.0044 196.407 47.0044 196.407 47.0044C196.407 47.0044 196.407 47.0044 196.407 47.0044C196.407 47.0044 196.407 47.0044 196.407 47.0044C196.407 47.0044 196.407 47.0044 196.407 47.0044C196.407 47.0044 196.407 47.0044 196.407 47.0044C196.407 47.0044 196.407 47.0044 196.407 47.0044C196.407 47.0044 196.407 47.0044 196.407 47.0044C196.407 47.0044 196.407 47.0044 196.407 47.0044C196.407 47.0044 196.407 47.0044 196.407 47.0044C196.407 47.0044 196.407 47.0044 196.407 47.0044C196.407 47.0044 196.407 47.0044 196.407 47.0044C196.407 47.0044 196.407 47.0044 196.407 47.0044C196.407 47.0044 196.407 47.0044 196.407 47.0044C196.407 47.0044 196.407 47.0044 196.407 47.0044C196.407 47.0044 196.407 47.0044 196.407 47.0044C196.407 47.0044 196.407 47.0044 196.407 47.0044C196.407 47.0044 196.407 47.0044 196.407 47.0044C196.407 47.0044 196.407 47.0044 196.407 47.0044C196.407 47.0044 196.407 47.0044 196.407 47.0044C196.407 47.0044 196.407 47.0044 196.407 47.0044C196.407 47.0044 196.407 47.0044 196.407 47.0044C196.407 47.0044 196.407 47.0044 196.407 47.0044C196.407 47.0044 196.407 47.0044 196.407 47.0044C196.407 47.0044 196.407 47.0044 196.407 47.0044C196.407 47.0044 196.407 47.0044 196.407 47.0044C196.407 47.0044 196.407 47.0044 196.407 47.0044C196.407 47.0044 196.407 47.0044 196.407 47.0044C196.407 47.0044 196.407 47.0044 196.407 47.0044C196.407 47.0044 196.407 47.0044 196.407 47.0044C196.407 47.0044 196.407 47.0044 196.407 47.0044C196.407 47.0044 196.407 47.0044 196.407 47.0044C196.407 47.0044 196.407 47.0044 196.407 47.0044C196.407 47.0044 196.407 47.0044 196.407 47.0044C196.407 47.0044 196.407 47.0044 196.407 47.0044C196.407 47.0044 196.407 47.0044 196.407 47.0044C196.407 47.0044 196.407 47.0044 196.407 47.0044C196.407 47.0044 196.407 47.0044 196.407 47.0044C196.407 47.0044 196.407 47.0044 196.407 47.0044C196.407 47.0044 196.407 47.0044 196.407 47.0044C196.407 47.0044 196.407 47.0044 196.407 47.0044C196.407 47.0044 196.407 47.0044 196.407 47.0044C196.407 47.0044 196.407 47.0044 196.407 47.0044C196.407 47.0044 196.407 47.0044 196.407 47.0044C196.407 47.0044 196.407 47.0044 196.407 47.0044C196.407 47.0044 196.407 47.0044 196.407 47.0044C196.407 47.0044 196.407 47.0044 196.407 47.0044C196.407 47.0044 196.407 47.0044 196.407 47.0044C196.407 47.0044 196.407 47.0044 196.407 47.0044C196.407 47.0044 196.407 47.0044 196.407 47.0044C196.407 47.0044 196.407 47.0044 196.407 47.0044C196.407 47.0044 196.407 47.0044 196.407 47.0044C196.407 47.0044 196.407 47.0044 196.407 47.0044C196.407 47.0044 196.407 47.0044 196.407 47.0044C196.407 47.0044 196.407 47.0044 196.407 47.0044C196.407 47.0044 196.407 47.0044 196.407 47.0044C196.407 47.0044 196.407 47.0044 196.407 47.0044C196.407 47.0044 196.407 47.0044 196.407 47.0044C196.407 47.0044 196.407 47.0044 196.407 47.0044C196.407 47.0044 196.407 47.0044 196.407 47.0044C196.407 47.0044 196.407 47.0044 196.407 47.0044C196.407 47.0044 196.407 47.0044 196.407 47.0044C196.407 47.0044 196.407 47.0044 196.407 47.0044C196.407 47.0044 196.407 47.0044 196.407 47.0044C196.407 47.0044 196.407 47.0044 196.407 47.0044C196.407 47.0044 196.407 47.0044 196.407 47.0044C196.407 47.0044 196.407 47.0044 196.407 47.0044C196.407 47.0044 196.407 47.0044 196.407 47.0044C196.407 47.0044 196.407 47.0044 196.407 47.0044C196.407 47.0044 196.407 47.0044 196.407 47.0044C196.407 47.0044 196.407 47.0044 196.407 47.0044C196.407 47.0044 196.407 47.0044 196.407 47.0044C196.407 47.0044 196.407 47.0044 196.407 47.0044C196.407 47.0044 196.407 47.0044 196.407 47.0044C196.407 47.0044 196.407 47.0044 196.407 47.0044C196.407 47.0044 196.407 47.0044 196.407 47.0044C196.407 47.0044 196.407 47.0044 196.407 47.0044C196.407 47.0044 196.407 47.0044 196.407 47.0044C196.407 47.0044 196.407 47.0044 196.407 47.0044C196.407 47.0044 196.407 47.0044 196.407 47.0044C196.407 47.0044 196.407 47.0044 196.407 47.0044C196.407 47.0044 196.407 47.0044 196.407 47.0044C196.407 47.0044 196.407 47.0044 196.407 47.0044C196.407 47.0044 196.407 47.0044 196.407 47.0044C196.407 47.0044 196.407 47.0044 196.407 47.0044C196.407 47.0044 196.407 47.0044 196.407 47.0044C196.407 47.0044 196.407 47.0044 196.407 47.0044C196.407 47.0044 196.407 47.0044 196.407 47.0044C196.407 47.0044 196.407 47.0044 196.407 47.0044C196.407 47.0044 196.407 47.0044 196.407 47.0044C196.407 47.0044 196.407 47.0044 196.407 47.0044C196.407 47.0044 196.407 47.0044 196.407 47.0044C196.407 47.0044 196.407 47.0044 196.407 47.0044C196.407 47.0044 196.407 47.0044 196.407 47.0044C196.407 47.0044 196.407 47.0044 196.407 47.0044C196.407 47.0044 196.407 47.0044 196.407 47.0044C196.407 47.0044 196.407 47.0044 196.407 47.0044C196.407 47.0044 196.407 47.0044 196.407 47.0044C196.407 47.0044 196.407 47.0044 196.407 47.0044C196.407 47.0044 196.407 47.0044 196.407 47.0044C196.407 47.0044 196.407 47.0044 196.407 47.0044C196.407 47.0044 196.407 47.0044 196.407 47.0044C196.407 47.0044 196.407 47.0044 196.407 47.0044C196.407 47.0044 196.407 47.0044 196.407 47.0044C196.407 47.0044 196.407 47.0044 196.407 47.0044C196.407 47.0044 196.407 47.0044 196.407 47.0044C196.407 47.0044 196.407 47.0044 196.407 47.0044C196.407 47.0044 196.407 47.0044 196.407 47.0044C196.407 47.0044 196.407 47.0044 196.407 47.0044C196.407 47.0044 196.407 47.0044 196.407 47.0044C196.407 47.0044 196.407 47.0044 196.407 47.0044C196.407 47.0044 196.407 47.0044 196.407 47.0044C196.407 47.0044 196.407 47.0044 196.407 47.0044C196.407 47.0044 196.407 47.0044 196.407 47.0044C196.407 47.0044 196.407 47.0044 196.407 47.0044C196.407 47.0044 196.407 47.0044 196.407 47.0044C196.407 47.0044 196.407 47.0044 196.407 47.0044C196.407 47.0044 196.407 47.0044 196.407 47.0044C196.407 47.0044 196.407 47.0044 196.407 47.0044C196.407 47.0044 196.407 47.0044 196.407 47.0044C196.407 47.0044 196.407 47.0044 196.407 47.0044C196.407 47.0044 196.407 47.0044 196.407 47.0044C196.407 47.0044 196.407 47.0044 196.407 47.0044C196.407 47.0044 196.407 47.0044 196.407 47.0044C196.407 47.0044 196.407 47.0044 196.407 47.0044C196.407 47.0044 196.407 47.0044 196.407 47.0044C196.407 47.0044 196.407 47.0044 196.407 47.0044C196.407 47.0044 196.407 47.0044 196.407 47.0044C196.407 47.0044 196.407 47.0044 196.407 47.0044C196.407 47.0044 196.407 47.0044 196.407 47.0044C196.407 47.0044 196.407 47.0044 196.407 47.0044C196.407 47.0044 196.407 47.0044 196.407 47.0044C196.407 47.0044 196.407 47.0044 196.407 47.0044C196.407 47.0044 196.407 47.0044 196.407 47.0044C196.407 47.0044 196.407 47.0044 196.407 47.0044C196.407 47.0044 196.407 47.0044 196.407 47.0044C196.407 47.0044 196.407 47.0044 196.407 47.0044C196.407 47.0044 196.407 47.0044 196.407 47.0044C196.407 47.0044 196.407 47.0044 196.407 47.0044C196.407 47.0044 196.407 47.0044 196.407 47.0044C196.407 47.0044 196.407 47.0044 196.407 47.0044C196.407 47.0044 196.407 47.0044 196.407 47.0044C196.407 47.0044 196.407 47.0044 196.407 47.0044C196.407 47.0044 196.407 47.0044 196.407 47.0044C196.407 47.0044 196.407 47.0044 196.407 47.0044C196.407 47.0044 196.407 47.0044 196.407 47.0044C196.407 47.0044 196.407 47.0044 196.407 47.0044C196.407 47.0044 196.407 47.0044 196.407 47.0044C196.407 47.0044 196.407 47.0044 196.407 47.0044C196.407 47.0044 196.407 47.0044 196.407 47.0044C196.407 47.0044 196.407 47.0044 196.407 47.0044C196.407 47.0044 196.407 47.0044 196.407 47.0044C196.407 47.0044 196.407 47.0044 196.407 47.0044C196.407 47.0044 196.407 47.0044 196.407 47.0044C196.407 47.0044 196.407 47.0044 196.407 47.0044C196.407 47.0044 196.407 47.0044 196.407 47.0044C196.407 47.0044 196.407 47.0044 196.407 47.0044C196.407 47.0044 196.407 47.0044 196.407 47.0044C196.407 47.0044 196.407 47.0044 196.407 47.0044C196.407 47.0044 196.407 47.0044 196.407 47.0044C196.407 47.0044 196.407 47.0044 196.407 47.0044C196.407 47.0044 196.407 47.0044 196.407 47.0044C196.407 47.0044 196.407 47.0044 196.407 47.0044C196.407 47.0044 196.407 47.0044 196.407 47.0044C196.407 47.0044 196.407 47.0044 196.407 47.0044C196.407 47.0044 196.407 47.0044 196.407 47.0044C196.407 47.0044 196.407 47.0044 196.407 47.0044C196.407 47.0044 196.407 47.0044 196.407 47.0044C196.407 47.0044 196.407 47.0044 196.407 47.0044C196.407 47.0044 196.407 47.0044 196.407 47.0044C196.407 47.0044 196.407 47.0044 196.407 47.0044C196.407 47.0044 196.407 47.0044 196.407 47.0044C196.407 47.0044 196.407 47.0044 196.407 47.0044C196.407 47.0044 196.407 47.0044 196.407 47.0044C196.407 47.0044 196.407 47.0044 196.407 47.0044C196.407 47.0044 196.407 47.0044 196.407 47.0044C196.407 47.0044 196.407 47.0044 196.407 47.0044C196.407 47.0044 196.407 47.0044 196.407 47.0044C196.407 47.0044 196.407 47.0044 196.407 47.0044C196.407 47.0044 196.407 47.0044 196.407 47.0044C196.407 47.0044 196.407 47.0044 196.407 47.0044C196.407 47.0044 196.407 47.0044 196.407 47.0044C196.407 47.0044 196.407 47.0044 196.407 47.0044C196.407 47.0044 196.407 47.0044 196.407 47.0044C196.407 47.0044 196.407 47.0044 196.407 47.0044C196.407 47.0044 196.407 47.0044 196.407 47.0044C196.407 47.0044 196.407 47.0044 196.407 47.0044C196.407 47.0044 196.407 47.0044 196.407 47.0044C196.407 47.0044 196.407 47.0044 196.407 47.0044C196.407 47.0044 196.407 47.0044 196.407 47.0044C196.407 47.0044 196.407 47.0044 196.407 47.0044C196.407 47.0044 196.407 47.0044 196.407 47.0044C196.407 47.0044 196.407 47.0044 196.407 47.0044C196.407 47.0044 196.407 47.0044 196.407 47.0044C196.407 47.0044 196.407 47.0044 196.407 47.0044C196.407 47.0044 196.407 47.0044 196.407 47.0044C196.407 47.0044 196.407 47.0044 196.407 47.0044C196.407 47.0044 196.407 47.0044 196.407 47.0044C196.407 47.0044 196.407 47.0044 196.407 47.0044C196.407 47.0044 196.407 47.0044 196.407 47.0044C196.407 47.0044 196.407 47.0044 196.407 47.0044C196.407 47.0044 196.407 47.0044 196.407 47.0044C196.407 47.0044 196.407 47.0044 196.407 47.0044C196.407 47.0044 196.407 47.0044 196.407 47.0044C196.407 47.0044 196.407 47.0044 196.407 47.0044C196.407 47.0044 196.407 47.0044 196.407 47.0044C196.407 47.0044 196.407 47.0044 196.407 47.0044C196.407 47.0044 196.407 47.0044 196.407 47.0044C196.407 47.0044 196.407 47.0044 196.407 47.0044C196.407 47.0044 196.407 47.0044 196.407 47.0044C196.407 47.0044 196.407 47.0044 196.407 47.0044C196.407 47.0044 196.407 47.0044 196.407 47.0044C196.407 47.0044 196.407 47.0044 196.407 47.0044C196.407 47.0044 196.407 47.0044 196.407 47.0044C196.407 47.0044 196.407 47.0044 196.407 47.0044C196.407 47.0044 196.407 47.0044 196.407 47.0044C196.407 47.0044 196.407 47.0044 196.407 47.0044C196.407 47.0044 196.407 47.0044 196.407 47.0044C196.407 47.0044 196.407 47.0044 196.407 47.0044C196.407 47.0044 196.407 47.0044 196.407 47.0044C196.407 47.0044 196.407 47.0044 196.407 47.0044C196.407 47.0044 196.407 47.0044 196.407 47.0044C196.407 47.0044 196.407 47.0044 196.407 47.0044C196.407 47.0044 196.407 47.0044 196.407 47.0044C196.407 47.0044 196.407 47.0044 196.407 47.0044C196.407 47.0044 196.407 47.0044 196.407 47.0044C196.407 47.0044 196.407 47.0044 196.407 47.0044C196.407 47.0044 196.407 47.0044 196.407 47.0044C196.407 47.0044 196.407 47.0044 196.407 47.0044C196.407 47.0044 196.407 47.0044 196.407 47.0044C196.407 47.0044 196.407 47.0044 196.407 47.0044C196.407 47.0044 196.407 47.0044 196.407 47.0044C196.407 47.0044 196.407 47.0044 196.407 47.0044C196.407 47.0044 196.407 47.0044 196.407 47.0044C196.407 47.0044 196.407 47.0044 196.407 47.0044C196.407 47.0044 196.407 47.0044 196.407 47.0044C196.407 47.0044 196.407 47.0044 196.407 47.0044C196.407 47.0044 196.407 47.0044 196.407 47.0044C196.407 47.0044 196.407 47.0044 196.407 47.0044C196.407 47.0044 196.407 47.0044 196.407 47.0044C196.407 47.0044 196.407 47.0044 196.407 47.0044C196.407 47.0044 196.407 47.0044 196.407 47.0044C196.407 47.0044 196.407 47.0044 196.407 47.0044C196.407 47.0044 196.407 47.0044 196.407 47.0044C196.407 47.0044 196.407 47.0044 196.407 47.0044V52.7772ZM190.287 44.9358C191.579 45.6471 192.327 46.2852 192.778 46.9451C193.198 47.5585 193.521 48.4219 193.521 49.8908H199.293C199.293 47.4952 198.742 45.437 197.542 43.6847C196.375 41.979 194.759 40.8075 193.07 39.8783L190.287 44.9358ZM177.972 24.113C177.972 33.0896 182.952 40.8989 190.287 44.9358L193.07 39.8783C187.505 36.8153 183.745 30.9013 183.745 24.113H177.972ZM184.868 7.37746C180.609 11.6681 177.972 17.5854 177.972 24.113H183.745C183.745 19.1702 185.735 14.698 188.965 11.4447L184.868 7.37746ZM201.726 0.358783C195.136 0.358783 189.169 3.04605 184.868 7.37746L188.965 11.4447C192.226 8.16017 196.736 6.13161 201.726 6.13161V0.358783ZM213.297 3.36339C209.871 1.44886 205.921 0.358783 201.726 0.358783V6.13161C204.911 6.13161 207.893 6.95685 210.482 8.40298L213.297 3.36339ZM214.242 3.81985C213.882 3.64238 213.509 3.45863 213.138 3.28074L210.641 8.48563C210.979 8.64795 211.324 8.81792 211.689 8.99787L214.242 3.81985ZM220.276 5.89207C218.572 5.89207 216.72 5.04117 214.242 3.81985L211.689 8.99787C213.865 10.0703 216.975 11.6649 220.276 11.6649V5.89207ZM226.881 3.88456C224.076 5.06189 221.977 5.89207 220.276 5.89207V11.6649C223.382 11.6649 226.655 10.2403 229.115 9.20753L226.881 3.88456ZM226.796 3.92209L226.796 3.92211L229.201 9.16998L229.201 9.16997L226.796 3.92209ZM231.69 2.08826C230.057 2.54716 228.372 3.25897 226.881 3.88455L229.115 9.20751C230.687 8.548 232.027 7.98983 233.251 7.64595L231.69 2.08826ZM240.551 0.358702C237.295 0.358702 234.185 1.01537 231.352 2.20621L233.589 7.528C235.727 6.62952 238.077 6.13153 240.551 6.13153V0.358702ZM257.409 7.37738C253.109 3.04597 247.141 0.358702 240.551 0.358702V6.13153C245.541 6.13153 250.051 8.16009 253.312 11.4446L257.409 7.37738ZM264.305 24.1129C264.305 17.5853 261.669 11.668 257.409 7.37738L253.312 11.4446C256.542 14.6979 258.532 19.1702 258.532 24.1129H264.305Z" fill="#141E36"/>
</svg>
