<svg width="428" height="212" viewBox="0 0 428 212" fill="none" xmlns="http://www.w3.org/2000/svg">
<text fill="#C2B59B" xml:space="preserve" style="white-space: pre" font-family="Barlow" font-size="34.637" font-weight="500" letter-spacing="0em"><tspan x="149.815" y="177.193">rakovina</tspan></text>
<path fill-rule="evenodd" clip-rule="evenodd" d="M193.157 61.9755C191.397 69.4736 186.387 78.0654 181.99 84.2309L193.902 100.405L189.208 103.926L178.647 89.5869L166.953 109.809L161.976 107.053L174.85 84.7904C174.713 84.5251 174.578 84.2626 174.443 84.0029L174.443 84.0013C174.012 83.1674 173.596 82.3622 173.196 81.5853C169.715 75.7451 166.27 68.4523 165.194 61.9755C164.513 57.8795 164.677 53.4983 167.102 50.0649C169.636 46.4757 174 44.7793 179.764 44.7793C185.529 44.7793 189.777 46.4757 192.065 50.0649C194.254 53.4983 194.118 57.8795 193.157 61.9755ZM178.38 78.8354C180.206 75.9686 181.641 73.5645 182.703 71.5476C184.299 68.5159 184.842 66.7415 184.875 65.768C184.882 65.5604 184.863 65.4336 184.847 65.3656C184.832 65.3025 184.817 65.278 184.812 65.2699L184.812 65.2699C184.81 65.2674 184.737 65.1419 184.359 64.9738C183.46 64.5737 181.737 64.3122 178.729 64.3122C175.386 64.3122 173.628 64.5646 172.777 64.9316C172.683 64.9723 172.619 65.0063 172.578 65.031C172.569 65.0976 172.561 65.2128 172.571 65.3929C172.631 66.4561 173.22 68.2896 174.665 71.4087C175.603 73.4329 176.811 75.8175 178.273 78.6564C178.309 78.7162 178.344 78.7759 178.38 78.8354ZM187.162 53.2809C188.07 54.705 188.331 56.9617 187.693 60.1218C187.422 59.9596 187.142 59.8163 186.858 59.6897C184.775 58.7635 181.973 58.5428 178.926 58.5428C175.706 58.5428 172.831 58.7299 170.723 59.6124C170.41 56.7178 170.833 54.6273 171.784 53.2809C172.754 51.9067 174.836 50.5487 179.567 50.5487C184.298 50.5487 186.286 51.9067 187.162 53.2809ZM172.594 64.9567C172.595 64.9569 172.594 64.9598 172.592 64.9653C172.593 64.9593 172.594 64.9566 172.594 64.9567ZM172.526 65.0669C172.52 65.0729 172.516 65.0757 172.516 65.0756C172.516 65.0755 172.519 65.0725 172.526 65.0669Z" fill="#141E36"/>
<path d="M234.467 49.4654L232.066 47.8629L231.067 49.3596L231.971 50.9155L234.467 49.4654ZM184.1 77.6828L186.638 76.3071L184.796 72.9093L182.061 75.6403L184.1 77.6828ZM178.319 83.4556L176.278 85.4961L178.317 87.5366L180.359 85.4981L178.319 83.4556ZM167.928 63.828L165.199 64.7689L165.199 64.7689L167.928 63.828ZM184.755 48.1964L183.829 50.9303L191.241 53.44L187.234 46.7184L184.755 48.1964ZM181.043 38.1175L183.889 37.6353L183.559 35.6896L181.627 35.2907L181.043 38.1175ZM191.495 10.3581L190.069 12.8679L191.784 13.842L193.315 12.5981L191.495 10.3581ZM236.868 51.0679C240.287 45.9456 242.28 39.7877 242.28 33.1731H236.508C236.508 38.6118 234.872 43.6599 232.066 47.8629L236.868 51.0679ZM241.243 63.9458C241.243 58.1454 239.685 52.7002 236.963 48.0152L231.971 50.9155C234.196 54.7434 235.47 59.1914 235.47 63.9458H241.243ZM209.492 95.6964C227.028 95.6964 241.243 81.4811 241.243 63.9458H235.47C235.47 78.2929 223.84 89.9235 209.492 89.9235V95.6964ZM181.563 79.0584C186.932 88.9614 197.423 95.6964 209.492 95.6964V89.9235C199.625 89.9235 191.038 84.4229 186.638 76.3071L181.563 79.0584ZM180.359 85.4981L186.14 79.7252L182.061 75.6403L176.28 81.4131L180.359 85.4981ZM165.199 64.7689C167.702 72.0267 170.397 77.1358 172.507 80.4702C173.561 82.1367 174.468 83.3575 175.13 84.1798C175.461 84.5909 175.73 84.9022 175.925 85.1197C176.023 85.2284 176.102 85.3136 176.161 85.3761C176.191 85.4073 176.216 85.4329 176.235 85.4529C176.245 85.4628 176.253 85.4714 176.26 85.4786C176.264 85.4822 176.267 85.4855 176.27 85.4884C176.271 85.4898 176.273 85.4912 176.274 85.4925C176.275 85.4931 176.276 85.494 176.276 85.4943C176.277 85.4952 176.278 85.4961 178.319 83.4556C180.361 81.4151 180.362 81.4159 180.362 81.4167C180.363 81.417 180.363 81.4177 180.364 81.4182C180.365 81.4191 180.366 81.42 180.366 81.4208C180.368 81.4223 180.369 81.4235 180.37 81.4244C180.372 81.4262 180.372 81.4266 180.371 81.4257C180.369 81.4239 180.362 81.4166 180.35 81.4039C180.326 81.3784 180.282 81.331 180.219 81.2609C180.093 81.1206 179.892 80.8894 179.628 80.5615C179.101 79.9057 178.321 78.8621 177.385 77.3833C175.515 74.4273 173.014 69.7226 170.657 62.887L165.199 64.7689ZM185.68 45.4624C178.462 43.0181 172.096 44.3081 168.09 48.4318C164.141 52.4965 163.105 58.6951 165.199 64.7689L170.657 62.887C169.132 58.4658 170.077 54.6707 172.231 52.4543C174.326 50.297 178.184 49.0187 183.829 50.9303L185.68 45.4624ZM178.197 38.5998C178.873 42.5882 180.281 46.3278 182.275 49.6743L187.234 46.7184C185.597 43.9717 184.443 40.9055 183.889 37.6353L178.197 38.5998ZM181.627 35.2907C176.113 34.1529 171.97 29.2661 171.97 23.4182H166.197C166.197 32.0593 172.318 39.2642 180.46 40.9444L181.627 35.2907ZM171.97 23.4182C171.97 16.7228 177.397 11.2952 184.093 11.2952V5.52238C174.209 5.52238 166.197 13.5346 166.197 23.4182H171.97ZM184.093 11.2952C186.272 11.2952 188.308 11.8675 190.069 12.8679L192.92 7.84825C190.313 6.36717 187.297 5.52238 184.093 5.52238V11.2952ZM210.011 0.904112C202.306 0.904112 195.224 3.60877 189.675 8.11797L193.315 12.5981C197.873 8.89457 203.679 6.67694 210.011 6.67694V0.904112ZM242.28 33.1731C242.28 15.3514 227.833 0.904112 210.011 0.904112V6.67694C224.645 6.67694 236.508 18.5397 236.508 33.1731H242.28Z" fill="#141E36"/>
<path d="M237.191 60.4036C249.041 62.9226 260.69 55.3578 263.209 43.5073C265.728 31.6567 258.164 20.0079 246.313 17.4889C242.865 16.7559 239.434 16.8767 236.24 17.7084" stroke="#141E36" stroke-width="5.77283"/>
<path d="M227.573 88.1687C233.989 94.7984 244.565 94.9718 251.194 88.5559C257.824 82.14 257.997 71.5644 251.581 64.9347C249.715 63.0057 247.496 61.6232 245.124 60.7907" stroke="#141E36" stroke-width="5.77283"/>
</svg>
