<svg width="429" height="164" viewBox="0 0 429 164" fill="none" xmlns="http://www.w3.org/2000/svg">
<text fill="#C2B59B" xml:space="preserve" style="white-space: pre" font-family="Barlow" font-size="34.637" font-weight="500" letter-spacing="0em"><tspan x="178.125" y="128.793">akn&#xe9;</tspan></text>
<path d="M287.258 52.31C270.286 52.31 264.621 52.8843 258.163 50.5806C255.692 49.6992 253.301 47.5545 251.29 45.242C247.136 40.4658 246.193 33.9095 244.502 27.8099C240.667 13.9742 228.695 3.88175 214.52 3.88175C199.92 3.88176 187.657 14.5889 184.215 29.0652C182.943 34.4167 182.256 40.0969 178.842 44.4104C176.748 47.0563 174.015 49.648 170.878 50.5806C163.604 52.7424 162.391 52.3101 141.782 52.3101" stroke="#141E36" stroke-width="5.77283"/>
<mask id="path-3-inside-1" fill="white">
<path fill-rule="evenodd" clip-rule="evenodd" d="M227.544 52.8988C230.577 48.4605 232.323 42.9179 233.142 37.6049C233.281 36.7073 233.352 35.7878 233.352 34.8515C233.352 24.9492 225.325 16.9219 215.423 16.9219C205.521 16.9219 197.493 24.9492 197.493 34.8515C197.493 35.7891 197.565 36.7099 197.704 37.6086C198.524 42.9215 200.271 48.4637 203.306 52.9014C205.948 56.7654 210.39 59.3012 215.424 59.3012C220.459 59.3012 224.902 56.7643 227.544 52.8988Z"/>
</mask>
<path d="M233.142 37.6049L227.437 36.7255L227.437 36.7255L233.142 37.6049ZM227.544 52.8988L232.31 56.1561L227.544 52.8988ZM227.58 34.8515C227.58 35.4923 227.53 36.1179 227.437 36.7255L238.848 38.4842C239.031 37.2967 239.125 36.0832 239.125 34.8515H227.58ZM215.423 22.6947C222.137 22.6947 227.58 28.1375 227.58 34.8515H239.125C239.125 21.761 228.513 11.149 215.423 11.149V22.6947ZM203.266 34.8515C203.266 28.1375 208.709 22.6947 215.423 22.6947V11.149C202.332 11.149 191.72 21.761 191.72 34.8515H203.266ZM203.409 36.7281C203.315 36.1197 203.266 35.4932 203.266 34.8515H191.72C191.72 36.0849 191.815 37.3001 191.999 38.4891L203.409 36.7281ZM215.424 53.5284C212.376 53.5284 209.683 52.0008 208.071 49.6431L198.54 56.1597C202.212 61.53 208.403 65.0741 215.424 65.0741V53.5284ZM222.778 49.6415C221.166 52.0001 218.472 53.5284 215.424 53.5284V65.0741C222.446 65.0741 228.638 61.5284 232.31 56.1561L222.778 49.6415ZM191.999 38.4891C192.902 44.34 194.866 50.7865 198.54 56.1597L208.071 49.6431C205.676 46.1409 204.146 41.5031 203.409 36.7281L191.999 38.4891ZM227.437 36.7255C226.701 41.5007 225.172 46.1388 222.778 49.6415L232.31 56.1561C235.983 50.7821 237.946 44.3352 238.848 38.4842L227.437 36.7255Z" fill="#141E36" mask="url(#path-3-inside-1)"/>
</svg>
