<svg width="258" height="281" viewBox="0 0 258 281" fill="none" xmlns="http://www.w3.org/2000/svg">
<text fill="#C2B59B" xml:space="preserve" style="white-space: pre" font-family="Barlow" font-size="34.637" font-weight="500" letter-spacing="0em"><tspan x="58.6924" y="218.67">vn&#xfa;torn&#xfd; &#x2028;</tspan><tspan x="78.3786" y="260.67">&#xfa;&#x10d;inok</tspan></text>
<path fill-rule="evenodd" clip-rule="evenodd" d="M68.4174 70.6677C68.4174 35.284 97.165 6.58924 132.64 6.58924C168.212 6.58924 198.767 37.6776 196.581 70.4757C196.288 74.8693 195.355 77.3616 194.293 78.7537C193.331 80.0148 192.053 80.6475 190.193 80.8071C188.206 80.9776 185.71 80.5841 182.66 79.7878C180.563 79.2403 178.391 78.557 176.08 77.8297L176.079 77.8297L176.078 77.8293C175.022 77.4971 173.937 77.1558 172.817 76.8141C165.963 74.7231 157.942 72.6447 150.641 74.5726C144.978 76.0676 140.175 79.8187 136.581 86.6531L134.141 76.895L128.541 78.2951L133.159 96.7682L133.827 99.4382L136.526 98.8985L153.844 95.4348L152.712 89.7741L140.334 92.2496C143.526 84.4654 147.771 81.3011 152.114 80.1541C157.631 78.6975 164.154 80.2068 171.133 82.3357C172.138 82.6424 173.16 82.9637 174.184 83.2858C176.566 84.035 178.963 84.7888 181.202 85.3734C184.409 86.2107 187.686 86.8162 190.687 86.5588C193.814 86.2905 196.736 85.0684 198.883 82.2553C200.929 79.573 202.013 75.7717 202.341 70.8597C204.772 34.3837 171.195 0.816406 132.64 0.816406C93.9885 0.816406 62.6445 32.084 62.6445 70.6677C62.6445 81.363 65.053 91.4962 69.3579 100.557L73.1742 94.9134C70.1076 87.4339 68.4174 79.2474 68.4174 70.6677ZM100.955 126.417C101.008 128.235 100.845 130.342 100.244 132.603C109.931 137.659 120.951 140.519 132.64 140.519C137.305 140.519 144.981 139.733 153.168 137.407C161.343 135.086 170.259 131.164 177.179 124.738L173.251 120.508C167.239 126.09 159.27 129.673 151.591 131.854C143.925 134.031 136.779 134.746 132.64 134.746C121.117 134.746 110.304 131.718 100.955 126.417Z" fill="#141E36"/>
<path d="M95.5376 111.85L78.6397 86.8315L61.722 111.85C60.5145 113.849 58.3008 117.433 57.2946 120.534C56.5831 122.727 54.0747 131.906 61.3195 141.004C68.3996 149.895 77.0231 149.895 78.6331 149.895C80.243 149.895 88.86 149.895 95.9401 141.004C103.185 131.906 100.677 122.727 99.965 120.534C98.9588 117.433 96.7451 113.849 95.5376 111.85Z" stroke="#141E36" stroke-width="5.77283"/>
</svg>
