<svg width="440" height="264" viewBox="0 0 440 264" fill="none" xmlns="http://www.w3.org/2000/svg">
<text fill="#C2B59B" xml:space="preserve" style="white-space: pre" font-family="Barlow" font-size="34.637" font-weight="500" letter-spacing="0em"><tspan x="88.0701" y="227.529">bez konzervantov</tspan></text>
<path fill-rule="evenodd" clip-rule="evenodd" d="M301.914 72.7486C301.914 109.563 272.07 139.406 235.256 139.406C218.874 139.406 203.872 133.496 192.267 123.693V131.047C204.291 139.929 219.16 145.179 235.256 145.179C275.259 145.179 307.687 112.751 307.687 72.7486C307.687 50.3573 297.526 30.3391 281.564 17.053C269.01 6.60341 252.867 0.318237 235.256 0.318237C204.016 0.318237 177.396 20.0961 167.232 47.8136H170.421H173.419C183.292 23.3524 207.259 6.09107 235.256 6.09107C251.469 6.09107 266.316 11.8715 277.871 21.4899C292.572 33.7262 301.914 52.1438 301.914 72.7486Z" fill="#141E36"/>
<path d="M148.579 99.6073C150.337 96.5941 155.057 92.8277 162.891 92.8277C172.684 92.8277 183.983 99.7899 192.269 91.5038" stroke="#141E36" stroke-width="5.77283"/>
<path d="M144.481 64.1894C137.001 59.4021 140.391 47.8136 149.272 47.8136H170.423H191.057C199.845 47.8136 203.376 59.1531 196.14 64.142V64.142C193.716 65.8136 192.268 68.5701 192.268 71.5148V135.856C192.268 147.921 182.488 157.701 170.423 157.701V157.701C158.359 157.701 148.578 147.921 148.578 135.856V71.6763C148.578 68.6454 147.034 65.8233 144.481 64.1894V64.1894Z" stroke="#141E36" stroke-width="5.77283"/>
<path d="M217.447 54.938L254.256 91.7469" stroke="#141E36" stroke-width="5.77283"/>
<path d="M254.255 54.9379L217.446 91.7467" stroke="#141E36" stroke-width="5.77283"/>
</svg>
