<svg width="257" height="281" viewBox="0 0 257 281" fill="none" xmlns="http://www.w3.org/2000/svg">
<text fill="#C2B59B" xml:space="preserve" style="white-space: pre" font-family="Barlow" font-size="34.637" font-weight="500" letter-spacing="0em"><tspan x="63.4646" y="218.093">vonkaj&#x161;&#xed; &#x2028;</tspan><tspan x="77.5866" y="260.093">&#xfa;&#x10d;inok</tspan></text>
<path fill-rule="evenodd" clip-rule="evenodd" d="M58.3881 70.6677C58.3881 35.284 87.1357 6.58924 122.611 6.58924C158.007 6.58924 186.545 37.4741 186.545 70.6677C186.545 76.0025 186.682 81.2282 187.675 85.7866C188.68 90.3946 190.618 94.601 194.424 97.6107C198.209 100.603 203.435 102.091 210.36 102.13C215.912 102.16 222.722 101.261 231.077 99.3209L223.843 112.582L228.911 115.346L239.302 96.2957L240.539 94.0293L238.424 92.5489L221.105 80.426L217.795 85.1553L229.941 93.6579C221.783 95.5615 215.392 96.3844 210.392 96.3568C204.22 96.3228 200.426 94.9969 198.005 93.0824C195.605 91.1851 194.152 88.392 193.316 84.5572C192.469 80.6729 192.318 76.0126 192.318 70.6677C192.318 34.4335 161.341 0.816406 122.611 0.816406C83.9592 0.816406 52.6152 32.084 52.6152 70.6677C52.6152 81.363 55.0237 91.4962 59.3286 100.557L63.1449 94.9134C60.0783 87.4339 58.3881 79.2474 58.3881 70.6677ZM90.9254 126.417C90.9788 128.235 90.8156 130.342 90.2145 132.603C99.9018 137.659 110.922 140.519 122.611 140.519C127.275 140.519 134.952 139.733 143.139 137.407C151.313 135.086 160.23 131.164 167.149 124.738L163.221 120.508C157.21 126.09 149.241 129.673 141.562 131.854C133.895 134.031 126.75 134.746 122.611 134.746C111.088 134.746 100.274 131.718 90.9254 126.417Z" fill="#141E36"/>
<path d="M85.5083 111.85L68.6104 86.8315L51.6927 111.85C50.4852 113.849 48.2715 117.433 47.2653 120.534C46.5538 122.727 44.0454 131.906 51.2902 141.004C58.3703 149.895 66.9938 149.895 68.6038 149.895C70.2137 149.895 78.8307 149.895 85.9108 141.004C93.1556 131.906 90.6472 122.727 89.9357 120.534C88.9295 117.433 86.7158 113.849 85.5083 111.85Z" stroke="#141E36" stroke-width="5.77283"/>
</svg>
