<svg width="257" height="282" viewBox="0 0 257 282" fill="none" xmlns="http://www.w3.org/2000/svg">
<path fill-rule="evenodd" clip-rule="evenodd" d="M65.8119 70.3586C65.8119 34.969 94.5008 6.28015 129.89 6.28015C165.28 6.28015 193.969 34.969 193.969 70.3586C193.969 105.748 165.28 134.437 129.89 134.437C118.424 134.437 107.662 131.425 98.3504 126.15C98.4003 127.968 98.233 130.073 97.6288 132.33C107.279 137.364 118.252 140.21 129.89 140.21C168.468 140.21 199.742 108.936 199.742 70.3586C199.742 31.7808 168.468 0.507324 129.89 0.507324C91.3125 0.507324 60.0391 31.7808 60.0391 70.3586C60.0391 81.058 62.4446 91.1955 66.7444 100.26L70.5619 94.6144C67.4998 87.1326 65.8119 78.9427 65.8119 70.3586Z" fill="#141E36"/>
<path d="M92.9312 111.541L76.0332 86.5229L59.1155 111.541C57.9081 113.54 55.6944 117.124 54.6881 120.226C53.9766 122.419 51.4682 131.598 58.713 140.695C65.7932 149.586 74.4167 149.586 76.0266 149.586C77.6366 149.586 86.2535 149.586 93.3337 140.695C100.578 131.598 98.0701 122.419 97.3586 120.226C96.3523 117.124 94.1387 113.54 92.9312 111.541Z" stroke="#141E36" stroke-width="5.77283"/>
<text fill="#C2B59B" xml:space="preserve" style="white-space: pre" font-family="Barlow" font-size="34.637" font-weight="500" letter-spacing="0em"><tspan x="73.4287" y="219.426">pomal&#xfd;&#10;</tspan><tspan x="77.5046" y="261.426">&#xfa;&#x10d;inok</tspan></text>
<path d="M89.6015 75.4271C93.0946 70.4459 101.847 64.5863 115.463 65.7259C132.483 67.1504 148.941 78.3509 166.716 67.6982M166.716 67.6982L146.632 58.8138M166.716 67.6982L158.178 87.6778" stroke="#141E36" stroke-width="5.77283"/>
</svg>
