<svg width="257" height="282" viewBox="0 0 257 282" fill="none" xmlns="http://www.w3.org/2000/svg">
<path fill-rule="evenodd" clip-rule="evenodd" d="M65.8246 70.6677C65.8246 35.2781 94.5135 6.58924 129.903 6.58924C165.293 6.58924 193.981 35.2781 193.981 70.6677C193.981 106.057 165.293 134.746 129.903 134.746C118.437 134.746 107.674 131.735 98.3631 126.459C98.413 128.277 98.2457 130.382 97.6415 132.639C107.292 137.673 118.265 140.519 129.903 140.519C168.481 140.519 199.754 109.245 199.754 70.6677C199.754 32.0899 168.481 0.816406 129.903 0.816406C91.3252 0.816406 60.0518 32.0899 60.0518 70.6677C60.0518 81.367 62.4573 91.5046 66.7571 100.569L70.5746 94.9235C67.5125 87.4416 65.8246 79.2518 65.8246 70.6677Z" fill="#141E36"/>
<path d="M92.9439 111.85L76.0459 86.8315L59.1282 111.85C57.9208 113.849 55.7071 117.433 54.7008 120.534C53.9893 122.727 51.4809 131.906 58.7257 141.004C65.8059 149.895 74.4294 149.895 76.0393 149.895C77.6493 149.895 86.2662 149.895 93.3464 141.004C100.591 131.906 98.0828 122.727 97.3713 120.534C96.365 117.433 94.1514 113.849 92.9439 111.85Z" stroke="#141E36" stroke-width="5.77283"/>
<text fill="#C2B59B" xml:space="preserve" style="white-space: pre" font-family="Barlow" font-size="34.637" font-weight="500" letter-spacing="0em"><tspan x="83.2697" y="219.735">r&#xfd;chly&#10;</tspan><tspan x="78.0944" y="261.735">&#xfa;&#x10d;inok</tspan></text>
<path d="M90.1902 70.3546C97.5743 70.3546 101.038 70.3546 116.052 70.3546C132.211 70.3546 147.221 70.3546 166.848 70.3546M166.848 70.3546L150.684 54.8053M166.848 70.3546L150.684 87.1332" stroke="#141E36" stroke-width="5.77283"/>
</svg>
