<svg width="428" height="239" viewBox="0 0 428 239" fill="none" xmlns="http://www.w3.org/2000/svg">
<text fill="#C2B59B" xml:space="preserve" style="white-space: pre" font-family="Barlow" font-size="34.637" font-weight="500" letter-spacing="0em"><tspan x="125.613" y="203.701">vylu&#x10d;ovanie</tspan></text>
<path d="M204.435 74.1724L204.435 128.294M204.435 128.294L224.053 108.676M204.435 128.294L184.817 108.676" stroke="#141E36" stroke-width="5.77283"/>
<path fill-rule="evenodd" clip-rule="evenodd" d="M179.309 76.2134L183.416 72.0614C174.138 65.4752 168.085 54.6453 168.085 42.4016C168.085 22.3265 184.359 6.0525 204.434 6.05251C224.509 6.05251 240.783 22.3266 240.783 42.4016C240.783 54.6451 234.73 65.4747 225.452 72.061L229.559 76.213C239.874 68.5353 246.556 56.2487 246.556 42.4016C246.556 19.1383 227.697 0.27968 204.434 0.279678C181.17 0.279676 162.312 19.1383 162.312 42.4016C162.312 56.249 168.994 68.5357 179.309 76.2134Z" fill="#141E36"/>
<path d="M178.477 71.8633C179.631 73.0178 183.095 75.327 185.404 76.1853V90.3363" stroke="#141E36" stroke-width="5.77283"/>
<path d="M230.432 71.8633C229.277 73.0178 226.275 75.2617 223.504 76.1853V90.3363" stroke="#141E36" stroke-width="5.77283"/>
<path d="M243.133 44.3272C214.318 57.4526 210.201 37.327 192.363 37.327C175.732 36.1235 164.622 46.0773 164.622 46.0773" stroke="#141E36" stroke-width="5.77283"/>
</svg>
