<svg width="428" height="268" viewBox="0 0 428 268" fill="none" xmlns="http://www.w3.org/2000/svg">
<text fill="#C2B59B" xml:space="preserve" style="white-space: pre" font-family="Barlow" font-size="34.637" font-weight="500" letter-spacing="0em"><tspan x="166.812" y="205.701">boles&#x165;</tspan></text>
<circle cx="215.066" cy="59.9884" r="39.2355" stroke="#141E36" stroke-width="5.77283"/>
<path d="M249.723 23.062L265.768 5.54753C265.769 5.54617 265.772 5.54675 265.772 5.54854L269.04 18.9969C269.04 18.9987 269.042 18.9992 269.044 18.9979L284.36 2.27979" stroke="#141E36" stroke-width="5.77283"/>
<path d="M145.812 117.736L161.857 102.168C161.858 102.167 161.86 102.167 161.861 102.169L165.129 114.123C165.129 114.124 165.131 114.125 165.132 114.124L180.449 99.2632" stroke="#141E36" stroke-width="5.77283"/>
<path d="M180.448 20.7528L164.403 5.18433C164.401 5.18311 164.399 5.18368 164.399 5.18538L161.131 17.1394C161.131 17.1411 161.129 17.1417 161.127 17.1404L145.811 2.27979" stroke="#141E36" stroke-width="5.77283"/>
<path d="M284.359 117.736L268.314 102.168C268.313 102.167 268.31 102.167 268.31 102.169L265.042 114.123C265.042 114.124 265.04 114.125 265.038 114.124L249.722 99.2632" stroke="#141E36" stroke-width="5.77283"/>
</svg>
