<svg width="428" height="278" viewBox="0 0 428 278" fill="none" xmlns="http://www.w3.org/2000/svg">
<text fill="#C2B59B" xml:space="preserve" style="white-space: pre" font-family="Barlow" font-size="34.637" font-weight="500" letter-spacing="0em"><tspan x="156.622" y="215.701">mu&#x17e;sk&#xe9;&#10;</tspan><tspan x="143.345" y="257.701">probl&#xe9;my</tspan></text>
<path d="M215.872 0.733887V56.7846M215.872 56.7846L235.489 37.1669M215.872 56.7846L196.254 37.1669" stroke="#141E36" stroke-width="5.77283"/>
<path d="M246.558 57.0417L286.192 17.4079M286.192 17.4079L258.448 17.4079M286.192 17.4079L286.192 45.1516" stroke="#141E36" stroke-width="5.77283"/>
<path fill-rule="evenodd" clip-rule="evenodd" d="M240.995 48.1953L236.889 52.3473C246.167 58.9335 252.22 69.7634 252.22 82.0071C252.22 102.082 235.946 118.356 215.871 118.356C195.796 118.356 179.522 102.082 179.522 82.0071C179.522 69.7636 185.575 58.9339 194.852 52.3477L190.746 48.1957C180.431 55.8734 173.749 68.1599 173.749 82.0071C173.749 105.27 192.608 124.129 215.871 124.129C239.134 124.129 257.993 105.27 257.993 82.0071C257.993 68.1597 251.311 55.873 240.995 48.1953Z" fill="#141E36"/>
</svg>
