<svg width="428" height="301" viewBox="0 0 428 301" fill="none" xmlns="http://www.w3.org/2000/svg">
<text fill="#C2B59B" xml:space="preserve" style="white-space: pre" font-family="Barlow" font-size="34.637" font-weight="500" letter-spacing="0em"><tspan x="161.475" y="238.701">&#x17e;ensk&#xe9;&#10;</tspan><tspan x="143.244" y="280.701">probl&#xe9;my</tspan></text>
<path d="M208.142 118.349V164.591" stroke="#141E36" stroke-width="5.77283"/>
<path d="M188.523 143.572H227.759" stroke="#141E36" stroke-width="5.77283"/>
<path d="M208.842 0.642578V56.6933M208.842 56.6933L228.46 37.0756M208.842 56.6933L189.225 37.0756" stroke="#141E36" stroke-width="5.77283"/>
<path fill-rule="evenodd" clip-rule="evenodd" d="M233.966 48.104L229.86 52.2559C239.137 58.8422 245.191 69.672 245.191 81.9158C245.191 101.991 228.917 118.265 208.842 118.265C188.767 118.265 172.493 101.991 172.493 81.9158C172.493 69.6723 178.546 58.8426 187.823 52.2563L183.717 48.1044C173.401 55.7821 166.72 68.0686 166.72 81.9158C166.72 105.179 185.578 124.038 208.842 124.038C232.105 124.038 250.964 105.179 250.964 81.9158C250.964 68.0684 244.282 55.7817 233.966 48.104Z" fill="#141E36"/>
</svg>
