<svg width="428" height="265" viewBox="0 0 428 265" fill="none" xmlns="http://www.w3.org/2000/svg">
<text fill="#C2B59B" xml:space="preserve" style="white-space: pre" font-family="Barlow" font-size="34.637" font-weight="500" letter-spacing="0em"><tspan x="90.676" y="230.237">zmyslov&#xe9; org&#xe1;ny</tspan></text>
<path d="M252.69 62.1774C252.69 68.93 263.885 92.6727 267.497 100.157C268.089 101.385 267.502 102.853 266.228 103.337L254.755 107.689C253.6 108.128 252.995 109.397 253.381 110.571L256.521 120.101C256.616 120.389 256.594 120.702 256.46 120.974L254.932 124.064C254.773 124.386 254.773 124.765 254.932 125.087L256.46 128.177C256.594 128.449 256.616 128.762 256.521 129.05L253.029 139.648C252.806 140.326 252.429 140.942 251.928 141.449L250.314 143.082C249.304 144.104 247.875 144.598 246.45 144.418L219.143 140.964C217.717 140.784 216.289 141.277 215.278 142.299L214.236 143.354C213.381 144.219 212.902 145.385 212.902 146.601V176.909C209.918 180.758 198.361 183.157 187.786 175.754C176.24 167.673 165.732 172.291 165.156 176.909C165.156 176.909 169.135 146.717 169.135 128.601C169.135 110.486 139.294 86.3317 139.294 58.1518C139.294 29.9719 149.241 13.8703 173.114 5.81868C196.986 -2.23293 252.69 13.8692 252.69 38.0236C252.69 62.178 252.69 54.1261 252.69 62.1774Z" stroke="#141E36" stroke-width="5.77283"/>
<path d="M189.168 81.0802C189.168 79.1673 187.567 77.6165 185.591 77.6165C183.615 77.6165 182.013 79.1673 182.013 81.0802C182.013 82.9932 183.615 84.5439 185.591 84.5439C187.567 84.5439 189.168 82.9932 189.168 81.0802Z" fill="#141E36"/>
<path d="M189.168 81.0802C189.168 79.1673 187.567 77.6165 185.591 77.6165C183.615 77.6165 182.013 79.1673 182.013 81.0802C182.013 82.9932 183.615 84.5439 185.591 84.5439C187.567 84.5439 189.168 82.9932 189.168 81.0802ZM189.168 81.0802H120.821" stroke="#141E36" stroke-width="5.77283"/>
<path d="M236.278 64.9163C236.278 66.8293 237.879 68.38 239.855 68.38C241.831 68.38 243.433 66.8293 243.433 64.9163C243.433 63.0034 241.831 61.4526 239.855 61.4526C237.879 61.4526 236.278 63.0034 236.278 64.9163Z" fill="#141E36"/>
<path d="M236.278 64.9163C236.278 66.8293 237.879 68.38 239.855 68.38C241.831 68.38 243.433 66.8293 243.433 64.9163C243.433 63.0034 241.831 61.4526 239.855 61.4526C237.879 61.4526 236.278 63.0034 236.278 64.9163ZM236.278 64.9163L302.088 64.9163" stroke="#141E36" stroke-width="5.77283"/>
<path d="M257.06 129.572C257.06 131.485 258.661 133.035 260.637 133.035C262.613 133.035 264.215 131.485 264.215 129.572C264.215 127.659 262.613 126.108 260.637 126.108C258.661 126.108 257.06 127.659 257.06 129.572Z" fill="#141E36"/>
<path d="M257.06 129.572C257.06 131.485 258.661 133.035 260.637 133.035C262.613 133.035 264.215 131.485 264.215 129.572C264.215 127.659 262.613 126.108 260.637 126.108C258.661 126.108 257.06 127.659 257.06 129.572ZM257.06 129.572L302.088 129.572" stroke="#141E36" stroke-width="5.77283"/>
<path d="M261.678 92.6258C261.678 94.5388 263.28 96.0895 265.256 96.0895C267.231 96.0895 268.833 94.5388 268.833 92.6258C268.833 90.7129 267.231 89.1621 265.256 89.1621C263.28 89.1621 261.678 90.7129 261.678 92.6258Z" fill="#141E36"/>
<path d="M261.678 92.6258C261.678 94.5388 263.28 96.0895 265.256 96.0895C267.231 96.0895 268.833 94.5388 268.833 92.6258C268.833 90.7129 267.231 89.1621 265.256 89.1621C263.28 89.1621 261.678 90.7129 261.678 92.6258ZM261.678 92.6258L302.088 92.6258" stroke="#141E36" stroke-width="5.77283"/>
<path d="M197.022 100.708C195.483 103.017 191.291 105.924 187.786 104.171C180.859 100.708 157.237 70.6335 182.013 64.916C197.022 61.4522 197.022 69.5344 197.022 76.4617" stroke="#141E36" stroke-width="5.77283"/>
</svg>
