<svg width="428" height="264" viewBox="0 0 428 264" fill="none" xmlns="http://www.w3.org/2000/svg">
<text fill="#C2B59B" xml:space="preserve" style="white-space: pre" font-family="Barlow" font-size="34.637" font-weight="500" letter-spacing="0em"><tspan x="101.621" y="229.547">d&#xfd;chacie cesty</tspan></text>
<path d="M252.372 61.487C252.372 68.2396 263.567 91.9823 267.178 99.4665C267.771 100.694 267.184 102.163 265.909 102.646L254.437 106.999C253.282 107.437 252.676 108.707 253.063 109.88L256.203 119.41C256.297 119.698 256.275 120.012 256.141 120.283L254.614 123.374C254.455 123.696 254.455 124.074 254.614 124.397L256.141 127.487C256.275 127.759 256.297 128.072 256.203 128.36L252.711 138.958C252.488 139.635 252.111 140.252 251.609 140.759L249.995 142.392C248.985 143.414 247.557 143.908 246.131 143.727L218.824 140.274C217.399 140.093 215.97 140.587 214.96 141.609L213.917 142.664C213.063 143.529 212.584 144.695 212.584 145.91V176.219C209.6 180.067 198.042 182.467 187.467 175.064C175.922 166.982 165.414 171.6 164.838 176.219C164.838 176.219 168.817 146.026 168.817 127.911C168.817 109.795 138.976 85.6413 138.976 57.4614C138.976 29.2815 148.923 13.1799 172.795 5.12825C196.668 -2.92336 252.372 13.1788 252.372 37.3331C252.372 61.4875 252.371 53.4356 252.372 61.487Z" stroke="#141E36" stroke-width="5.77283"/>
<path d="M202.477 178.528C202.477 113.872 189.777 85.008 220.95 79.2348C235.709 76.5015 244.041 82.6985 249.814 91.935C252.556 96.3211 255.557 101.228 259.19 105.79C263.208 110.835 267.997 115.458 274.06 118.49C282.114 122.517 294.102 117.554 300.615 114.185" stroke="#141E36" stroke-width="5.77283" stroke-dasharray="23.09 23.09"/>
</svg>
