<svg width="428" height="237" viewBox="0 0 428 237" fill="none" xmlns="http://www.w3.org/2000/svg">
<text fill="#C2B59B" xml:space="preserve" style="white-space: pre" font-family="Barlow" font-size="34.637" font-weight="500" letter-spacing="0em"><tspan x="105.366" y="201.928">mozog a nervy</tspan></text>
<path fill-rule="evenodd" clip-rule="evenodd" d="M186.302 0.81543C174.78 0.81543 165.096 8.663 162.295 19.3051C149.01 19.7869 138.388 30.7088 138.388 44.1117C138.388 49.4932 140.103 54.4794 143.014 58.5463C137.235 66.2414 133.77 76.3736 133.77 87.4079C133.77 107.47 145.327 124.857 161.581 129.502C162.723 142.151 173.355 152.064 186.302 152.064C200.012 152.064 211.125 140.95 211.125 127.24V59.121V25.6386C211.125 11.9291 200.012 0.81543 186.302 0.81543ZM205.352 25.7536C205.353 25.7153 205.353 25.677 205.353 25.6386C205.353 15.1174 196.823 6.58826 186.302 6.58826C176.794 6.58826 168.907 13.5575 167.482 22.6663L167.075 25.2685L164.446 25.1006C164.038 25.0746 163.626 25.0613 163.211 25.0613C152.69 25.0613 144.161 33.5904 144.161 44.1117C144.161 48.9164 145.936 53.2995 148.87 56.6519L150.505 58.5198L148.902 60.4159C143.17 67.2 139.542 76.7488 139.542 87.4079C139.542 106.339 150.873 121.44 164.958 124.394L167.253 124.876L167.252 127.221L167.252 127.24V127.242C167.253 137.762 175.782 146.291 186.302 146.291C196.823 146.291 205.353 137.762 205.353 127.24C205.353 126.172 205.265 125.126 205.097 124.109L205.058 123.871L205.058 123.629L205.103 108.759L205.198 77.0081L205.294 45.2576L205.352 25.762L205.352 25.7536Z" fill="#141E36"/>
<path fill-rule="evenodd" clip-rule="evenodd" d="M239.99 0.81543C251.512 0.81543 261.196 8.663 263.997 19.3051C277.282 19.7869 287.904 30.7088 287.904 44.1117C287.904 49.6678 286.076 54.8019 282.992 58.9383C288.595 66.5836 291.945 76.5593 291.945 87.4079C291.945 107.23 280.668 124.429 264.727 129.326C263.668 142.059 252.997 152.064 239.99 152.064C226.28 152.064 215.167 140.95 215.167 127.24V59.121V25.6386C215.167 11.9291 226.28 0.81543 239.99 0.81543ZM220.94 25.756C220.94 25.7168 220.939 25.6776 220.939 25.6386C220.939 15.1174 229.469 6.58826 239.99 6.58826C249.499 6.58826 257.385 13.5575 258.81 22.6663L259.217 25.2685L261.846 25.1006C262.254 25.0746 262.666 25.0613 263.081 25.0613C273.602 25.0613 282.131 33.5904 282.131 44.1117C282.131 49.0559 280.252 53.5544 277.163 56.9422L275.476 58.793L277.07 60.7244C282.654 67.4883 286.172 76.9102 286.172 87.4079C286.172 106.101 275.118 121.073 261.275 124.28L259.024 124.801L259.04 127.111L259.04 127.16V127.16L259.04 127.24C259.04 137.762 250.511 146.291 239.99 146.291C229.469 146.291 220.939 137.762 220.939 127.24C220.939 126.172 221.027 125.126 221.195 124.108L221.235 123.871L221.234 123.629L221.189 108.759L221.094 77.0081L220.998 45.2576L220.94 25.7645L220.94 25.756Z" fill="#141E36"/>
<path d="M183.094 28.3438C184.069 33.862 182.041 45.1818 166.137 46.3155" stroke="#141E36" stroke-width="5.77283"/>
<path d="M196.693 104.442C205.93 104.442 208.263 99.4159 208.223 96.1948L208.239 93.2764" stroke="#141E36" stroke-width="5.77283"/>
<path d="M230.004 104.289C220.767 104.289 218.056 99.2624 218.097 96.0414L218.081 93.1229" stroke="#141E36" stroke-width="5.77283"/>
<path d="M173.75 45.7055C174.49 54.0672 171.802 71.4227 155.128 73.9513" stroke="#141E36" stroke-width="5.77283"/>
<path d="M242.767 28.3438C241.793 33.862 243.82 45.1818 259.724 46.3155" stroke="#141E36" stroke-width="5.77283"/>
<path d="M252.111 45.7055C251.371 54.0672 254.059 71.4227 270.734 73.9513" stroke="#141E36" stroke-width="5.77283"/>
<path d="M164.365 128.395C164.365 122.808 166.618 114.218 174.756 111.102" stroke="#141E36" stroke-width="5.77283"/>
<path d="M262.504 128.394C261.568 121.846 258.359 113.781 249.804 110.957" stroke="#141E36" stroke-width="5.77283"/>
</svg>
