<svg width="441" height="296" viewBox="0 0 441 296" fill="none" xmlns="http://www.w3.org/2000/svg">
<path d="M221.599 169.116V148.931V138.244M221.599 8.24763V84.8119M221.599 138.244V102.029V84.8119M221.599 138.244C221.599 144.893 248.909 132.307 248.909 132.307C248.909 132.307 281.918 116.159 290.468 132.307M221.599 84.8119C219.7 90.5113 202.205 81.1879 200.226 80.0624C200.226 80.0624 181.703 69.7024 169.354 81.2497" stroke="#141E36" stroke-width="5.77283"/>
<path d="M273.7 80.9354L221.611 5.87292L169.461 80.9354C165.739 86.9322 158.915 97.6849 155.813 106.99C153.62 113.57 145.887 141.11 168.22 168.405C190.045 195.08 216.628 195.08 221.59 195.08C226.553 195.08 253.116 195.08 274.941 168.405C297.273 141.11 289.541 113.57 287.348 106.99C284.246 97.6849 277.422 86.9322 273.7 80.9354Z" stroke="#141E36" stroke-width="5.77283"/>
<text fill="#C2B59B" xml:space="preserve" style="white-space: pre" font-family="Barlow" font-size="34.637" font-weight="500" letter-spacing="0em"><tspan x="94.4809" y="259.206">pr&#xed;rodn&#xfd; produkt</tspan></text>
</svg>
