<svg width="428" height="268" viewBox="0 0 428 268" fill="none" xmlns="http://www.w3.org/2000/svg">
<text fill="#C2B59B" xml:space="preserve" style="white-space: pre" font-family="Barlow" font-size="34.637" font-weight="500" letter-spacing="0em"><tspan x="151.744" y="233.546">tr&#xe1;venie</tspan></text>
<path fill-rule="evenodd" clip-rule="evenodd" d="M263.715 108.866C262.573 109.102 261.434 109.274 260.301 109.384C256.15 109.788 250.55 110.496 244.41 111.272L244.409 111.273C238.922 111.966 233.004 112.714 227.303 113.349C214.72 114.75 202.846 115.647 195.642 114.884C193.883 114.698 192.19 114.304 190.585 113.729C189.112 115.417 187.259 116.767 185.158 117.643C188.154 119.211 191.48 120.249 195.034 120.625C206.733 121.864 228.37 119.123 245.284 116.981C251.291 116.22 256.702 115.535 260.86 115.13C262.197 115 263.539 114.797 264.882 114.52C285.963 110.167 299.406 88.9794 294.908 67.1973C290.41 45.4151 269.673 31.2863 248.593 35.6398C237.695 37.8902 228.839 44.6388 223.447 53.6425C219.646 59.9891 208.441 64.2699 201.084 63.4909C185.651 61.8566 171.785 73.3217 170.115 89.0988C169.98 90.3723 169.928 91.635 169.956 92.8811C171.634 91.4481 173.638 90.3854 175.844 89.8208C175.847 89.7828 175.851 89.7448 175.855 89.7067C177.203 76.9802 188.332 67.9456 200.476 69.2316C205.374 69.7502 211.008 68.5925 215.838 66.5595C220.599 64.5556 225.612 61.2627 228.399 56.6085C233.013 48.9045 240.541 43.1972 249.76 41.2933C267.546 37.6204 285.364 49.5292 289.254 68.3648C293.144 87.2004 281.5 105.194 263.715 108.866Z" fill="#141E36"/>
<path d="M169.602 97.7358L168.842 100.52L171.171 101.156L172.209 98.9758L169.602 97.7358ZM179.08 116.456L179.622 113.621L177.251 113.167L176.385 115.422L179.08 116.456ZM169.645 125.026L168.875 122.244L166.311 122.953L166.809 125.566L169.645 125.026ZM161.615 142.7L160.157 140.209L157.897 141.532L158.994 143.909L161.615 142.7ZM162.458 144.992L159.678 145.768L160.261 147.859L162.432 147.878L162.458 144.992ZM172.743 149.564L170.619 151.518L172.014 153.034L173.901 152.208L172.743 149.564ZM181.949 149.276L180.96 151.987L182.713 152.627L184.016 151.291L181.949 149.276ZM189.766 146.075L189.708 148.961L191.868 149.005L192.519 146.944L189.766 146.075ZM199.18 138.679L198.986 135.799L198.986 135.799L199.18 138.679ZM202.457 138.967L201.76 141.768L204.086 142.348L205.082 140.167L202.457 138.967ZM212.896 131.752L212.703 128.872L212.703 128.872L212.896 131.752ZM220.338 133.638L218.795 136.077L220.536 137.179L222.144 135.89L220.338 133.638ZM228.234 130.568L228.041 127.688L228.041 127.688L228.234 130.568ZM239.058 134.554L237.043 136.621L238.428 137.97L240.202 137.204L239.058 134.554ZM244.869 133.156L245.062 136.036L245.062 136.036L244.869 133.156ZM262.699 147.914L265.579 147.721L265.579 147.721L262.699 147.914ZM246.999 164.921L246.806 162.041L246.806 162.041L246.999 164.921ZM232.334 158.482L234.62 156.719L233.494 155.258L231.694 155.667L232.334 158.482ZM230.127 158.804L230.32 161.684L230.32 161.684L230.127 158.804ZM219.537 155.04L221.504 152.928L219.997 151.525L218.181 152.492L219.537 155.04ZM214.553 156.458L214.746 159.338L214.746 159.338L214.553 156.458ZM208.575 155.366L209.777 152.743L207.595 151.742L206.213 153.706L208.575 155.366ZM200.6 159.856L200.793 162.736L200.793 162.736L200.6 159.856ZM199.67 159.878L199.727 156.992L197.567 156.95L196.917 159.01L199.67 159.878ZM188.353 167.231L188.674 164.362L186.824 164.155L185.872 165.755L188.353 167.231ZM170.299 170.833L172.028 168.521L170.375 167.286L168.671 168.449L170.299 170.833ZM149.319 164.717L151.971 163.578L151.069 161.475L148.815 161.874L149.319 164.717ZM137.884 135.241L139.259 137.779L141.642 136.488L140.503 134.028L137.884 135.241ZM151.716 111.446L151.957 114.322L154.608 114.1L154.602 111.44L151.716 111.446ZM151.716 111.387L148.829 111.387L148.829 111.393L151.716 111.387ZM170.363 94.9514C168.927 94.5593 167.418 94.3508 165.865 94.3508V100.124C166.9 100.124 167.897 100.262 168.842 100.52L170.363 94.9514ZM181.588 87.2757C175.143 87.2757 169.586 91.05 166.996 96.4959L172.209 98.9758C173.879 95.4653 177.454 93.0485 181.588 93.0485V87.2757ZM197.739 103.427C197.739 94.507 190.508 87.2757 181.588 87.2757V93.0485C187.32 93.0485 191.967 97.6953 191.967 103.427H197.739ZM181.588 119.579C190.508 119.579 197.739 112.348 197.739 103.427H191.967C191.967 109.159 187.32 113.806 181.588 113.806V119.579ZM178.537 119.291C179.527 119.48 180.547 119.579 181.588 119.579V113.806C180.913 113.806 180.257 113.742 179.622 113.621L178.537 119.291ZM170.414 127.808C175.642 126.363 179.853 122.496 181.775 117.49L176.385 115.422C175.115 118.731 172.323 121.291 168.875 122.244L170.414 127.808ZM172.828 128.189C172.828 126.926 172.709 125.687 172.48 124.486L166.809 125.566C166.971 126.413 167.055 127.29 167.055 128.189H172.828ZM163.073 145.191C168.903 141.779 172.828 135.444 172.828 128.189H167.055C167.055 133.311 164.29 137.79 160.157 140.209L163.073 145.191ZM165.238 144.217C164.976 143.276 164.64 142.366 164.236 141.491L158.994 143.909C159.27 144.508 159.5 145.129 159.678 145.768L165.238 144.217ZM174.867 147.609C171.79 144.265 167.383 142.15 162.484 142.106L162.432 147.878C165.669 147.908 168.578 149.3 170.619 151.518L174.867 147.609ZM177.705 145.643C175.534 145.643 173.462 146.097 171.585 146.92L173.901 152.208C175.062 151.699 176.346 151.416 177.705 151.416V145.643ZM182.939 146.564C181.303 145.967 179.538 145.643 177.705 145.643V151.416C178.854 151.416 179.948 151.618 180.96 151.987L182.939 146.564ZM189.547 143.186C185.759 143.186 182.331 144.75 179.883 147.26L184.016 151.291C185.422 149.849 187.378 148.959 189.547 148.959V143.186ZM189.824 143.189C189.732 143.187 189.64 143.186 189.547 143.186V148.959C189.601 148.959 189.654 148.96 189.708 148.961L189.824 143.189ZM198.986 135.799C193.273 136.182 188.636 140.066 187.013 145.206L192.519 146.944C193.45 143.994 196.11 141.778 199.373 141.559L198.986 135.799ZM203.155 136.167C201.823 135.835 200.421 135.703 198.986 135.799L199.373 141.559C200.201 141.503 201.003 141.58 201.76 141.768L203.155 136.167ZM205.082 140.167C206.489 137.09 209.489 134.873 213.089 134.632L212.703 128.872C206.904 129.261 202.084 132.84 199.832 137.768L205.082 140.167ZM213.089 134.632C215.181 134.491 217.152 135.037 218.795 136.077L221.882 131.199C219.24 129.526 216.058 128.647 212.703 128.872L213.089 134.632ZM222.144 135.89C223.878 134.5 226.036 133.608 228.427 133.448L228.041 127.688C224.434 127.93 221.158 129.281 218.533 131.386L222.144 135.89ZM228.427 133.448C231.749 133.225 234.828 134.463 237.043 136.621L241.072 132.486C237.732 129.233 233.066 127.351 228.041 127.688L228.427 133.448ZM240.202 137.204C241.689 136.561 243.324 136.152 245.062 136.036L244.676 130.276C242.276 130.437 239.998 131.003 237.913 131.904L240.202 137.204ZM245.062 136.036C252.879 135.512 259.347 141.071 259.819 148.107L265.579 147.721C264.874 137.214 255.376 129.558 244.676 130.276L245.062 136.036ZM259.819 148.107C260.291 155.144 254.623 161.517 246.806 162.041L247.192 167.801C257.893 167.083 266.283 158.228 265.579 147.721L259.819 148.107ZM246.806 162.041C241.801 162.377 237.3 160.195 234.62 156.719L230.048 160.244C233.909 165.252 240.274 168.265 247.192 167.801L246.806 162.041ZM231.694 155.667C231.126 155.796 230.538 155.883 229.934 155.924L230.32 161.684C231.226 161.623 232.112 161.492 232.974 161.296L231.694 155.667ZM229.934 155.924C226.704 156.141 223.704 154.976 221.504 152.928L217.57 157.153C220.888 160.242 225.435 162.011 230.32 161.684L229.934 155.924ZM218.181 152.492C217.037 153.101 215.747 153.485 214.36 153.578L214.746 159.338C216.962 159.189 219.043 158.573 220.893 157.588L218.181 152.492ZM214.36 153.578C212.723 153.688 211.163 153.378 209.777 152.743L207.372 157.99C209.609 159.016 212.127 159.514 214.746 159.338L214.36 153.578ZM200.793 162.736C205.028 162.452 208.676 160.241 210.936 157.027L206.213 153.706C204.913 155.555 202.828 156.813 200.407 156.976L200.793 162.736ZM199.614 162.764C200.004 162.771 200.397 162.762 200.793 162.736L200.407 156.976C200.178 156.991 199.951 156.996 199.727 156.992L199.614 162.764ZM189.547 170.184C195.591 170.184 200.7 166.213 202.423 160.745L196.917 159.01C195.93 162.144 192.999 164.411 189.547 164.411V170.184ZM188.032 170.099C188.53 170.155 189.036 170.184 189.547 170.184V164.411C189.251 164.411 188.96 164.394 188.674 164.362L188.032 170.099ZM177.705 176.177C183.293 176.177 188.176 173.174 190.834 168.707L185.872 165.755C184.212 168.545 181.174 170.404 177.705 170.404V176.177ZM168.571 173.145C171.118 175.049 174.284 176.177 177.705 176.177V170.404C175.572 170.404 173.611 169.705 172.028 168.521L168.571 173.145ZM162.327 176.177C165.883 176.177 169.193 175.084 171.928 173.216L168.671 168.449C166.865 169.683 164.685 170.404 162.327 170.404V176.177ZM146.666 165.855C149.269 171.92 155.298 176.177 162.327 176.177V170.404C157.687 170.404 153.696 167.598 151.971 163.578L146.666 165.855ZM146.212 167.875C147.443 167.875 148.649 167.766 149.822 167.559L148.815 161.874C147.974 162.023 147.104 162.102 146.212 162.102V167.875ZM126.523 149.07C126.523 159.601 135.487 167.875 146.212 167.875V162.102C138.377 162.102 132.296 156.122 132.296 149.07H126.523ZM136.509 132.703C130.603 135.902 126.523 141.993 126.523 149.07H132.296C132.296 144.305 135.039 140.065 139.259 137.779L136.509 132.703ZM133.45 128.189C133.45 131.135 134.099 133.937 135.265 136.454L140.503 134.028C139.682 132.256 139.223 130.28 139.223 128.189H133.45ZM151.475 108.569C141.378 109.416 133.45 117.875 133.45 128.189H139.223C139.223 120.902 144.826 114.92 151.957 114.322L151.475 108.569ZM148.829 111.393L148.83 111.452L154.602 111.44L154.602 111.381L148.829 111.393ZM165.865 94.3508C156.457 94.3508 148.829 101.978 148.829 111.387H154.602C154.602 105.166 159.645 100.124 165.865 100.124V94.3508Z" fill="#141E36"/>
<path d="M248.331 39.3612V0.105957M265.65 0.105957V38.2066" stroke="#141E36" stroke-width="5.77283"/>
</svg>
