<svg width="428" height="220" viewBox="0 0 428 220" fill="none" xmlns="http://www.w3.org/2000/svg">
<text fill="#C2B59B" xml:space="preserve" style="white-space: pre" font-family="Barlow" font-size="34.637" font-weight="500" letter-spacing="0em"><tspan x="179.547" y="157.773">ko&#x17e;a</tspan></text>
<path d="M161.73 39.91C166.348 33.3239 177.92 25.5765 195.923 27.0832C218.427 28.9666 240.187 43.7757 263.689 29.6909M161.73 85.4031L161.73 16.0026C161.73 12.1767 164.831 9.07524 168.657 9.07525L257.571 9.07542C261.397 9.07542 264.499 12.1769 264.499 16.0028L264.499 85.4032" stroke="#141E36" stroke-width="5.77283"/>
<circle cx="245.799" cy="72.1933" r="5.77283" transform="rotate(45 245.799 72.1933)" fill="#141E36"/>
<circle cx="218.321" cy="66.0869" r="5.77283" transform="rotate(45 218.321 66.0869)" fill="#141E36"/>
<circle cx="236.639" cy="50.8212" r="5.77283" transform="rotate(45 236.639 50.8212)" fill="#141E36"/>
<circle cx="206.108" cy="41.6621" r="5.77283" transform="rotate(45 206.108 41.6621)" fill="#141E36"/>
<circle cx="181.684" cy="50.8212" r="5.77283" transform="rotate(45 181.684 50.8212)" fill="#141E36"/>
<circle cx="190.842" cy="72.1933" r="5.77283" transform="rotate(45 190.842 72.1933)" fill="#141E36"/>
</svg>
