<svg width="428" height="262" viewBox="0 0 428 262" fill="none" xmlns="http://www.w3.org/2000/svg">
<text fill="#C2B59B" xml:space="preserve" style="white-space: pre" font-family="Barlow" font-size="34.637" font-weight="500" letter-spacing="0em"><tspan x="115.869" y="199.319">srdce a cievy</tspan></text>
<path fill-rule="evenodd" clip-rule="evenodd" d="M232.17 100.765L214.661 115.373L175.268 82.3341L175.055 82.1555L174.826 81.9981C167.576 77.0202 162.84 68.6895 162.84 59.2542C162.84 51.6578 165.913 44.7791 170.883 39.7932C170.037 37.9791 169.252 36.0825 168.53 34.0961C161.507 40.2081 157.067 49.2127 157.067 59.2542C157.067 70.6717 162.807 80.7486 171.558 86.7572L214.651 122.9L234.522 106.321C233.788 104.322 233.001 102.477 232.17 100.765ZM246.674 88.6648C247.624 90.344 248.525 92.097 249.374 93.9302L260.059 85.0154C267.494 78.901 272.235 69.6313 272.235 59.2541C272.235 40.842 257.309 25.916 238.897 25.916C230.731 25.916 223.251 28.8518 217.455 33.7255C216.47 34.5535 215.534 35.4373 214.651 36.3722C213.768 35.4374 212.832 34.5535 211.848 33.7256C206.051 28.8519 198.571 25.9161 190.405 25.9161C188.695 25.9161 187.015 26.0449 185.374 26.2933C186.041 28.2978 186.773 30.1375 187.557 31.8343C188.494 31.7382 189.444 31.6889 190.405 31.6889C198.305 31.6889 205.42 35.0041 210.453 40.3352L214.651 44.7815L218.849 40.3352C223.882 35.004 230.998 31.6888 238.897 31.6888C254.121 31.6888 266.462 44.0302 266.462 59.2541C266.462 67.8322 262.551 75.4919 256.392 80.5568L256.377 80.5697L256.361 80.5827L246.674 88.6648Z" fill="#141E36"/>
<path d="M166.304 0.515625C166.304 92.076 243.414 54.7802 243.414 141.373" stroke="#141E36" stroke-width="5.77283"/>
<path d="M257.513 141.373C257.513 46.5886 180.422 80.1807 180.422 0.515625" stroke="#141E36" stroke-width="5.77283"/>
</svg>
