<svg width="428" height="244" viewBox="0 0 428 244" fill="none" xmlns="http://www.w3.org/2000/svg">
<text fill="#C2B59B" xml:space="preserve" style="white-space: pre" font-family="Barlow" font-size="34.637" font-weight="500" letter-spacing="0em"><tspan x="91.1085" y="208.627">podpora imunity</tspan></text>
<circle cx="170.459" cy="70.6827" r="5.77283" transform="rotate(135.171 170.459 70.6827)" fill="#141E36"/>
<path d="M171.896 70.8817L191.878 70.9414" stroke="#141E36" stroke-width="5.77283"/>
<circle cx="255.298" cy="70.8965" r="5.77283" transform="rotate(-45 255.298 70.8965)" fill="#141E36"/>
<path d="M253.859 70.7031L233.877 70.7031" stroke="#141E36" stroke-width="5.77283"/>
<circle cx="182.965" cy="40.7217" r="5.77283" transform="rotate(-179.829 182.965 40.7217)" fill="#141E36"/>
<path d="M183.841 41.8783L197.928 56.0498" stroke="#141E36" stroke-width="5.77283"/>
<circle cx="242.804" cy="100.864" r="5.77283" fill="#141E36"/>
<path d="M241.924 99.7094L227.795 85.5801" stroke="#141E36" stroke-width="5.77283"/>
<circle cx="242.923" cy="40.887" r="5.77283" transform="rotate(-89.8289 242.923 40.887)" fill="#141E36"/>
<path d="M241.766 41.7635L227.595 55.8506" stroke="#141E36" stroke-width="5.77283"/>
<circle cx="182.781" cy="100.727" r="5.77283" transform="rotate(90 182.781 100.727)" fill="#141E36"/>
<path d="M183.936 99.8461L198.065 85.7168" stroke="#141E36" stroke-width="5.77283"/>
<circle cx="212.979" cy="28.3868" r="5.77283" transform="rotate(-134.829 212.979 28.3868)" fill="#141E36"/>
<path d="M212.78 29.8248L212.721 49.8066" stroke="#141E36" stroke-width="5.77283"/>
<circle cx="212.767" cy="113.227" r="5.77283" transform="rotate(45 212.767 113.227)" fill="#141E36"/>
<path d="M212.96 111.788L212.96 91.8057" stroke="#141E36" stroke-width="5.77283"/>
<circle cx="214.25" cy="71.0164" r="21.3595" stroke="#141E36" stroke-width="5.77283"/>
<circle cx="153.057" cy="122.972" r="32.3279" stroke="#141E36" stroke-width="5.77283"/>
<mask id="path-20-inside-1" fill="white">
<path fill-rule="evenodd" clip-rule="evenodd" d="M153.057 99.8809C146.681 99.8809 141.512 105.05 141.512 111.427V116.439C138.821 117.39 136.894 119.956 136.894 122.972V136.827C136.894 140.653 139.995 143.754 143.821 143.754H162.294C166.12 143.754 169.221 140.653 169.221 136.827V122.972C169.221 119.956 167.294 117.39 164.603 116.439V111.427C164.603 105.05 159.434 99.8809 153.057 99.8809Z"/>
</mask>
<path d="M141.512 116.439L143.436 121.882L147.285 120.521V116.439H141.512ZM164.603 116.439H158.83V120.521L162.679 121.882L164.603 116.439ZM147.285 111.427C147.285 108.238 149.869 105.654 153.057 105.654V94.108C143.493 94.108 135.739 101.862 135.739 111.427H147.285ZM147.285 116.439V111.427H135.739V116.439H147.285ZM142.666 122.972C142.666 122.478 142.979 122.043 143.436 121.882L139.588 110.996C134.663 112.737 131.121 117.433 131.121 122.972H142.666ZM142.666 136.827V122.972H131.121V136.827H142.666ZM143.821 137.982C143.183 137.982 142.666 137.465 142.666 136.827H131.121C131.121 143.841 136.807 149.527 143.821 149.527V137.982ZM162.294 137.982H143.821V149.527H162.294V137.982ZM163.449 136.827C163.449 137.465 162.932 137.982 162.294 137.982V149.527C169.308 149.527 174.994 143.841 174.994 136.827H163.449ZM163.449 122.972V136.827H174.994V122.972H163.449ZM162.679 121.882C163.136 122.043 163.449 122.478 163.449 122.972H174.994C174.994 117.433 171.452 112.737 166.527 110.996L162.679 121.882ZM158.83 111.427V116.439H170.376V111.427H158.83ZM153.057 105.654C156.246 105.654 158.83 108.238 158.83 111.427H170.376C170.376 101.862 162.622 94.108 153.057 94.108V105.654Z" fill="#141E36" mask="url(#path-20-inside-1)"/>
<rect x="139.78" y="118.931" width="26.555" height="21.9368" rx="4.04098" stroke="#141E36" stroke-width="5.77283"/>
<path fill-rule="evenodd" clip-rule="evenodd" d="M278.906 71.0164C278.906 106.725 249.958 135.672 214.25 135.672C203.679 135.672 193.701 133.135 184.891 128.638C184.545 130.597 184.022 132.496 183.339 134.317C192.671 138.882 203.161 141.445 214.25 141.445C253.146 141.445 284.678 109.913 284.678 71.0164C284.678 49.244 274.799 29.779 259.278 16.8601C247.071 6.69935 231.374 0.587891 214.25 0.587891C175.353 0.587891 143.821 32.1198 143.821 71.0164C143.821 78.0512 144.853 84.8451 146.773 91.2551C148.67 90.8811 150.627 90.6733 152.628 90.6472C150.658 84.4561 149.594 77.8604 149.594 71.0164C149.594 35.3081 178.541 6.36072 214.25 6.36072C229.975 6.36072 244.376 11.9674 255.585 21.2971C269.844 33.1662 278.906 51.0305 278.906 71.0164Z" fill="#141E36"/>
</svg>
