<svg width="428" height="232" viewBox="0 0 428 232" fill="none" xmlns="http://www.w3.org/2000/svg">
<text fill="#C2B59B" xml:space="preserve" style="white-space: pre" font-family="Barlow" font-size="34.637" font-weight="500" letter-spacing="0em"><tspan x="98.9424" y="197.319">ruka, kon&#x10d;atiny</tspan></text>
<path d="M251.788 83.9563L248.902 84.0097L251.788 83.9563ZM170.982 83.9564L173.868 84.0097L170.982 83.9564ZM248.908 23.3386V83.9497H254.681V23.3386H248.908ZM237.363 52.2026V23.3386H231.59V52.2026H237.363ZM225.817 11.793V52.2026H231.59V11.793H225.817ZM214.272 52.2026V11.793H208.499V52.2026H214.272ZM202.726 14.6794V52.2026H208.499V14.6794H202.726ZM191.18 61.6469V14.6794H185.408V61.6469H191.18ZM182.521 50.7594V61.6412H188.294V50.7594H182.521ZM173.862 83.9497V50.7594H168.089V83.9497H173.862ZM173.862 84.6738C173.862 84.4498 173.864 84.2284 173.868 84.0097L168.096 83.903C168.092 84.1578 168.089 84.4148 168.089 84.6738H173.862ZM211.385 121.475C190.613 121.475 173.862 104.95 173.862 84.6738H168.089C168.089 108.236 187.523 127.248 211.385 127.248V121.475ZM248.908 84.6738C248.908 104.95 232.158 121.475 211.385 121.475V127.248C235.248 127.248 254.681 108.236 254.681 84.6738H248.908ZM248.902 84.0097C248.906 84.2284 248.908 84.4498 248.908 84.6738H254.681C254.681 84.4147 254.679 84.1578 254.674 83.903L248.902 84.0097ZM254.674 83.903C254.704 85.5167 253.404 86.8394 251.792 86.8394V81.0666C250.176 81.0666 248.872 82.3922 248.902 84.0097L254.674 83.903ZM170.979 86.8394C169.367 86.8394 168.066 85.5167 168.096 83.903L173.868 84.0097C173.898 82.3923 172.595 81.0666 170.979 81.0666V86.8394ZM168.089 83.9497C168.089 85.5456 169.383 86.8394 170.979 86.8394V81.0666C172.571 81.0666 173.862 82.3574 173.862 83.9497H168.089ZM178.192 40.657C172.612 40.657 168.089 45.18 168.089 50.7594H173.862C173.862 48.3682 175.8 46.4298 178.192 46.4298V40.657ZM188.294 50.7594C188.294 45.18 183.771 40.657 178.192 40.657V46.4298C180.583 46.4298 182.521 48.3682 182.521 50.7594H188.294ZM186.466 60.2247C187.335 59.9879 188.294 60.6219 188.294 61.6412H182.521C182.521 64.5463 185.296 66.527 187.984 65.7944L186.466 60.2247ZM185.408 61.6469C185.408 60.8964 185.911 60.3758 186.466 60.2247L187.984 65.7944C189.77 65.3077 191.18 63.6737 191.18 61.6469H185.408ZM196.953 3.13377C190.577 3.13377 185.408 8.30291 185.408 14.6794H191.18C191.18 11.4912 193.765 8.9066 196.953 8.9066V3.13377ZM208.499 14.6794C208.499 8.30292 203.33 3.13377 196.953 3.13377V8.9066C200.141 8.9066 202.726 11.4912 202.726 14.6794H208.499ZM208.499 52.2026L208.499 52.2026H202.726C202.726 55.3908 205.311 57.9754 208.499 57.9754V52.2026ZM208.499 52.2026L208.499 52.2026V57.9754C211.687 57.9754 214.272 55.3908 214.272 52.2026H208.499ZM220.044 0.247374C213.668 0.247374 208.499 5.41652 208.499 11.793H214.272C214.272 8.60477 216.856 6.0202 220.044 6.0202V0.247374ZM231.59 11.793C231.59 5.41652 226.421 0.247374 220.044 0.247374V6.0202C223.233 6.0202 225.817 8.60477 225.817 11.793H231.59ZM231.59 52.2026L231.59 52.2026H225.817C225.817 55.3908 228.402 57.9754 231.59 57.9754V52.2026ZM231.59 52.2026L231.59 52.2026V57.9754C234.778 57.9754 237.363 55.3908 237.363 52.2026H231.59ZM243.136 11.793C236.759 11.793 231.59 16.9621 231.59 23.3386H237.363C237.363 20.1504 239.947 17.5658 243.136 17.5658V11.793ZM248.908 83.9497C248.908 82.3531 250.203 81.0666 251.792 81.0666V86.8394C253.383 86.8394 254.681 85.5499 254.681 83.9497H248.908ZM254.681 23.3386C254.681 16.9621 249.512 11.793 243.136 11.793V17.5658C246.324 17.5658 248.908 20.1504 248.908 23.3386H254.681Z" fill="#141E36"/>
</svg>
