<svg width="441" height="269" viewBox="0 0 441 269" fill="none" xmlns="http://www.w3.org/2000/svg">
<text fill="#C2B59B" xml:space="preserve" style="white-space: pre" font-family="Barlow" font-size="34.637" font-weight="500" letter-spacing="0em"><tspan x="102.16" y="220.123">100% organick&#xe9;&#10;</tspan><tspan x="164.855" y="262.123">konope</tspan></text>
<path d="M167.01 148.695V141.766V138.097M167.01 93.468V119.753M167.01 138.097V125.664V119.753M167.01 138.097C167.01 140.38 176.386 136.059 176.386 136.059C176.386 136.059 187.718 130.515 190.653 136.059M167.01 119.753C166.358 121.71 160.352 118.509 159.673 118.123C159.673 118.123 153.314 114.566 149.074 118.53" stroke="#141E36" stroke-width="5.77283"/>
<path d="M184.897 118.422L167.014 92.6527L149.11 118.422C147.833 120.481 145.49 124.173 144.425 127.367C143.672 129.626 141.018 139.081 148.685 148.451C156.177 157.609 165.303 157.609 167.007 157.609C168.711 157.609 177.83 157.609 185.323 148.451C192.99 139.081 190.335 129.626 189.582 127.367C188.517 124.173 186.174 120.481 184.897 118.422Z" stroke="#141E36" stroke-width="5.77283"/>
<text fill="#141E36" xml:space="preserve" style="white-space: pre" font-family="Barlow" font-size="57.7283" font-weight="600" letter-spacing="0em"><tspan x="169.675" y="93.2498">100</tspan></text>
<text fill="#141E36" xml:space="preserve" style="white-space: pre" font-family="Barlow" font-size="39.2552" font-weight="bold" letter-spacing="0em"><tspan x="255.647" y="93.2498">%</tspan></text>
<path fill-rule="evenodd" clip-rule="evenodd" d="M291.953 72.4672C291.953 109.281 262.11 139.125 225.296 139.125C211.941 139.125 199.503 135.197 189.075 128.435C189.335 130.249 189.442 132.572 189.025 135.176C199.691 141.358 212.08 144.898 225.296 144.898C265.298 144.898 297.726 112.469 297.726 72.4672C297.726 50.0759 287.566 30.0577 271.604 16.7716C259.049 6.32204 242.906 0.0368652 225.296 0.0368652C185.293 0.0368652 152.865 32.465 152.865 72.4672C152.865 82.7354 155.002 92.5045 158.855 101.354L162.756 95.5852C160.093 88.3831 158.638 80.595 158.638 72.4672C158.638 35.6533 188.482 5.8097 225.296 5.8097C241.508 5.8097 256.355 11.5901 267.91 21.2086C282.611 33.4449 291.953 51.8625 291.953 72.4672Z" fill="#141E36"/>
</svg>
