<svg width="440" height="299" viewBox="0 0 440 299" fill="none" xmlns="http://www.w3.org/2000/svg">
<path fill-rule="evenodd" clip-rule="evenodd" d="M155.4 102.292C155.4 65.4777 185.244 35.6341 222.058 35.6341C234.503 35.6341 246.151 39.0446 256.119 44.9819C257.26 44.302 258.341 43.7072 259.198 43.2359C259.308 43.1754 259.414 43.1169 259.516 43.0606L261.993 41.8561C250.545 34.2757 236.817 29.8613 222.058 29.8613C182.056 29.8613 149.628 62.2895 149.628 102.292C149.628 124.683 159.788 144.701 175.75 157.987C188.304 168.437 204.447 174.722 222.058 174.722C262.06 174.722 294.488 142.294 294.488 102.292C294.488 91.9003 292.3 82.0201 288.359 73.0866C287.717 74.8818 286.616 77.2348 284.744 79.5737C287.314 86.6639 288.715 94.3141 288.715 102.292C288.715 139.106 258.872 168.949 222.058 168.949C205.846 168.949 190.999 163.169 179.443 153.55C164.742 141.314 155.4 122.896 155.4 102.292Z" fill="#141E36"/>
<path d="M260.202 78.4303L263.622 72.4034L265.433 69.2127M287.461 30.3989L274.487 53.2591M265.433 69.2127L271.569 58.3997L274.487 53.2591M265.433 69.2127C264.306 71.198 274.593 72.0677 274.593 72.0677C274.593 72.0677 287.185 72.8396 287.001 79.1097M274.487 53.2591C272.954 54.6389 269.31 48.8908 268.91 48.2194C268.91 48.2194 265.135 41.9874 259.491 43.3427" stroke="#141E36" stroke-width="5.77283"/>
<path d="M290.701 60.9304L287.867 29.6921L259.577 43.2671C257.45 44.4269 253.59 46.4811 251.088 48.7338C249.318 50.3267 242.342 57.2391 244.385 69.1731C246.382 80.8359 254.319 85.3403 255.8 86.1812C257.282 87.0222 265.213 91.5232 276.249 87.2569C287.543 82.8914 289.9 73.3585 290.361 71.0223C291.011 67.7184 290.796 63.3516 290.701 60.9304Z" stroke="#141E36" stroke-width="5.77283"/>
<path d="M218.767 32.2369L218.767 169.973C219.706 119.237 242.594 92.4553 254.293 85.1104" stroke="#141E36" stroke-width="5.77283"/>
<text fill="#C2B59B" xml:space="preserve" style="white-space: pre" font-family="Barlow" font-size="34.637" font-weight="500" letter-spacing="0em"><tspan x="174.544" y="261.822">vegan</tspan></text>
</svg>
