<svg width="440" height="285" viewBox="0 0 440 285" fill="none" xmlns="http://www.w3.org/2000/svg">
<text fill="#C2B59B" xml:space="preserve" style="white-space: pre" font-family="Barlow" font-size="34.637" font-weight="500" letter-spacing="0em"><tspan x="128.508" y="242.462">laborat&#xf3;rne &#10;</tspan><tspan x="144.913" y="284.462">testovan&#xe9;</tspan></text>
<path d="M187.759 79.3699C190.529 74.9549 197.97 69.436 210.319 69.436C225.755 69.436 243.566 79.6375 256.627 67.4961" stroke="#141E36" stroke-width="5.77283"/>
<circle cx="175.885" cy="152.988" r="33.2467" stroke="#141E36" stroke-width="5.77283"/>
<path fill-rule="evenodd" clip-rule="evenodd" d="M183.939 26.0774C174.846 20.3274 178.919 6.26404 189.678 6.26404H222.663H254.858C265.524 6.26404 269.774 20.0517 260.959 26.0569C256.418 29.1505 253.701 34.2894 253.701 39.7838V138.062C253.701 155.204 239.805 169.1 222.663 169.1C216.933 169.1 211.566 167.547 206.96 164.84C206.266 166.657 205.417 168.398 204.43 170.047C209.805 173.118 216.029 174.872 222.663 174.872C242.993 174.872 259.474 158.392 259.474 138.062V39.7838C259.474 36.199 261.247 32.8462 264.209 30.8278C277.72 21.6236 271.205 0.491211 254.858 0.491211H222.663H189.678C173.135 0.491211 166.872 22.1152 180.854 30.9566C183.966 32.9245 185.853 36.3499 185.853 40.0321V121.261C187.866 121.892 189.797 122.711 191.625 123.695V40.0321C191.625 34.3703 188.724 29.1034 183.939 26.0774Z" fill="#141E36"/>
<path d="M164.012 150.613L173.511 160.112L190.134 143.489" stroke="#141E36" stroke-width="5.77283"/>
</svg>
