<svg width="441" height="269" viewBox="0 0 441 269" fill="none" xmlns="http://www.w3.org/2000/svg">
<text fill="#C2B59B" xml:space="preserve" style="white-space: pre" font-family="Barlow" font-size="34.637" font-weight="500" letter-spacing="0em"><tspan x="128.171" y="232.17">gluten FREE</tspan></text>
<path fill-rule="evenodd" clip-rule="evenodd" d="M156.129 72.6404C156.129 35.8265 185.972 5.98289 222.786 5.98289C235.231 5.98288 246.88 9.39336 256.848 15.3307C257.989 14.6507 259.07 14.056 259.927 13.5846C260.037 13.5241 260.143 13.4656 260.245 13.4093L262.722 12.2049C251.273 4.62442 237.545 0.210058 222.786 0.210059C182.784 0.210062 150.356 32.6382 150.356 72.6404C150.356 95.0318 160.517 115.05 176.478 128.336C189.033 138.786 205.176 145.071 222.786 145.071C262.789 145.071 295.217 112.643 295.217 72.6404C295.217 62.2493 293.029 52.3691 289.088 43.4358C288.446 45.231 287.345 47.5839 285.473 49.9227C288.043 57.0128 289.444 64.663 289.444 72.6404C289.444 109.454 259.6 139.298 222.786 139.298C206.574 139.298 191.727 133.518 180.172 123.899C165.471 111.663 156.129 93.2452 156.129 72.6404Z" fill="#141E36"/>
<path d="M222.788 3.09638C238.56 3.09638 253.101 8.34397 264.767 17.191L238.669 43.2895L182.751 99.2079L167.339 114.62C158.493 102.954 153.244 88.41 153.244 72.6403C153.244 34.2323 184.38 3.09638 222.788 3.09638ZM167.492 114.821L171.397 118.726L186.833 103.29L242.751 47.3715L269.239 20.8836C283.419 33.6188 292.332 52.0876 292.332 72.6403C292.332 111.048 261.196 142.184 222.788 142.184C200.24 142.184 180.199 131.454 167.492 114.821Z" stroke="#141E36" stroke-width="5.77283"/>
<path fill-rule="evenodd" clip-rule="evenodd" d="M215.45 82.3509C216.799 86.9125 217.615 92.1999 217.728 98.3281L223.5 98.2213C223.354 90.3334 222.119 83.5634 220.022 77.779L215.45 82.3509ZM210.519 62.3468C205.958 57.6422 200.557 54.3393 194.9 52.0785C179.964 46.1087 163.013 47.2984 153.824 49.1361L154.956 54.7968C163.579 53.0724 179.27 52.0482 192.758 57.439C197.804 59.456 202.507 62.3553 206.436 66.4297L210.519 62.3468Z" fill="#141E36"/>
<path fill-rule="evenodd" clip-rule="evenodd" d="M224.203 73.5983C221.053 80.2279 219.164 88.349 218.981 98.2213L224.753 98.3281C224.98 86.1052 227.999 77.2277 232.477 70.7806C236.957 64.3312 243.039 60.111 249.724 57.439C263.212 52.0482 278.903 53.0724 287.525 54.7968L288.657 49.1361C279.469 47.2984 262.518 46.1087 247.581 52.0785C246.46 52.5265 245.35 53.0154 244.253 53.5481L224.203 73.5983Z" fill="#141E36"/>
<path fill-rule="evenodd" clip-rule="evenodd" d="M197.949 5.91748C204.833 9.20755 211.15 14.202 215.789 21.5659C220.255 28.6576 223.065 37.7877 223.467 49.4L222.115 50.7516L217.73 50.8328C217.519 39.4401 214.881 30.9569 210.904 24.6426C206.93 18.3328 201.51 14.0178 195.46 11.126L197.949 5.91748Z" fill="#141E36"/>
<path fill-rule="evenodd" clip-rule="evenodd" d="M217.728 80.0731V114.526C216.824 112.752 215.827 111.09 214.746 109.534C210.911 104.013 206.094 99.9334 200.838 96.9631L196.578 101.223C201.745 103.881 206.395 107.631 210.004 112.827C214.483 119.274 217.502 128.152 217.728 140.375L223.501 140.321V74.3002L217.728 80.0731ZM217.728 55.138L223.501 49.3652V2.58472H217.728V55.138ZM182.198 90.6681C171.146 88.8661 160.461 89.8553 153.824 91.1826L154.956 96.8433C160.326 95.7694 168.436 94.9671 177.049 95.8165L182.198 90.6681Z" fill="#141E36"/>
<path fill-rule="evenodd" clip-rule="evenodd" d="M224.754 73.0465L224.754 114.526C225.658 112.752 226.655 111.09 227.736 109.534C232.979 101.987 240.055 97.1334 247.582 94.125C262.518 88.1552 279.469 89.3449 288.658 91.1826L287.526 96.8433C278.903 95.1189 263.212 94.0947 249.724 99.4855C243.039 102.157 236.958 106.378 232.478 112.827C227.999 119.274 224.98 128.152 224.754 140.375L218.981 140.321V78.8193L224.754 73.0465ZM224.754 48.1114L224.754 2.58472H218.981V53.8842L224.754 48.1114Z" fill="#141E36"/>
<path fill-rule="evenodd" clip-rule="evenodd" d="M246.593 4.9895C239.27 8.09264 232.439 12.9977 227.394 20.4905C222.349 27.9831 219.219 37.8703 218.98 50.7258L222.083 50.7833L224.857 48.0092C225.448 37.4837 228.214 29.6075 232.182 23.7149C236.497 17.3069 242.363 13.0516 248.845 10.3048L246.593 4.9895Z" fill="#141E36"/>
</svg>
